buffered_0
1
   -15.547867836607539   28.038345205222452
   -15.54822014169201   28.038768824613747
   -15.549442290071473   28.04060017501583
   -15.550458419571234   28.04254222592945
   -15.551259084977396   28.04457694934835
   -15.551836839352097   28.046685455672282
   -15.552186303609343   28.04884816888849
   -15.552304216972155   28.051045008172327
   -15.552189467823448   28.05325557422789
   -15.551843104643478   28.055459338643452
   -15.55126832690926   28.05763583450674
   -15.55047045601716   28.059764846510763
   -15.549456886474829   28.06182659878368
   -15.548237017793372   28.063801938694695
   -15.546822167691047   28.065672514923758
   -15.546113018724363   28.06644906386342
   -15.545653474160742   28.068028008665
   -15.544717362572987   28.070300439040583
   -15.543534560872764   28.072486620574413
   -15.542117803302046   28.074562980214544
   -15.541328829185106   28.075500885774677
   -15.541323773356416   28.07550796266432
   -15.541011509236565   28.07593539713394
   -15.5408386257629   28.076166861607096
   -15.540526077488934   28.07657648636694
   -15.540432131997031   28.076697033123647
   -15.540349907368729   28.07680491037708
   -15.540187501581897   28.077015664377015
   -15.540020886066552   28.07722953643923
   -15.539810969396344   28.077495297426026
   -15.539717652042679   28.077611828122638
   -15.53922975980335   28.078696176752526
   -15.539492594989254   28.080495755357266
   -15.539565029395733   28.08286201816187
   -15.539368641436477   28.085238072487748
   -15.539362816201617   28.08527990790921
   -15.538893739809811   28.087663651170747
   -15.538157693058471   28.090005287319965
   -15.53716271113477   28.092279184321427
   -15.537142677812115   28.092319064051086
   -15.53638943790603   28.094367551732383
   -15.536348677229197   28.09446206248937
   -15.534735447410226   28.09755248977328
   -15.53464787984481   28.09769408897662
   -15.53359046355536   28.09926519019034
   -15.532406974424061   28.100763460552244
   -15.532376723956649   28.100798928277516
   -15.531278795364702   28.102006493184547
   -15.53110483011251   28.102186120837782
   -15.530500606580752   28.10312264060409
   -15.53045284718007   28.10318713586534
   -15.53037937301848   28.103278421390453
   -15.53035926965812   28.103545374824385
   -15.530082500108428   28.105289230867957
   -15.530073410729278   28.105334509041295
   -15.529511459664883   28.107537948730286
   -15.529437707156596   28.107739112349574
   -15.528998565261144   28.109217649071297
   -15.52832982018203   28.11094195530744
   -15.528273259214906   28.1110720540911
   -15.52749089041826   28.112697504514326
   -15.527207706267854   28.113186831254588
   -15.526009384158382   28.11544747424036
   -15.524387091445089   28.117797198459
   -15.524348371018407   28.1178469249153
   -15.522896137758158   28.11955161429365
   -15.522560134645186   28.119882922223944
   -15.522500990354922   28.121990974926895
   -15.52249625683155   28.12204945963478
   -15.52202413030851   28.125111455574935
   -15.52200990556807   28.125173786627517
   -15.52133054363805   28.127538394516165
   -15.520387551696095   28.129840355612696
   -15.520368715159481   28.129880119256214
   -15.519119324615168   28.13218073725811
   -15.517610889241155   28.13435853987339
   -15.517537835746984   28.134452869956757
   -15.51628134206193   28.135952290110044
   -15.514903984437632   28.13736251299151
   -15.51484124795001   28.137422086185857
   -15.513173493369846   28.138878520932376
   -15.511379651053414   28.14020123831329
   -15.511277136683702   28.140270547011966
   -15.510133723521987   28.14095640514937
   -15.509582567620226   28.142072870043066
   -15.509563317482604   28.142108354817566
   -15.508305394860214   28.144173435613826
   -15.5068348310981   28.14612560385894
   -15.50516645260978   28.14794515640808
   -15.505118962125893   28.147992247007128
   -15.503197787229164   28.149719550801013
   -15.503138831102309   28.149767604706398
   -15.501847565202533   28.150719297996016
   -15.501192544764416   28.15132756688125
   -15.499335535674751   28.152771133560105
   -15.499107384149909   28.15291876917279
   -15.498960483683177   28.153049731063533
   -15.496948932186617   28.1545334162708
   -15.494797791455762   28.15583497785132
   -15.492528574252335   28.156941393714064
   -15.49016397739318   28.157841593577764
   -15.487727654452856   28.158526569988386
   -15.485243978774513   28.158989468668704
   -15.484277300571362   28.159080579749155
   -15.4842297240207   28.159091443654653
   -15.484105582021535   28.159118967020063
   -15.481953398107374   28.159508932764
   -15.481776277185949   28.15953393398058
   -15.479884710070221   28.159735372554135
   -15.47799093753598   28.15980637536734
   -15.47735558807104   28.15980087856277
   -15.477166112012164   28.159797028868255
   -15.474546619028676   28.159616064038566
   -15.471980093422365   28.15918211611113
   -15.471831234653557   28.1591492280958
   -15.469268792115361   28.15844141340705
   -15.467280228956325   28.15765779215148
   -15.467473482304051   28.159238757843774
   -15.467482176096865   28.15936329643026
   -15.467524964454205   28.161372334178413
   -15.467433462689971   28.162594649234897
   -15.46754387464036   28.163699674548948
   -15.467514706209672   28.16603135101664
   -15.467506093842841   28.166157754973767
   -15.46721946298879   28.168478760577354
   -15.466678760812043   28.17077616156143
   -15.465889518127595   28.173026372666076
   -15.464859818413958   28.17520629111674
   -15.463600215578044   28.177293533952774
   -15.462123626273796   28.179266668038164
   -15.460445197852927   28.181105430383646
   -15.45948892273053   28.181970588814128
   -15.459476844674938   28.181985048315042
   -15.458328636578665   28.18312775608649
   -15.457883893592072   28.183640415370164
   -15.456105932465173   28.18533727349116
   -15.454163295167227   28.186874777519133
   -15.452075158764897   28.1882377407778
   -15.449862140325221   28.189412699784828
   -15.447546093223849   28.190388047518923
   -15.44743771174408   28.19042270032043
   -15.447384939021587   28.190453300469244
   -15.446827385358267   28.1907124350537
   -15.446376831873868   28.191182698460302
   -15.444531243159044   28.192783400333482
   -15.442533644694857   28.194220244806797
   -15.442423902797234   28.194291917306376
   -15.440428126406617   28.195478545358025
   -15.440187022097751   28.195741025444956
   -15.43823501041351   28.197482606512786
   -15.436105769449178   28.199037844194752
   -15.433822969277173   28.20038944013976
   -15.433740611127417   28.20043303402366
   -15.431610658950333   28.201448033916208
   -15.430095857900099   28.20201954888035
   -15.428419133328225   28.202736664955932
   -15.425918745868518   28.20354060039363
   -15.42335685045388   28.204108232163094
   -15.420761025918571   28.204433448271754
   -15.420676472616147   28.204440028735572
   -15.418370693965137   28.20452275477612
   -15.41607970797235   28.204411701198243
   -15.413822880111553   28.204107806365634
   -15.41161928694583   28.2036136388154
   -15.409487554506818   28.202933375504525
   -15.407889367925689   28.20225977168789
   -15.407654878488955   28.202242078081234
   -15.405253991047173   28.201836356969736
   -15.40292352817781   28.201213539593834
   -15.402018931279322   28.200876411846984
   -15.401986355400313   28.200871843011168
   -15.40172925052445   28.2008056211691
   -15.40005101741733   28.200534907919558
   -15.397468241583354   28.199837078305304
   -15.395002318116399   28.198880240405085
   -15.392682759587483   28.197675846910617
   -15.392567366657106   28.19760756898148
   -15.390824772589617   28.19646743469536
   -15.389208662696106   28.195184909380306
   -15.389099291278376   28.195089529454165
   -15.387460755157607   28.193502729008717
   -15.386011090730914   28.191766423569653
   -15.385706473883268   28.19130979415777
   -15.385410895148436   28.19102807987052
   -15.385296346934494   28.190907434529695
   -15.383808615748533   28.18916161244818
   -15.383742120095853   28.18906380524554
   -15.382500617297966   28.18787063811652
   -15.38104170446153   28.186136341925693
   -15.379785887689268   28.184268267490292
   -15.378745330523232   28.182284526098364
   -15.377930107230805   28.18020434916277
   -15.377417748518189   28.178305954877995
   -15.376503652021299   28.176939318430428
   -15.37546273794479   28.17494016504394
   -15.374650256969417   28.17284396825708
   -15.37454837188655   28.172459732342386
   -15.374448014602992   28.17219243228407
   -15.373894148396248   28.17000803572009
   -15.373762349597143   28.169057366716945
   -15.37375784772467   28.169058238843327
   -15.373584150982765   28.168005541640674
   -15.373498608351996   28.167437590413705
   -15.373437057469621   28.166986027732204
   -15.373211585731806   28.16569035864538
   -15.373064507157453   28.163586900864185
   -15.373131776072867   28.161467712007344
   -15.373151200459988   28.16132139829208
   -15.37313121233009   28.153870552460877
   -15.373219001326218   28.151895343564043
   -15.373492213605182   28.14992363838932
   -15.373948809969487   28.14797006391491
   -15.37458539109978   28.146049111560504
   -15.374599289450192   28.146012696133734
   -15.375551506468806   28.143854747420882
   -15.376727705383056   28.14178053876159
   -15.378116251644167   28.13981055747435
   -15.379703415573278   28.13796425988927
   -15.38007303828305   28.137608366193906
   -15.379661691796406   28.135873715948147
   -15.379386131488113   28.133657734259984
   -15.379385382406825   28.1336469647926
   -15.379339127963007   28.13180900918576
   -15.379384010925369   28.12943670538375
   -15.379426746611179   28.126840314566902
   -15.37949406630124   28.1224396766941
   -15.37964470335062   28.120225190467472
   -15.380027569590306   28.118020817588004
   -15.380639079873223   28.11584709952115
   -15.381473519093229   28.113724290424578
   -15.382523096054436   28.111672168503638
   -15.38377801663593   28.109709851858756
   -15.38522657554888   28.107855620535467
   -15.386542253225523   28.10645901947186
   -15.386322140717803   28.10542442050967
   -15.386097909726413   28.103153848724997
   -15.386124898134694   28.100859702189762
   -15.386185997361677   28.100355213547008
   -15.386142859144766   28.09970415982582
   -15.386264452691677   28.097273802046814
   -15.38666609506103   28.094852581653015
   -15.386736248592419   28.094540045648234
   -15.38683226355914   28.09421698843289
   -15.386861418114073   28.094074587221904
   -15.38694250184259   28.093687095113687
   -15.386944117039107   28.09368728708001
   -15.387098413338663   28.092955729420616
   -15.387139532435784   28.092781390499386
   -15.387259035563702   28.092309166758195
   -15.387278305158004   28.09137748443489
   -15.387286983456205   28.091241149148214
   -15.387595039806534   28.08874102542217
   -15.387621003450372   28.08859922545857
   -15.388129903273443   28.086441564585673
   -15.388169119881043   28.086306048127398
   -15.388722638074439   28.084639504018718
   -15.38913278326812   28.08366323148764
   -15.388640833921668   28.081585795711618
   -15.388364613730955   28.07916421680639
   -15.388365125505649   28.0790453168
   -15.388269616793872   28.076691083294772
   -15.388455996197289   28.07424377290792
   -15.388925398583629   28.07181205427082
   -15.389672459168478   28.06942359815715
   -15.389717825318225   28.069302507502908
   -15.39061965313125   28.067214281853705
   -15.391534189273557   28.065558252635064
   -15.39148175714795   28.06546455629056
   -15.391234380575439   28.06488321979532
   -15.390459455101784   28.063440716859017
   -15.390088111163447   28.06252964942862
   -15.389934432319588   28.06222291292568
   -15.389726200163281   28.061641694253183
   -15.38964297219335   28.061437488622076
   -15.389503130224316   28.06103435554853
   -15.389508016527088   28.061032684681912
   -15.389106580094191   28.059912128794
   -15.388952823660118   28.059235301927895
   -15.38780258586014   28.057840816430268
   -15.386599784554576   28.05602728674556
   -15.385598539102055   28.054106020364955
   -15.38548466951682   28.053816311076368
   -15.384117326850458   28.053146607171318
   -15.382402196387469   28.05211660745451
   -15.382267559527447   28.05202760826483
   -15.38132897947904   28.05134195170896
   -15.381168998554395   28.051260851535453
   -15.381156696451924   28.05125418595935
   -15.379129647300575   28.05001834116017
   -15.377261042222734   28.0485946483394
   -15.375569648229055   28.046997411234575
   -15.374072449251669   28.045242676404293
   -15.372784475552168   28.043348071726395
   -15.371718652900611   28.04133262901997
   -15.37088567303652   28.039216592587547
   -15.37029388670238   28.037021215614843
   -15.369949220308627   28.034768546485633
   -15.369855117045937   28.03248120716929
   -15.370012503011651   28.030182165915345
   -15.37041977866224   28.02789450654449
   -15.371072835647672   28.025641196655986
   -15.371965098827532   28.02344485707984
   -15.373087593016377   28.02132753488639
   -15.374429033759093   28.019310482226608
   -15.375975941198302   28.017413943216276
   -15.377712775868124   28.015656950992387
   -15.379622095032586   28.014057136967562
   -15.380296638143289   28.013590610863524
   -15.380705974929375   28.01327115027098
   -15.380732717202285   28.01325087460598
   -15.381334224715353   28.01280771630415
   -15.381360594517785   28.012788841457315
   -15.38178342660888   28.01249453881704
   -15.382183395890076   28.01218701008987
   -15.382196281359702   28.012177659133666
   -15.383225412637222   28.011466230159897
   -15.383239751633472   28.011456794318125
   -15.3841124103169   28.010905697356083
   -15.384127847897107   28.01089634757009
   -15.38490718329637   28.01044152968484
   -15.384923405513481   28.010432412905992
   -15.385663772544174   28.010030956034562
   -15.385680452448923   28.010022235213377
   -15.386412824207179   28.009652921672405
   -15.386429638853203   28.009644749762295
   -15.387203333058652   28.009283212263405
   -15.387219946499645   28.009275755215306
   -15.388049126851447   28.00891947188551
   -15.388065255144266   28.008912846661044
   -15.38904248410845   28.00853254761879
   -15.389058086258952   28.008526808198102
   -15.390113584973284   28.008162121086727
   -15.390128731990856   28.00815722147253
   -15.391300318120908   28.00780615444082
   -15.391315082008681   28.00780207762942
   -15.39256982281829   28.007486464080255
   -15.392584263589715   28.007483183070125
   -15.393752514293471   28.00724709213098
   -15.393810205427833   28.00722627532738
   -15.395826290762518   28.00658331049432
   -15.397883377249913   28.006093966373324
   -15.398138130592844   28.006043415977214
   -15.400282258723509   28.005703872550008
   -15.402438639955221   28.00553309371028
   -15.402691838463774   28.00552301438383
   -15.406009711746528   28.005593428578862
   -15.406315908707803   28.00561883168082
   -15.407602667074729   28.005757168119587
   -15.407928457765902   28.00580026544131
   -15.408788683119598   28.005928565323142
   -15.409087384589789   28.005978192677432
   -15.409263297860061   28.0060080369151
   -15.409520259448653   28.006052534752587
   -15.410121668867994   28.006058665962605
   -15.410262486473378   28.006068195313148
   -15.41239244498152   28.006298690065957
   -15.414480981053325   28.006698454491886
   -15.414613285725064   28.006729468918518
   -15.41674285903389   28.007327535423492
   -15.418079794516256   28.00783389803306
   -15.41903684593571   28.00794020522606
   -15.420951904042182   28.008298787163874
   -15.421091823687815   28.00833047744563
   -15.421782207872395   28.008509806160706
   -15.421936504575514   28.00854601945105
   -15.422115971883843   28.008589158897703
   -15.422245972732814   28.008630266090226
   -15.422643915848424   28.00873362671644
   -15.42296260520823   28.008827247616534
   -15.422951834225254   28.008853459845472
   -15.425497370055572   28.009658294087696
   -15.425624836100507   28.009708855694818
   -15.428342765338805   28.010995524536924
   -15.42856038944966   28.01080644928682
   -15.428604384206345   28.01077089163444
   -15.42886945463827   28.010559398724443
   -15.42888321443984   28.010548560995687
   -15.431029614824736   28.00902050139568
   -15.432763556879626   28.00802166498793
   -15.434185062610412   28.00703239747683
   -15.434258896988064   28.00698728512265
   -15.436482540709877   28.005764584996072
   -15.43881520288812   28.004745759353945
   -15.438870314122545   28.004724606118394
   -15.43975287032213   28.004438929098008
   -15.440526722400714   28.004107383615636
   -15.440625370483188   28.004067894268168
   -15.443680339872492   28.00304354120574
   -15.443742889631391   28.003026479191902
   -15.446531334585623   28.002416135477834
   -15.449357209848877   28.002094212258175
   -15.44936896619999   28.002093481651062
   -15.450335602999818   28.001942245835547
   -15.450384589987815   28.00193641780828
   -15.452431965414016   28.00176957197021
   -15.452865752887996   28.001766694662344
   -15.453175640516344   28.001715244068354
   -15.453257152619289   28.001704975505266
   -15.456061066837133   28.001495697253365
   -15.456138321064586   28.001493889325417
   -15.458992582038842   28.00157727544653
   -15.45900058897197   28.001577935319695
   -15.460071903772837   28.001688080477166
   -15.46014399629561   28.001696974513234
   -15.46237892336279   28.002071323991448
   -15.464553743126137   28.00263468129046
   -15.464628561795053   28.002657645621305
   -15.466528687861121   28.003326098594677
   -15.468351462928435   28.00414070587453
   -15.468420413234105   28.004175024653215
   -15.469425766280215   28.00474413690494
   -15.470708294142684   28.005430087424745
   -15.4708318294006   28.005501461744867
   -15.47273088299618   28.00672628718663
   -15.474481716368462   28.00811955473366
   -15.47606830715487   28.009668519099105
   -15.477476133231315   28.011359010055163
   -15.478692305606724   28.013175561833922
   -15.479705686485861   28.015101554389425
   -15.480506991416656   28.01711936523851
   -15.48108887458009   28.019210530501567
   -15.48144599643074   28.021355913678775
   -15.48148548511987   28.02202288439323
   -15.483040037296165   28.022894544732573
   -15.484973257784732   28.02425774548843
   -15.486734616439138   28.02580096541027
   -15.488306303894433   28.02750860775349
   -15.489152780300667   28.028657898949966
   -15.490252583376101   28.0286259710718
   -15.491472923125569   28.0287036992794
   -15.492056733861522   28.02860542470111
   -15.4922548683787   28.028580997918738
   -15.49350877030259   28.028483625776573
   -15.49384531511258   28.028373779394308
   -15.49387212651337   28.028366182600752
   -15.49409143796819   28.028304998601392
   -15.49419843336212   28.028275614185098
   -15.494293442134879   28.028249580160022
   -15.49437613697575   28.028227060546843
   -15.494617447624131   28.028161740174237
   -15.49478897563175   28.028096287442047
   -15.494904216347015   28.028054605965195
   -15.495150628013064   28.027971991253985
   -15.495662848053527   28.027722079869967
   -15.497628573187033   28.02694010784192
   -15.497642192641234   28.026935274183817
   -15.500442670208557   28.026102057878912
   -15.500475217048397   28.02609418623068
   -15.503061487791285   28.02559581731603
   -15.50307810878318   28.02559341909921
   -15.50492949260057   28.025423564062255
   -15.506343262110594   28.02512896322536
   -15.50641069220377   28.0251173608983
   -15.509270589448258   28.024776291285175
   -15.509339607039538   28.024771677080487
   -15.511066105022074   28.02471066381216
   -15.511342448923612   28.024709622128544
   -15.51328840660414   28.024772164500746
   -15.513300434493804   28.024772986357625
   -15.513560992773696   28.02479206633964
   -15.513575107126403   28.024793169132906
   -15.516494672857982   28.02518549353712
   -15.519164788173978   28.02585743121279
   -15.520462463625   28.025699937524468
   -15.52276768906756   28.02561440742205
   -15.52279512499715   28.02561454658384
   -15.525501088951035   28.025764235312895
   -15.528154439625865   28.0261839743998
   -15.53072375408034   28.026868792672552
   -15.53317860328023   28.027810579821015
   -15.53320472209401   28.027822248986908
   -15.534357482566755   28.028418378688134
   -15.534636852205491   28.0284996551776
   -15.534682959815575   28.028515236330314
   -15.537334029229742   28.029586623550482
   -15.539807667648223   28.030946608634952
   -15.539848149873873   28.03097216676877
   -15.540570726464422   28.03144761935521
   -15.540609261662418   28.03147403241429
   -15.542230787129023   28.032696108185476
   -15.54372164590289   28.03404907366237
   -15.54376442425467   28.034091653233684
   -15.543971840915761   28.03431901035663
   -15.54518051750697   28.03529950760432
   -15.545217673198309   28.03533441952821
   -15.546524351739407   28.036673014883572
   -15.547701704489496   28.038111024769478
   -15.547731338676813   28.038150658958678
   -15.547867836607539   28.038345205222452
END
END
