<?xml version="1.0" encoding="UTF-8"?><svg id="Layer_1" xmlns="http://www.w3.org/2000/svg" width="64" height="64" viewBox="0 0 64 64"><path d="m31.7,2.83c8.09,0,14.97,2.82,20.65,8.47,2.72,2.72,4.78,5.83,6.2,9.32,1.41,3.49,2.12,7.2,2.12,11.13s-.7,7.67-2.09,11.13c-1.39,3.46-3.45,6.51-6.17,9.16-2.82,2.79-6.02,4.92-9.6,6.4-3.58,1.48-7.28,2.22-11.1,2.22s-7.48-.73-10.97-2.19c-3.49-1.46-6.63-3.58-9.4-6.35-2.77-2.77-4.88-5.89-6.32-9.37s-2.17-7.14-2.17-11,.73-7.5,2.19-11.02c1.46-3.53,3.59-6.69,6.38-9.47C16.91,5.64,23.68,2.83,31.7,2.83Z" style="fill:none; stroke:#000; stroke-miterlimit:10; stroke-width:5.67px;"/><path d="m31.94,0c8.99,0,16.57,3.09,22.74,9.26,6.21,6.21,9.31,13.79,9.31,22.74s-3.05,16.48-9.15,22.46c-6.48,6.36-14.11,9.54-22.91,9.54s-16.15-3.14-22.51-9.43C3.14,48.28,0,40.76,0,32S3.14,15.66,9.43,9.26C15.6,3.09,23.1,0,31.94,0Zm.11,5.77c-7.28,0-13.43,2.55-18.46,7.66-5.22,5.33-7.83,11.52-7.83,18.57s2.59,13.22,7.77,18.4c5.18,5.18,11.35,7.77,18.51,7.77s13.33-2.61,18.63-7.83c5.03-4.84,7.54-10.95,7.54-18.34s-2.55-13.47-7.66-18.57c-5.1-5.1-11.28-7.66-18.51-7.66Zm8.57,18.28v13.08h-3.66v15.54h-9.94v-15.54h-3.66v-13.09c0-.57.2-1.06.6-1.46.4-.4.89-.6,1.46-.6h13.14c.53,0,1.01.2,1.43.6.42.4.63.89.63,1.46Zm-13.09-8.23c0-3.01,1.49-4.51,4.46-4.51s4.46,1.5,4.46,4.51-1.49,4.46-4.46,4.46-4.46-1.49-4.46-4.46Z" style="fill:#000; stroke: none;"/></svg>
