<?xml version="1.0" encoding="UTF-8"?><svg id="Layer_1" xmlns="http://www.w3.org/2000/svg" width="64" height="64" viewBox="0 0 64 64"><path d="m31.7,2.83c8.09,0,14.97,2.82,20.65,8.47,2.72,2.72,4.78,5.83,6.2,9.32,1.41,3.49,2.12,7.2,2.12,11.13s-.7,7.67-2.09,11.13c-1.39,3.46-3.45,6.51-6.17,9.16-2.82,2.79-6.02,4.92-9.6,6.4-3.58,1.48-7.28,2.22-11.1,2.22s-7.48-.73-10.97-2.19c-3.49-1.46-6.63-3.58-9.4-6.35-2.77-2.77-4.88-5.89-6.32-9.37s-2.17-7.14-2.17-11,.73-7.5,2.19-11.02c1.46-3.53,3.59-6.69,6.38-9.47C16.91,5.64,23.68,2.83,31.7,2.83Z" style="fill:none; stroke:#000; stroke-miterlimit:10; stroke-width:5.67px;"/><path d="m31.94,0c8.99,0,16.57,3.09,22.74,9.26,6.21,6.21,9.31,13.79,9.31,22.74s-3.05,16.48-9.15,22.46c-6.48,6.36-14.11,9.54-22.91,9.54s-16.15-3.14-22.51-9.43C3.14,48.28,0,40.76,0,32S3.14,15.66,9.43,9.26C15.6,3.09,23.1,0,31.94,0Zm.11,5.77c-7.28,0-13.43,2.55-18.46,7.66-5.22,5.33-7.83,11.52-7.83,18.57s2.59,13.22,7.77,18.4c5.18,5.18,11.35,7.77,18.51,7.77s13.33-2.61,18.63-7.83c5.03-4.84,7.54-10.95,7.54-18.34s-2.55-13.47-7.66-18.57c-5.1-5.1-11.28-7.66-18.51-7.66Zm-.4,21.22l-4.29,2.23c-.46-.95-1.02-1.62-1.68-2-.67-.38-1.29-.57-1.86-.57-2.86,0-4.29,1.89-4.29,5.66,0,1.71.36,3.08,1.08,4.11.72,1.03,1.79,1.54,3.2,1.54,1.87,0,3.18-.92,3.94-2.74l3.94,2c-.84,1.56-2,2.79-3.49,3.69-1.48.9-3.12,1.34-4.91,1.34-2.86,0-5.16-.88-6.91-2.63-1.75-1.75-2.63-4.19-2.63-7.31s.89-5.47,2.66-7.26c1.77-1.79,4.01-2.69,6.72-2.69,3.96,0,6.8,1.54,8.51,4.63Zm18.46,0l-4.23,2.23c-.46-.95-1.02-1.62-1.69-2-.67-.38-1.31-.57-1.91-.57-2.86,0-4.29,1.89-4.29,5.66,0,1.71.36,3.08,1.09,4.11.72,1.03,1.79,1.54,3.2,1.54,1.87,0,3.18-.92,3.94-2.74l4,2c-.88,1.56-2.06,2.79-3.54,3.69-1.49.9-3.1,1.34-4.86,1.34-2.9,0-5.21-.88-6.94-2.63-1.74-1.75-2.6-4.19-2.6-7.31s.88-5.47,2.66-7.26c1.77-1.79,4.01-2.69,6.71-2.69,3.96,0,6.78,1.54,8.46,4.63Z" style="fill:#000; stroke: none;"/></svg>
