<?xml version="1.0" encoding="utf-8"?>
<!-- Generator: Adobe Illustrator 27.2.0, SVG Export Plug-In . SVG Version: 6.00 Build 0)  -->
<svg version="1.1" baseProfile="basic" id="Layer_1"
	 xmlns="http://www.w3.org/2000/svg" xmlns:xlink="http://www.w3.org/1999/xlink" x="0px" y="0px" viewBox="0 0 1092 307"
	 xml:space="preserve">
<style type="text/css">
	.st0{fill:#FFFFFF;}
</style>
<g>
	<path class="st0" d="M372.4,73.7h3.2v12c-3,2.7-7.2,4-11.6,4c-9.6,0-16.6-6.8-16.6-16c0-9.2,7-16,16.6-16c4.8,0,8.9,1.5,11.7,4.5
		l-2.1,2.1c-2.7-2.6-5.8-3.7-9.5-3.7c-7.8,0-13.5,5.5-13.5,13c0,7.5,5.7,13,13.4,13c3,0,5.8-0.7,8.2-2.4V73.7z"/>
</g>
<rect x="384.3" y="56" class="st0" width="3.2" height="33.4"/>
<g>
	<path class="st0" d="M414.8,77.6c0-5.5-3.7-9.2-8.8-9.2c-5,0-8.8,3.7-8.8,9.2c0,5.5,3.8,9.2,8.8,9.2
		C411.1,86.8,414.8,83.1,414.8,77.6 M394,77.6c0-7,5.1-12,12.1-12c6.9,0,12,5,12,12c0,7-5.1,12.1-12,12.1
		C399.1,89.6,394,84.6,394,77.6"/>
	<path class="st0" d="M445.4,77.6c0-5.5-3.8-9.2-8.8-9.2c-5,0-8.8,3.7-8.8,9.2c0,5.5,3.8,9.2,8.8,9.2
		C441.5,86.8,445.4,83.1,445.4,77.6 M448.6,77.6c0,7.2-5,12.1-11.8,12.1c-3.9,0-7.2-1.7-9.1-4.9v4.7h-3.1V56h3.2v14.2
		c2-3.1,5.2-4.7,9-4.7C443.5,65.6,448.6,70.4,448.6,77.6"/>
	<path class="st0" d="M469.6,82.3v-3.9h-7.4c-4.6,0-6.1,1.8-6.1,4.2c0,2.7,2.2,4.5,6,4.5C465.7,87.1,468.3,85.4,469.6,82.3
		 M472.8,74.7v14.7h-3.1v-3.7c-1.4,2.4-4.2,3.9-8.1,3.9c-5.4,0-8.6-2.8-8.6-6.9c0-3.6,2.3-6.7,9.1-6.7h7.5v-1.4c0-4-2.3-6.3-6.7-6.3
		c-3.1,0-5.9,1.1-7.9,2.8l-1.4-2.4c2.4-2,5.9-3.2,9.6-3.2C469.3,65.6,472.8,68.6,472.8,74.7"/>
</g>
<rect x="481.5" y="56" class="st0" width="3.2" height="33.4"/>
<g>
	<path class="st0" d="M533,73.7c0-7.5-5.6-13-13.2-13c-7.6,0-13.3,5.5-13.3,13c0,7.5,5.7,13,13.3,13C527.3,86.7,533,81.2,533,73.7
		 M503.2,73.7c0-9.2,7-16,16.6-16c9.4,0,16.5,6.8,16.5,16c0,9.2-7.1,16-16.5,16C510.3,89.7,503.2,82.8,503.2,73.7"/>
	<path class="st0" d="M563.9,77.6c0-5.5-3.8-9.2-8.8-9.2c-5,0-8.8,3.7-8.8,9.2c0,5.5,3.8,9.2,8.8,9.2
		C560,86.8,563.9,83.1,563.9,77.6 M567.1,77.6c0,7.2-5,12.1-11.8,12.1c-3.9,0-7.2-1.7-9.1-4.9v4.7h-3.1V56h3.2v14.2
		c2-3.1,5.2-4.7,9-4.7C562,65.6,567.1,70.4,567.1,77.6"/>
	<path class="st0" d="M570.3,86.7l1.4-2.5c1.9,1.5,5.1,2.7,8.4,2.7c4.5,0,6.3-1.5,6.3-3.9c0-6.2-15.3-1.3-15.3-10.7
		c0-3.9,3.3-6.7,9.4-6.7c3.1,0,6.4,0.9,8.4,2.2l-1.4,2.6c-2.1-1.4-4.5-2-7-2c-4.3,0-6.2,1.7-6.2,3.9c0,6.4,15.3,1.6,15.3,10.7
		c0,4.1-3.6,6.7-9.8,6.7C576,89.6,572.2,88.4,570.3,86.7"/>
	<path class="st0" d="M596.4,76.2h16.8c-0.4-4.6-3.8-7.9-8.4-7.9C600.2,68.3,596.8,71.6,596.4,76.2 M616.2,78.6h-19.8
		c0.4,4.9,4.1,8.2,9.3,8.2c2.9,0,5.4-1,7.2-3.1l1.8,2.1c-2.1,2.5-5.4,3.9-9.1,3.9c-7.4,0-12.4-5-12.4-12.1c0-7,4.9-12,11.6-12
		c6.7,0,11.5,4.9,11.5,12C616.2,77.9,616.2,78.2,616.2,78.6"/>
	<path class="st0" d="M634.6,65.6v3.1c-0.3,0-0.5,0-0.8,0c-4.9,0-8,3.1-8,8.7v12.1h-3.2V65.8h3.1v4.6
		C627.3,67.2,630.3,65.6,634.6,65.6"/>
</g>
<polygon class="st0" points="661.3,65.8 650.8,89.4 647.5,89.4 637,65.8 640.4,65.8 649.2,85.9 658.2,65.8 "/>
<g>
	<path class="st0" d="M679.8,82.3v-3.9h-7.4c-4.6,0-6.1,1.8-6.1,4.2c0,2.7,2.2,4.5,6,4.5C675.8,87.1,678.5,85.4,679.8,82.3
		 M682.9,74.7v14.7h-3.1v-3.7c-1.4,2.4-4.2,3.9-8.1,3.9c-5.4,0-8.6-2.8-8.6-6.9c0-3.6,2.3-6.7,9.1-6.7h7.5v-1.4c0-4-2.3-6.3-6.7-6.3
		c-3.1,0-5.9,1.1-7.9,2.8l-1.4-2.4c2.4-2,5.9-3.2,9.6-3.2C679.5,65.6,682.9,68.6,682.9,74.7"/>
	<path class="st0" d="M704.1,88c-1.3,1.1-3.1,1.7-5,1.7c-4.5,0-6.9-2.5-6.9-6.9V68.5h-4.2v-2.7h4.2v-5.2h3.2v5.2h7.2v2.7h-7.2v14.1
		c0,2.8,1.4,4.3,4.1,4.3c1.3,0,2.6-0.4,3.5-1.2L704.1,88z"/>
	<path class="st0" d="M727.5,77.6c0-5.5-3.7-9.2-8.8-9.2c-5,0-8.8,3.7-8.8,9.2c0,5.5,3.8,9.2,8.8,9.2
		C723.7,86.8,727.5,83.1,727.5,77.6 M706.6,77.6c0-7,5.1-12,12.1-12c6.9,0,12,5,12,12c0,7-5.1,12.1-12,12.1
		C711.8,89.6,706.6,84.6,706.6,77.6"/>
	<path class="st0" d="M749.1,65.6v3.1c-0.3,0-0.5,0-0.8,0c-4.9,0-8,3.1-8,8.7v12.1h-3.2V65.8h3.1v4.6
		C741.8,67.2,744.8,65.6,749.1,65.6"/>
	<path class="st0" d="M775.8,65.8L764,92.2c-2,4.6-4.5,6.1-7.9,6.1c-2.2,0-4.3-0.7-5.8-2.2l1.5-2.4c1.2,1.2,2.6,1.8,4.3,1.8
		c2.1,0,3.6-1,4.9-4l1-2.3l-10.6-23.6h3.3l8.9,20.1l8.9-20.1H775.8z"/>
	<path class="st0" d="M810.5,77.6c0-5.5-3.7-9.2-8.8-9.2c-5,0-8.8,3.7-8.8,9.2c0,5.5,3.8,9.2,8.8,9.2
		C806.8,86.8,810.5,83.1,810.5,77.6 M789.7,77.6c0-7,5.1-12,12.1-12c6.9,0,12,5,12,12c0,7-5.1,12.1-12,12.1
		C794.8,89.6,789.7,84.6,789.7,77.6"/>
	<path class="st0" d="M823.9,63v2.8h7.3v2.7H824v21h-3.2v-21h-4.2v-2.7h4.2v-2.9c0-4.2,2.5-7,7.2-7c1.8,0,3.6,0.5,4.7,1.5l-1.1,2.4
		c-0.9-0.8-2.2-1.2-3.5-1.2C825.4,58.5,823.9,60,823.9,63"/>
</g>
<polygon class="st0" points="403.5,109.9 403.5,167.1 392.9,167.1 392.9,142.6 363.4,142.6 363.4,167.1 352.7,167.1 352.7,109.9
	363.4,109.9 363.4,133.5 392.9,133.5 392.9,109.9 "/>
<g>
	<path class="st0" d="M424.4,141.8h24.7c-0.8-6.3-5.6-10.6-12.3-10.6C430.2,131.2,425.4,135.4,424.4,141.8 M458.7,148.6h-34.2
		c1.2,6.4,6.5,10.4,14.1,10.4c4.9,0,8.7-1.5,11.8-4.7l5.5,6.3c-3.9,4.7-10,7.1-17.6,7.1c-14.6,0-24.1-9.4-24.1-22.4
		c0-13,9.6-22.3,22.5-22.3c12.7,0,22,8.9,22,22.5C458.9,146.4,458.8,147.6,458.7,148.6"/>
	<path class="st0" d="M493.7,153.5v-5.1h-10.5c-6.9,0-8.8,2.6-8.8,5.8c0,3.7,3.1,6,8.3,6C487.7,160.2,492,157.9,493.7,153.5
		 M503.9,141.5v25.6h-9.6v-5.3c-2.4,3.8-7.2,5.9-13.7,5.9c-10,0-16.2-5.5-16.2-13.1c0-7.3,4.9-13,18.1-13h11.3V141
		c0-6-3.6-9.5-10.9-9.5c-4.9,0-10,1.6-13.2,4.3l-4-7.4c4.7-3.6,11.4-5.4,18.4-5.4C496.7,123,503.9,129,503.9,141.5"/>
</g>
<rect x="517" y="106.5" class="st0" width="10.2" height="60.6"/>
<g>
	<path class="st0" d="M568.9,164.7c-2.4,2-6.1,2.9-9.8,2.9c-9.6,0-15-5.1-15-14.7v-21h-7.2v-8.2h7.2v-10h10.2v10H566v8.2h-11.7v20.7
		c0,4.2,2.1,6.5,6,6.5c2.1,0,4.2-0.6,5.7-1.8L568.9,164.7z"/>
	<path class="st0" d="M620.3,142.1v25H610v-23.7c0-7.8-3.8-11.5-10.4-11.5c-7.3,0-12.2,4.4-12.2,13.1v22h-10.2v-60.6h10.2v22
		c3.3-3.6,8.5-5.6,14.5-5.6C612.5,123,620.3,129,620.3,142.1"/>
	<path class="st0" d="M673.2,123.5l-20.4,47.1c-4,9.9-9.6,12.9-16.8,12.9c-4.3,0-8.9-1.5-11.7-4l4.1-7.5c2,1.9,4.7,3,7.5,3
		c3.6,0,5.7-1.7,7.7-6l0.7-1.7l-19-43.8h10.6l13.7,32.2l13.8-32.2H673.2z"/>
	<path class="st0" d="M728.4,153.5v-5.1h-10.5c-6.9,0-8.8,2.6-8.8,5.8c0,3.7,3.1,6,8.3,6C722.4,160.2,726.7,157.9,728.4,153.5
		 M738.6,141.5v25.6H729v-5.3c-2.4,3.8-7.2,5.9-13.7,5.9c-10,0-16.2-5.5-16.2-13.1c0-7.3,4.9-13,18.1-13h11.3V141
		c0-6-3.6-9.5-10.9-9.5c-4.9,0-10,1.6-13.2,4.3l-4-7.4c4.7-3.6,11.4-5.4,18.4-5.4C731.3,123,738.6,129,738.6,141.5"/>
	<path class="st0" d="M794.6,142.1v25h-10.2v-23.7c0-7.8-3.8-11.5-10.4-11.5c-7.3,0-12.2,4.4-12.2,13.1v22h-10.2v-43.6h9.7v5.6
		c3.3-4,8.7-6.1,15-6.1C786.9,123,794.6,129,794.6,142.1"/>
	<path class="st0" d="M840.7,145.3c0-8.3-5.6-13.6-13-13.6c-7.3,0-13,5.3-13,13.6c0,8.3,5.6,13.6,13,13.6
		C835,158.9,840.7,153.6,840.7,145.3 M850.7,106.5v60.6h-9.8v-5.6c-3.4,4.2-8.5,6.2-14.5,6.2c-12.7,0-22-8.8-22-22.4
		c0-13.6,9.4-22.3,22-22.3c5.6,0,10.6,1.9,14,5.9v-22.4H850.7z"/>
	<path class="st0" d="M347.9,238.7l3.7-8.2c4.6,3.7,11.8,6.3,18.9,6.3c8.9,0,12.7-3.2,12.7-7.4c0-12.3-34-4.2-34-25.5
		c0-9.2,7.3-17.1,23-17.1c6.9,0,14,1.8,19,5.1l-3.3,8.2c-5.1-3-10.8-4.5-15.8-4.5c-8.8,0-12.4,3.4-12.4,7.8
		c0,12.2,33.9,4.2,33.9,25.2c0,9.1-7.4,17-23.1,17C361.6,245.6,352.7,242.8,347.9,238.7"/>
	<path class="st0" d="M445.3,201.2v43.6h-9.7v-5.6c-3.3,4-8.4,6.1-14,6.1c-11.2,0-18.8-6.1-18.8-19.3v-24.9H413v23.5
		c0,7.9,3.8,11.7,10.2,11.7c7.1,0,11.9-4.4,11.9-13.1v-22H445.3z"/>
	<path class="st0" d="M453.7,240.4l3.9-7.8c3.8,2.5,9.7,4.3,15.2,4.3c6.4,0,9.1-1.8,9.1-4.8c0-8.3-26.9-0.5-26.9-17.9
		c0-8.2,7.4-13.6,19.2-13.6c5.8,0,12.4,1.4,16.3,3.8l-3.9,7.8c-4.2-2.5-8.3-3.3-12.5-3.3c-6.2,0-9.1,2-9.1,4.9c0,8.8,26.9,1,26.9,18
		c0,8.2-7.5,13.5-19.8,13.5C464.9,245.3,457.6,243.2,453.7,240.4"/>
	<path class="st0" d="M526.9,242.4c-2.4,2-6.1,2.9-9.8,2.9c-9.6,0-15-5.1-15-14.7v-21h-7.2v-8.2h7.2v-10h10.2v10H524v8.2h-11.7v20.7
		c0,4.2,2.1,6.5,6,6.5c2.1,0,4.2-0.6,5.7-1.8L526.9,242.4z"/>
	<path class="st0" d="M561.6,231.1v-5.1h-10.5c-6.9,0-8.8,2.6-8.8,5.8c0,3.7,3.1,6,8.3,6C555.6,237.9,559.9,235.6,561.6,231.1
		 M571.8,219.2v25.6h-9.6v-5.3c-2.4,3.8-7.2,5.9-13.7,5.9c-10,0-16.2-5.5-16.2-13.1c0-7.3,4.9-13,18.1-13h11.3v-0.7
		c0-6-3.6-9.5-10.9-9.5c-4.9,0-10,1.6-13.2,4.3l-4-7.4c4.7-3.6,11.4-5.4,18.4-5.4C564.6,200.7,571.8,206.6,571.8,219.2"/>
	<path class="st0" d="M584.9,201.2h10.2v43.6h-10.2V201.2z M583.5,187.9c0-3.4,2.8-6.1,6.5-6.1s6.5,2.5,6.5,5.9
		c0,3.6-2.7,6.4-6.5,6.4C586.3,194,583.5,191.3,583.5,187.9"/>
	<path class="st0" d="M651.4,219.8v25h-10.2v-23.7c0-7.8-3.8-11.5-10.4-11.5c-7.3,0-12.2,4.4-12.2,13.1v22h-10.2v-43.6h9.7v5.6
		c3.3-4,8.7-6.1,15-6.1C643.7,200.7,651.4,206.6,651.4,219.8"/>
	<path class="st0" d="M690.7,231.1v-5.1h-10.5c-6.9,0-8.8,2.6-8.8,5.8c0,3.7,3.1,6,8.3,6C684.7,237.9,689,235.6,690.7,231.1
		 M700.9,219.2v25.6h-9.6v-5.3c-2.4,3.8-7.2,5.9-13.7,5.9c-10,0-16.2-5.5-16.2-13.1c0-7.3,4.9-13,18.1-13h11.3v-0.7
		c0-6-3.6-9.5-10.9-9.5c-4.9,0-10,1.6-13.2,4.3l-4-7.4c4.7-3.6,11.4-5.4,18.4-5.4C693.6,200.7,700.9,206.6,700.9,219.2"/>
	<path class="st0" d="M749.9,223c0-8.3-5.6-13.6-12.9-13.6c-7.3,0-13,5.3-13,13.6c0,8.3,5.6,13.6,13,13.6
		C744.3,236.6,749.9,231.3,749.9,223 M760.3,223c0,13.6-9.4,22.4-22.1,22.4c-6,0-11-2-14.5-6.2v5.6H714v-60.6h10.2v22.3
		c3.5-3.9,8.4-5.8,14-5.8C750.9,200.7,760.3,209.4,760.3,223"/>
</g>
<rect x="770" y="184.2" class="st0" width="10.2" height="60.6"/>
<g>
	<path class="st0" d="M800.1,219.5h24.7c-0.8-6.3-5.6-10.6-12.3-10.6C805.9,208.9,801.1,213.1,800.1,219.5 M834.4,226.2h-34.2
		c1.2,6.4,6.5,10.4,14.1,10.4c4.9,0,8.7-1.5,11.8-4.7l5.5,6.3c-3.9,4.7-10,7.1-17.6,7.1c-14.6,0-24.1-9.4-24.1-22.4
		s9.6-22.3,22.5-22.3c12.7,0,22,8.9,22,22.5C834.5,224,834.5,225.3,834.4,226.2"/>
	<path class="st0" d="M863.8,216.2c0-17.1,13.1-29.4,30.6-29.4c9.3,0,17.3,3.3,22.6,9.6l-6.9,6.4c-4.2-4.5-9.3-6.7-15.3-6.7
		c-11.8,0-20.4,8.3-20.4,20.1c0,11.8,8.6,20.1,20.4,20.1c6,0,11.1-2.2,15.3-6.8l6.9,6.5c-5.3,6.2-13.3,9.6-22.7,9.6
		C876.8,245.6,863.8,233.3,863.8,216.2"/>
	<path class="st0" d="M926.2,201.2h10.2v43.6h-10.2V201.2z M924.8,187.9c0-3.4,2.8-6.1,6.5-6.1s6.5,2.5,6.5,5.9
		c0,3.6-2.7,6.4-6.5,6.4C927.6,194,924.8,191.3,924.8,187.9"/>
	<path class="st0" d="M976,242.4c-2.4,2-6.1,2.9-9.8,2.9c-9.6,0-15-5.1-15-14.7v-21H944v-8.2h7.2v-10h10.2v10h11.7v8.2h-11.7v20.7
		c0,4.2,2.1,6.5,6,6.5c2.1,0,4.2-0.6,5.7-1.8L976,242.4z"/>
	<path class="st0" d="M984.4,201.2h10.2v43.6h-10.2V201.2z M983,187.9c0-3.4,2.8-6.1,6.5-6.1s6.5,2.5,6.5,5.9c0,3.6-2.7,6.4-6.5,6.4
		C985.8,194,983,191.3,983,187.9"/>
	<path class="st0" d="M1014.5,219.5h24.7c-0.8-6.3-5.6-10.6-12.3-10.6C1020.3,208.9,1015.5,213.1,1014.5,219.5 M1048.8,226.2h-34.2
		c1.2,6.4,6.5,10.4,14.1,10.4c4.9,0,8.7-1.5,11.8-4.7l5.5,6.3c-3.9,4.7-10,7.1-17.6,7.1c-14.6,0-24.1-9.4-24.1-22.4
		s9.6-22.3,22.5-22.3c12.7,0,22,8.9,22,22.5C1049,224,1048.9,225.3,1048.8,226.2"/>
	<path class="st0" d="M1053.8,240.4l3.9-7.8c3.8,2.5,9.7,4.3,15.2,4.3c6.4,0,9.1-1.8,9.1-4.8c0-8.3-26.9-0.5-26.9-17.9
		c0-8.2,7.4-13.6,19.2-13.6c5.8,0,12.4,1.4,16.3,3.8l-3.9,7.8c-4.2-2.5-8.3-3.3-12.5-3.3c-6.2,0-9.1,2-9.1,4.9c0,8.8,26.9,1,26.9,18
		c0,8.2-7.5,13.5-19.8,13.5C1065,245.3,1057.7,243.2,1053.8,240.4"/>
	<path class="st0" d="M277.4,103.7c0,16.6-13.4,30-30,30c-8.6,0-16.3-3.6-21.8-9.4V83c5.5-5.8,13.2-9.4,21.8-9.4
		C264,73.6,277.4,87.1,277.4,103.7"/>
	<path class="st0" d="M152.8,247C152.8,246.9,152.8,246.9,152.8,247c-0.5-0.5-1.3-0.3-1.4,0.3c-0.2,1.1-0.5,2.3-1,3.7
		c-1.1,3.4-2.5,5.7-3.7,7.7l-0.3,0.5c-1.9,3.2-3.7,6.2-5.3,8.9c-6.2,10.2-10.3,17-11.5,23.5c-0.2,0.9-0.3,2.3-0.4,3.8
		c-0.2,2.8-0.4,6.2-1.5,9.2c-0.4,1.2,0.4,2.4,1.7,2.4l4.6,0c1.4,0,2.6-0.7,3.4-1.9l26.4-42.2c0.8-1.3,0.6-2.9-0.5-4
		C159.4,254.9,155.6,250.9,152.8,247"/>
	<path class="st0" d="M174.2,299.5c0.3-7.6,7.5-9.5,10.6-10.4c0,0,0,0,0,0c0.7-0.2,1.3-0.7,1.5-1.4c0.2-0.5,0.4-1,0.6-1.8
		c0.2-0.5,0.1-1.1-0.1-1.6c-0.9-2.3-2.9-4.9-5.4-7.7c-1.1-1.3-3.2-0.9-3.8,0.7l-10,26.4c-0.6,1.5,0.5,3.1,2.1,3.1l3,0
		c1.6,0,2.6-1.5,2.1-3c-0.4-1.2-0.6-2.5-0.7-3.9v-0.2L174.2,299.5z"/>
	<path class="st0" d="M207.8,270.6c1.5,1.2,2.7,2.4,3.9,3.6c0,0,0,0,0,0c0.8,0.8,2.1,0.2,2.1-0.9l-0.2-28c0-0.7-0.6-1.2-1.2-1.2
		l-18.2,0.3c-0.9,0-1.5,1-1,1.8c2.2,3.7,4.2,7.4,6,10.8C202.2,262.9,205,268.4,207.8,270.6"/>
	<path class="st0" d="M261,247.1l0.9-112.4c6.3,4,14.3,9,18.7,11.8l0.8,65.9C276.4,224.9,269.5,236.6,261,247.1 M231.3,274.9
		c0.4-37.4,0.9-83.5,1.3-128.5c1-0.6,10.6-6.7,18.7-11.8l1,122.1c0,0.1,0,0.2,0,0.3C245.9,263.7,238.8,269.7,231.3,274.9
		 M235.9,78.4c16.7,0,30.3,13.6,30.3,30.3c0,3.8-0.7,7.5-2,11c-2.4-1.5-3.9-2.4-3.9-2.5c-2.2-1.4-5.1-1.5-7.4,0
		c0,0-11.7,7.4-20.1,12.7c0.2-17.7,0.4-35,0.6-51.3C234.2,78.5,235.1,78.4,235.9,78.4 M291.3,136.8c0,0-7.6-4.8-15.2-9.6
		c2.7-5.8,4-12,4-18.5c0-24.4-19.8-44.2-44.2-44.2c-0.8,0-1.6,0-2.4,0.1c0.1-8.7,0.2-17,0.3-24.9c0-2.3-1.1-4.5-3.1-5.8
		c-0.1-0.1-52-32.7-52.1-32.7c-2.2-1.5-5.2-1.6-7.4,0.1L103.6,52c-4.6,3.5,0,10.3,4.9,7.4c0,0,48.4-33.5,61.2-41.3
		c0,0.9,0,1.8,0,2.7c0.1,9,0.5,32.6,0.6,41.9c0,2.5,2,4.5,4.5,4.5c2.5,0,4.6-2,4.6-4.5c0.2-12.6,0.4-29.9,0.7-44.4
		c11.8,7.5,32,20.2,39.8,25.2c0.9,68.9,1.8,169.4,2.6,238.1c0.1,1,0.3,1.7,0.7,2.4c0.8,2,3.1,3.3,5.6,2c28.2-15.7,51-40.6,64.2-70.2
		c0.3-0.7,0.5-1.5,0.5-2.4l0.9-70.9C294.5,140.3,293.4,138.1,291.3,136.8"/>
	<path class="st0" d="M90.1,149.2c-5.6,6.6-12.3,9-16.1,10.3c-4.2,1.5-6.9,2.3-10.4,1.8c-5.5-0.8-12.2-6.1-12.4-6.6l0,0
		c-0.4-0.9-0.2-2,0.6-2.6c4.6-3.9,10.8-7.9,16.3-11.6c1.7-1.2,3.4-2.3,5-3.2l0.3,0.2c1,0.8,2.4,1,3.5,0.3l6.4-3.9
		c-0.1,0.3,0,0.6,0.1,0.9c0.4,2.7,0.7,6.1,0.3,10c-0.1,1.5-0.7,3.1-1.3,4.6c-0.6,1.4,1,2.8,2.3,1.9c1.4-0.9,2.9-1.9,4-3
		c2.1-2,4.1-3.9,5.7-5.6c-0.5,1-1,1.9-1.5,2.7C91.9,146.9,90.9,148.2,90.1,149.2 M107.1,94.9c0.1-0.2,0.1-0.5,0.2-0.8
		c0.4-1.1,0.9-2.2,1.3-3.3c0.5,0,1.1-0.1,1.8-0.3c0.9-0.3,1.6-0.8,2-1.3c0.3-0.3,0.3-0.8-0.1-1.1c-0.7-0.5-1.6-1.2-2.4-2.1
		c-2-2.1-2.3-3.6-3.7-5.3c-1-1.1-2.7-2.5-6-3.2c0-0.3,0.1-0.8,0.3-1.3c0.1-0.3,0.3-0.6,0.4-0.9c0.3-0.5-0.1-1-0.6-1.1
		c-1,0-2.2,0-3.5,0.4c-1,0.3-1.9,0.7-2.5,1c-0.1-0.2-0.2-0.6-0.3-1.1c0-0.1,0-0.2,0-0.3c0-0.6-0.6-0.9-1.1-0.6
		c-1.1,0.6-2.4,1.5-3.7,2.6c-1.8,1.5-3,3.1-3.9,4.3c-0.4-0.1-0.9-0.3-1.4-0.6c-0.3-0.2-0.6-0.4-0.8-0.5c-0.3-0.2-0.7-0.2-1,0.1
		c-1,1.2-2.5,3.5-2.8,6.6c-0.2,2,0,3.7,0.3,4.8l0,0c-0.6,2.3-0.6,4.4-0.4,5.7c0.8,3.1,1.6,6.1,2.3,9.2c0.8,3.3,3.7,5.6,7,5.7h0.1
		c-6.6,5.2-13.6,11.2-20.7,17.9c-8.6,8.2-21.3,16.7-27.8,24.3c0,0,0,0,0,0h0c-0.4,0.5-0.7,1.2-0.7,1.9c0,1.5,1.3,2.6,2.7,2.4
		c2.5-0.4,4.9-0.5,5.9-0.6c2.8,1.7,7.2,4.3,10.9,6.5c4.6,2.7,10.4,2.9,15.2,0.5c2-1,4.2-2,6.9-2.7c0.8-0.1,1.6-0.2,2.3-0.3
		c0.7-0.1,1.4,0,2.1,0.4c0.8,0.5,1.7,0.8,2.7,0.8c-5,4.7-12.4,13.2-15.1,16.2c-4.5,5.1-3.1,13.1,2.8,16.4
		c8.4,4.6,18.7,9.8,21.2,11.6c0.4,1.9,0.8,4.5,0.4,7.5c-0.6,5.5-3.1,9.6-5.1,12.1c-0.9,1.1-0.6,2.8,0.6,3.6c0.5,0.3,1,0.6,1.5,0.8
		c1.4,0.6,3,0.4,4.2-0.6c0.6-0.5,1.3-1,1.9-1.6c7.4-6.5,12.1-14.1,15-20.6c0.3-0.7,0.1-1.4-0.4-1.9l-0.8-0.6c-3.1-2.6-5.7-5.6-8-8.9
		c-1.6-2.3-3.5-4.7-5.8-7c-1.7-1.7-3.4-3.2-5-4.4c3.5-2.6,7.2-5.5,11-9c4-3.7,7.5-7.4,10.6-11l4.9-6.1c1.6-2.2,2.4-4.8,2.3-7.5
		c-0.4-10-4.5-28.2-17.8-41c-1.4-1.3-2.6-2.3-3.2-2.8c0-1.6,0.2-3.6,0.7-5.8C105.1,99.1,106.1,96.7,107.1,94.9"/>
	<path class="st0" d="M33.4,161.7c-0.4-0.2-0.9-0.4-1.3-0.2c-0.5,0.3-0.6,1.7,1.8,8.4c1.7,4.9,2.6,7.3,3.7,8.8
		c2.1,2.8,4.5,4.5,6.4,5.8c0.8,0.5,1.5,1,2.1,1.4c0.9,0.5,1.8,0.4,1.7-1.4c-0.1-1.9-0.4-4.4-0.6-5.8c-0.7-5.1-0.3-4.8-1.9-7.1
		c-1-1.5-2.5-2.2-6.2-5.1C36.6,164.5,34.7,162.8,33.4,161.7"/>
	<path class="st0" d="M50.5,197.5l-9.6,33.2c-0.7,2.6,0.9,5.2,3.5,5.7c0.3,0.1,0.6,0.1,0.9,0.1c2,0,3.9-1.4,4.4-3.4l10.6-41.8
		c2.4-0.1,5.1-0.5,7.8-1.3c0.3-6.1,0.6-13.1,1-21c-2.2,0-5.2-0.3-8.5-1.2c-3.7-1-6.5-2.6-8.4-3.8c0,0,0,0,0,0
		c-2.7-1.2-5.9-2.1-9.5-2.3c-0.1,0-0.2,0-0.2,0c-1.4-0.1-2,1.7-0.9,2.6c1.7,1.3,3.5,2.6,5.2,3.9c1.1,0.8,5.9,1.2,7.5,1.3
		c2.7,0.1,3.9,0.1,3.9,0.4c0,0.2-1,0.5-2.9,1.1c-2.5,0.9-3.7,1.3-4.5,2.2c-1.3,1.5-0.8,3.9-0.4,6.6c0.4,3.1,0.9,5.6,1.2,7.2
		C51.8,188,50.5,197.5,50.5,197.5"/>
	<path class="st0" d="M71.4,204.5c12.3,17.2,3.3,41.1-11.2,53.9c-6.2,5.4-13.8,9.1-22.1,9.8c-6.5,0.6-13.5-1.2-18.5-5.6
		c-8.2-7.1-10.7-18.9-9.2-29.3C11.9,223.3,17,214,24.2,207c1.5-1.4,3-2.7,4.6-3.9c6.4-4.8,14.3-7.9,22.5-8c1.8,0,3.3,1.5,3.3,3.3
		c0,1.7-1.2,3-2.8,3.3c-1.3,0.2-2.6,0.3-3.9,0.6c-17.9,4.1-31.8,23.6-28.7,41.8c1,5.8,4.1,11.7,9.6,14.1c5.5,2.6,12.3,1.8,18-0.6
		c12.4-5.3,21.4-17.7,23.7-30.8c0.5-3.3,0.6-6.6-0.1-9.9c-0.7-3.2-2-6.2-4-8.7C63.8,204.9,68.7,201.1,71.4,204.5"/>
	<path class="st0" d="M112.4,265.4c0.3-0.3,0.6-0.6,0.7-1.1c1.7-5.5,3-10.9,4.2-16.1c0.3-1.4-0.7-2.7-2.2-2.7
		c-0.4,0-0.8,0.1-1.1,0.3L23,303c-1.9,1.2-1,4,1.2,4l34.6,0c1.5,0,3-0.5,4.2-1.5l14.6-11.9L91.8,282L112.4,265.4z"/>
	<path class="st0" d="M211.7,282.6c-2.9-2-5.1-4.9-7.9-7.1c-9.1-7.3-13.9-30.8-30-41.8c0-21.1,14.1-41.2,8-59.9
		c-1.4-4.2-2.2-8.6-2.3-13c0-5.7,0.5-11.7,0.9-17.9c0.4-7.3-1-14.5-4.2-21c-0.1-0.2-0.2-0.4-0.3-0.6c0.4,0.1,4.6-0.8,4.7-1.5
		c0.1-0.9-0.9-1.5-2.2-3c-0.6-0.7-1.3-1.7-2-3.2c2,1.3,3.8,2.4,5.2,3.2c1.5,0.8,2.7,1.4,4.3,1.4c0.6,0,5,0.2,5.2-1.5
		c0.2-1.7-2.5-4-3.5-5.4c-3.6-5.2-14.9-22.2-17.1-30.2c-0.2-0.3-4.4-7.7-12.9-8c-7.7-0.2-12.2,5.7-12.6,6.2c-2.1,3.3-2.9,6.2-3.2,8
		c-1.2,6.4,1.4,8.8-0.1,15.4c-0.3,1.3-1.6,6.2-2.8,7.6c-0.1,0.1-0.8,0.9-1.2,2.1c-0.1,0.4-0.2,0.7-0.2,1c0,0.9,0.4,1.8,1.3,2.3
		c4.2,2.6,5.9,2.7,10.7,3.3c-0.7,2.7-3,11.8-3.4,12.9c-3.7,8.8-5.8,14,3.7,15.4c-2.3,4.9-9.1,12.7-11.7,16.4
		c-4.4,6.2-6.8,8.9-13.1,14c-8.4,7-1.9,16.7,3.8,10.1c5.3-9.9,12-14.3,20.9-22.8c5.8-6.8,16.6-17.5,19.5-27.5
		c0.7,16.1-6.7,17.1-15.8,29.2c-8.8,10.4-13.6,26-17.3,36.4c-9.9,24.9-10.4,44.9-19.2,69.9c-2.8,10.9-17.3,14.6-27.9,15.7
		c-7-0.2-6.5,10-0.7,11.2c4.5,1,8.4,0.1,13,1.3c6.7,1.5,10.5,5.4,18.1,3.5c4-0.7,3.2-9.7,4.1-14.4c1.7-9.7,8.3-18.8,17.6-34.5
		c1.2-2,2.4-3.9,3.4-6.9c1.8-5.4,0.7-8,2.6-11.3c1-1.8,5-7.8,6.1-11.4c0,4.3,0.5,12.7,4.5,16.4c9.3,13.3,31.9,28.5,35.6,40.6
		c0.4,1.1,0.3,2.4,0,3.5c-0.6,2.1-1.8,5.8-3.2,6.9c-2.6,1.8-9.3,1.5-9.5,5.9c0.1,6.2,7.8,7.4,12.6,6.8c5.6-0.5,8.2-6.5,12.1-9.8
		c5-4.3,9.5-4.4,10.1-10.4C215,284.7,213.4,283.8,211.7,282.6"/>
	<path class="st0" d="M2.8,165.4c1,4.9,2.2,9.7,3.9,14.4c0.7,2,2.8,3.1,4.9,2.6c2.1-0.6,3.4-2.8,2.8-4.9l0,0
		c-2.4-8.9-3.9-18.2-4.5-27.5c-0.3-4.6-0.3-9.3-0.2-13.9c0.2-4.6,0.6-9.3,1.2-13.8c2.6-18.3,9.4-35.9,19.8-51.2l0.5-0.7l0.5-0.7
		l1-1.4c0.7-0.9,1.3-1.9,2.1-2.8c1.5-1.8,2.8-3.6,4.4-5.3c3-3.5,6.3-6.8,9.6-9.9c3.4-3.1,7-6,10.8-8.7c3.8-2.7,7.7-5.2,11.7-7.5
		c8.1-4.6,16.7-8.3,25.5-11.2c4.4-1.5,8.9-2.7,13.5-3.7c2.3-0.5,4.6-1,6.9-1.3c2.3-0.4,4.6-0.7,6.8-0.9l0.1,0c2-0.2,3.6-2,3.5-4
		c-0.1-2.1-1.9-3.7-4-3.6c-5.1,0.3-10,0.9-14.8,1.8c-4.9,0.9-9.7,2-14.5,3.4c-9.5,2.8-18.7,6.6-27.5,11.3c-4.4,2.4-8.6,5-12.8,7.8
		c-4.1,2.9-8,6-11.8,9.3c-3.7,3.4-7.3,6.8-10.6,10.7c-1.7,1.8-3.2,3.8-4.8,5.8c-0.8,1-1.5,2-2.2,3l-1.1,1.5l-0.6,0.8l-0.5,0.8
		c-5.7,8.3-10.4,17.2-13.9,26.6c-3.6,9.4-5.9,19.2-7.2,29.1c-0.6,5-1,9.9-1,14.9c-0.1,5,0.1,10,0.6,14.9
		C1.1,155.6,1.8,160.5,2.8,165.4"/>
</g>
</svg>
