<?xml version="1.0" encoding="UTF-8"?><svg id="Layer_1" xmlns="http://www.w3.org/2000/svg" width="1091.72" height="306.95" viewBox="0 0 1091.72 306.95"><path d="m372.12,73.65h3.2v12c-3,2.7-7.2,4-11.6,4-9.6,0-16.6-6.8-16.6-16s7-16,16.6-16c4.8,0,8.9,1.5,11.7,4.5l-2.1,2.1c-2.7-2.6-5.8-3.7-9.5-3.7-7.8,0-13.5,5.5-13.5,13s5.7,13,13.4,13c3,0,5.8-.7,8.2-2.4v-10.5h.2Z" style="fill:#594ca0; stroke-width:0px;"/><rect x="384.02" y="55.95" width="3.2" height="33.4" style="fill:#594ca0; stroke-width:0px;"/><path d="m414.52,77.55c0-5.5-3.7-9.2-8.8-9.2s-8.8,3.7-8.8,9.2,3.8,9.2,8.8,9.2c5.1,0,8.8-3.7,8.8-9.2m-20.8,0c0-7,5.1-12,12.1-12s12,5,12,12-5.1,12.1-12,12.1c-7-.1-12.1-5.1-12.1-12.1" style="fill:#594ca0; stroke-width:0px;"/><path d="m445.12,77.55c0-5.5-3.8-9.2-8.8-9.2s-8.8,3.7-8.8,9.2,3.8,9.2,8.8,9.2c4.9,0,8.8-3.7,8.8-9.2m3.2,0c0,7.2-5,12.1-11.8,12.1-3.9,0-7.2-1.7-9.1-4.9v4.7h-3.1v-33.5h3.2v14.2c2-3.1,5.2-4.7,9-4.7,6.7.1,11.8,4.9,11.8,12.1" style="fill:#594ca0; stroke-width:0px;"/><path d="m469.33,82.25v-3.9h-7.4c-4.6,0-6.1,1.8-6.1,4.2,0,2.7,2.2,4.5,6,4.5,3.6,0,6.2-1.7,7.5-4.8m3.2-7.6v14.7h-3.1v-3.7c-1.4,2.4-4.2,3.9-8.1,3.9-5.4,0-8.6-2.8-8.6-6.9,0-3.6,2.3-6.7,9.1-6.7h7.5v-1.4c0-4-2.3-6.3-6.7-6.3-3.1,0-5.9,1.1-7.9,2.8l-1.4-2.4c2.4-2,5.9-3.2,9.6-3.2,6.1.1,9.6,3.1,9.6,9.2" style="fill:#594ca0; stroke-width:0px;"/><rect x="481.22" y="55.95" width="3.2" height="33.4" style="fill:#594ca0; stroke-width:0px;"/><path d="m532.72,73.65c0-7.5-5.6-13-13.2-13s-13.3,5.5-13.3,13,5.7,13,13.3,13,13.2-5.5,13.2-13m-29.8,0c0-9.2,7-16,16.6-16s16.5,6.8,16.5,16-7.1,16-16.5,16-16.6-6.9-16.6-16" style="fill:#594ca0; stroke-width:0px;"/><path d="m563.63,77.55c0-5.5-3.8-9.2-8.8-9.2s-8.8,3.7-8.8,9.2,3.8,9.2,8.8,9.2c4.9,0,8.8-3.7,8.8-9.2m3.2,0c0,7.2-5,12.1-11.8,12.1-3.9,0-7.2-1.7-9.1-4.9v4.7h-3.1v-33.5h3.2v14.2c2-3.1,5.2-4.7,9-4.7,6.7.1,11.8,4.9,11.8,12.1" style="fill:#594ca0; stroke-width:0px;"/><path d="m570.02,86.65l1.4-2.5c1.9,1.5,5.1,2.7,8.4,2.7,4.5,0,6.3-1.5,6.3-3.9,0-6.2-15.3-1.3-15.3-10.7,0-3.9,3.3-6.7,9.4-6.7,3.1,0,6.4.9,8.4,2.2l-1.4,2.6c-2.1-1.4-4.5-2-7-2-4.3,0-6.2,1.7-6.2,3.9,0,6.4,15.3,1.6,15.3,10.7,0,4.1-3.6,6.7-9.8,6.7-3.8-.1-7.6-1.3-9.5-3" style="fill:#594ca0; stroke-width:0px;"/><path d="m596.13,76.15h16.8c-.4-4.6-3.8-7.9-8.4-7.9-4.6,0-8,3.3-8.4,7.9m19.8,2.4h-19.8c.4,4.9,4.1,8.2,9.3,8.2,2.9,0,5.4-1,7.2-3.1l1.8,2.1c-2.1,2.5-5.4,3.9-9.1,3.9-7.4,0-12.4-5-12.4-12.1s4.9-12,11.6-12,11.5,4.9,11.5,12c-.1.3-.1.6-.1,1" style="fill:#594ca0; stroke-width:0px;"/><path d="m634.32,65.55v3.1h-.8c-4.9,0-8,3.1-8,8.7v12.1h-3.2v-23.7h3.1v4.6c1.6-3.2,4.6-4.8,8.9-4.8" style="fill:#594ca0; stroke-width:0px;"/><polygon points="661.02 65.75 650.52 89.35 647.22 89.35 636.72 65.75 640.13 65.75 648.93 85.85 657.93 65.75 661.02 65.75" style="fill:#594ca0; stroke-width:0px;"/><path d="m679.52,82.25v-3.9h-7.4c-4.6,0-6.1,1.8-6.1,4.2,0,2.7,2.2,4.5,6,4.5,3.5,0,6.2-1.7,7.5-4.8m3.1-7.6v14.7h-3.1v-3.7c-1.4,2.4-4.2,3.9-8.1,3.9-5.4,0-8.6-2.8-8.6-6.9,0-3.6,2.3-6.7,9.1-6.7h7.5v-1.4c0-4-2.3-6.3-6.7-6.3-3.1,0-5.9,1.1-7.9,2.8l-1.4-2.4c2.4-2,5.9-3.2,9.6-3.2,6.2.1,9.6,3.1,9.6,9.2" style="fill:#594ca0; stroke-width:0px;"/><path d="m703.82,87.95c-1.3,1.1-3.1,1.7-5,1.7-4.5,0-6.9-2.5-6.9-6.9v-14.3h-4.2v-2.7h4.2v-5.2h3.2v5.2h7.2v2.7h-7.2v14.1c0,2.8,1.4,4.3,4.1,4.3,1.3,0,2.6-.4,3.5-1.2l1.1,2.3Z" style="fill:#594ca0; stroke-width:0px;"/><path d="m727.22,77.55c0-5.5-3.7-9.2-8.8-9.2s-8.8,3.7-8.8,9.2,3.8,9.2,8.8,9.2c5,0,8.8-3.7,8.8-9.2m-20.9,0c0-7,5.1-12,12.1-12s12,5,12,12-5.1,12.1-12,12.1c-6.9-.1-12.1-5.1-12.1-12.1" style="fill:#594ca0; stroke-width:0px;"/><path d="m748.82,65.55v3.1h-.8c-4.9,0-8,3.1-8,8.7v12.1h-3.2v-23.7h3.1v4.6c1.6-3.2,4.6-4.8,8.9-4.8" style="fill:#594ca0; stroke-width:0px;"/><path d="m775.52,65.75l-11.8,26.4c-2,4.6-4.5,6.1-7.9,6.1-2.2,0-4.3-.7-5.8-2.2l1.5-2.4c1.2,1.2,2.6,1.8,4.3,1.8,2.1,0,3.6-1,4.9-4l1-2.3-10.6-23.6h3.3l8.9,20.1,8.9-20.1h3.3v.2Z" style="fill:#594ca0; stroke-width:0px;"/><path d="m810.22,77.55c0-5.5-3.7-9.2-8.8-9.2s-8.8,3.7-8.8,9.2,3.8,9.2,8.8,9.2c5.1,0,8.8-3.7,8.8-9.2m-20.8,0c0-7,5.1-12,12.1-12s12,5,12,12-5.1,12.1-12,12.1c-7-.1-12.1-5.1-12.1-12.1" style="fill:#594ca0; stroke-width:0px;"/><path d="m823.63,62.95v2.8h7.3v2.7h-7.2v21h-3.2v-21h-4.2v-2.7h4.2v-2.9c0-4.2,2.5-7,7.2-7,1.8,0,3.6.5,4.7,1.5l-1.1,2.4c-.9-.8-2.2-1.2-3.5-1.2-2.7-.1-4.2,1.4-4.2,4.4" style="fill:#594ca0; stroke-width:0px;"/><polygon points="403.22 109.85 403.22 167.05 392.62 167.05 392.62 142.55 363.12 142.55 363.12 167.05 352.43 167.05 352.43 109.85 363.12 109.85 363.12 133.45 392.62 133.45 392.62 109.85 403.22 109.85" style="fill:#594ca0; stroke-width:0px;"/><path d="m424.12,141.75h24.7c-.8-6.3-5.6-10.6-12.3-10.6s-11.4,4.2-12.4,10.6m34.3,6.8h-34.2c1.2,6.4,6.5,10.4,14.1,10.4,4.9,0,8.7-1.5,11.8-4.7l5.5,6.3c-3.9,4.7-10,7.1-17.6,7.1-14.6,0-24.1-9.4-24.1-22.4s9.6-22.3,22.5-22.3,22,8.9,22,22.5c.2.9.1,2.1,0,3.1" style="fill:#594ca0; stroke-width:0px;"/><path d="m493.43,153.45v-5.1h-10.5c-6.9,0-8.8,2.6-8.8,5.8,0,3.7,3.1,6,8.3,6s9.3-2.3,11-6.7m10.2-12v25.6h-9.6v-5.3c-2.4,3.8-7.2,5.9-13.7,5.9-10,0-16.2-5.5-16.2-13.1s4.9-13,18.1-13h11.3v-.6c0-6-3.6-9.5-10.9-9.5-4.9,0-10,1.6-13.2,4.3l-4-7.4c4.7-3.6,11.4-5.4,18.4-5.4,12.6,0,19.8,6,19.8,18.5" style="fill:#594ca0; stroke-width:0px;"/><rect x="516.72" y="106.45" width="10.2" height="60.6" style="fill:#594ca0; stroke-width:0px;"/><path d="m568.63,164.65c-2.4,2-6.1,2.9-9.8,2.9-9.6,0-15-5.1-15-14.7v-21h-7.2v-8.2h7.2v-10h10.2v10h11.7v8.2h-11.7v20.7c0,4.2,2.1,6.5,6,6.5,2.1,0,4.2-.6,5.7-1.8l2.9,7.4Z" style="fill:#594ca0; stroke-width:0px;"/><path d="m620.02,142.05v25h-10.3v-23.7c0-7.8-3.8-11.5-10.4-11.5-7.3,0-12.2,4.4-12.2,13.1v22h-10.2v-60.6h10.2v22c3.3-3.6,8.5-5.6,14.5-5.6,10.6.2,18.4,6.2,18.4,19.3" style="fill:#594ca0; stroke-width:0px;"/><path d="m672.93,123.45l-20.4,47.1c-4,9.9-9.6,12.9-16.8,12.9-4.3,0-8.9-1.5-11.7-4l4.1-7.5c2,1.9,4.7,3,7.5,3,3.6,0,5.7-1.7,7.7-6l.7-1.7-19-43.8h10.6l13.7,32.2,13.8-32.2h9.8Z" style="fill:#594ca0; stroke-width:0px;"/><path d="m728.13,153.45v-5.1h-10.5c-6.9,0-8.8,2.6-8.8,5.8,0,3.7,3.1,6,8.3,6s9.3-2.3,11-6.7m10.2-12v25.6h-9.6v-5.3c-2.4,3.8-7.2,5.9-13.7,5.9-10,0-16.2-5.5-16.2-13.1s4.9-13,18.1-13h11.3v-.6c0-6-3.6-9.5-10.9-9.5-4.9,0-10,1.6-13.2,4.3l-4-7.4c4.7-3.6,11.4-5.4,18.4-5.4,12.5,0,19.8,6,19.8,18.5" style="fill:#594ca0; stroke-width:0px;"/><path d="m794.32,142.05v25h-10.2v-23.7c0-7.8-3.8-11.5-10.4-11.5-7.3,0-12.2,4.4-12.2,13.1v22h-10.2v-43.6h9.7v5.6c3.3-4,8.7-6.1,15-6.1,10.6.1,18.3,6.1,18.3,19.2" style="fill:#594ca0; stroke-width:0px;"/><path d="m840.43,145.25c0-8.3-5.6-13.6-13-13.6s-13,5.3-13,13.6,5.6,13.6,13,13.6c7.3,0,13-5.3,13-13.6m10-38.8v60.6h-9.8v-5.6c-3.4,4.2-8.5,6.2-14.5,6.2-12.7,0-22-8.8-22-22.4s9.4-22.3,22-22.3c5.6,0,10.6,1.9,14,5.9v-22.4s10.3,0,10.3,0Z" style="fill:#594ca0; stroke-width:0px;"/><path d="m347.62,238.65l3.7-8.2c4.6,3.7,11.8,6.3,18.9,6.3,8.9,0,12.7-3.2,12.7-7.4,0-12.3-34-4.2-34-25.5,0-9.2,7.3-17.1,23-17.1,6.9,0,14,1.8,19,5.1l-3.3,8.2c-5.1-3-10.8-4.5-15.8-4.5-8.8,0-12.4,3.4-12.4,7.8,0,12.2,33.9,4.2,33.9,25.2,0,9.1-7.4,17-23.1,17-8.9,0-17.8-2.8-22.6-6.9" style="fill:#594ca0; stroke-width:0px;"/><path d="m445.02,201.15v43.6h-9.7v-5.6c-3.3,4-8.4,6.1-14,6.1-11.2,0-18.8-6.1-18.8-19.3v-24.9h10.2v23.5c0,7.9,3.8,11.7,10.2,11.7,7.1,0,11.9-4.4,11.9-13.1v-22h10.2Z" style="fill:#594ca0; stroke-width:0px;"/><path d="m453.43,240.35l3.9-7.8c3.8,2.5,9.7,4.3,15.2,4.3,6.4,0,9.1-1.8,9.1-4.8,0-8.3-26.9-.5-26.9-17.9,0-8.2,7.4-13.6,19.2-13.6,5.8,0,12.4,1.4,16.3,3.8l-3.9,7.8c-4.2-2.5-8.3-3.3-12.5-3.3-6.2,0-9.1,2-9.1,4.9,0,8.8,26.9,1,26.9,18,0,8.2-7.5,13.5-19.8,13.5-7.2,0-14.5-2.1-18.4-4.9" style="fill:#594ca0; stroke-width:0px;"/><path d="m526.63,242.35c-2.4,2-6.1,2.9-9.8,2.9-9.6,0-15-5.1-15-14.7v-21h-7.2v-8.2h7.2v-10h10.2v10h11.7v8.2h-11.7v20.7c0,4.2,2.1,6.5,6,6.5,2.1,0,4.2-.6,5.7-1.8l2.9,7.4Z" style="fill:#594ca0; stroke-width:0px;"/><path d="m561.32,231.05v-5.1h-10.5c-6.9,0-8.8,2.6-8.8,5.8,0,3.7,3.1,6,8.3,6,5,.1,9.3-2.2,11-6.7m10.2-11.9v25.6h-9.6v-5.3c-2.4,3.8-7.2,5.9-13.7,5.9-10,0-16.2-5.5-16.2-13.1s4.9-13,18.1-13h11.3v-.7c0-6-3.6-9.5-10.9-9.5-4.9,0-10,1.6-13.2,4.3l-4-7.4c4.7-3.6,11.4-5.4,18.4-5.4,12.6.1,19.8,6,19.8,18.6" style="fill:#594ca0; stroke-width:0px;"/><path d="m584.63,201.15h10.2v43.6h-10.2v-43.6Zm-1.4-13.3c0-3.4,2.8-6.1,6.5-6.1s6.5,2.5,6.5,5.9c0,3.6-2.7,6.4-6.5,6.4-3.7-.1-6.5-2.8-6.5-6.2" style="fill:#594ca0; stroke-width:0px;"/><path d="m651.13,219.75v25h-10.2v-23.7c0-7.8-3.8-11.5-10.4-11.5-7.3,0-12.2,4.4-12.2,13.1v22h-10.2v-43.6h9.7v5.6c3.3-4,8.7-6.1,15-6.1,10.6.1,18.3,6,18.3,19.2" style="fill:#594ca0; stroke-width:0px;"/><path d="m690.43,231.05v-5.1h-10.5c-6.9,0-8.8,2.6-8.8,5.8,0,3.7,3.1,6,8.3,6,5,.1,9.3-2.2,11-6.7m10.2-11.9v25.6h-9.6v-5.3c-2.4,3.8-7.2,5.9-13.7,5.9-10,0-16.2-5.5-16.2-13.1s4.9-13,18.1-13h11.3v-.7c0-6-3.6-9.5-10.9-9.5-4.9,0-10,1.6-13.2,4.3l-4-7.4c4.7-3.6,11.4-5.4,18.4-5.4,12.5.1,19.8,6,19.8,18.6" style="fill:#594ca0; stroke-width:0px;"/><path d="m749.63,222.95c0-8.3-5.6-13.6-12.9-13.6s-13,5.3-13,13.6,5.6,13.6,13,13.6,12.9-5.3,12.9-13.6m10.4,0c0,13.6-9.4,22.4-22.1,22.4-6,0-11-2-14.5-6.2v5.6h-9.7v-60.6h10.2v22.3c3.5-3.9,8.4-5.8,14-5.8,12.7,0,22.1,8.7,22.1,22.3" style="fill:#594ca0; stroke-width:0px;"/><rect x="769.72" y="184.15" width="10.2" height="60.6" style="fill:#594ca0; stroke-width:0px;"/><path d="m799.82,219.45h24.7c-.8-6.3-5.6-10.6-12.3-10.6s-11.4,4.2-12.4,10.6m34.3,6.7h-34.2c1.2,6.4,6.5,10.4,14.1,10.4,4.9,0,8.7-1.5,11.8-4.7l5.5,6.3c-3.9,4.7-10,7.1-17.6,7.1-14.6,0-24.1-9.4-24.1-22.4s9.6-22.3,22.5-22.3,22,8.9,22,22.5c.1.9.1,2.2,0,3.1" style="fill:#594ca0; stroke-width:0px;"/><path d="m863.52,216.15c0-17.1,13.1-29.4,30.6-29.4,9.3,0,17.3,3.3,22.6,9.6l-6.9,6.4c-4.2-4.5-9.3-6.7-15.3-6.7-11.8,0-20.4,8.3-20.4,20.1s8.6,20.1,20.4,20.1c6,0,11.1-2.2,15.3-6.8l6.9,6.5c-5.3,6.2-13.3,9.6-22.7,9.6-17.5,0-30.5-12.3-30.5-29.4" style="fill:#594ca0; stroke-width:0px;"/><path d="m925.93,201.15h10.2v43.6h-10.2v-43.6Zm-1.4-13.3c0-3.4,2.8-6.1,6.5-6.1s6.5,2.5,6.5,5.9c0,3.6-2.7,6.4-6.5,6.4-3.7-.1-6.5-2.8-6.5-6.2" style="fill:#594ca0; stroke-width:0px;"/><path d="m975.72,242.35c-2.4,2-6.1,2.9-9.8,2.9-9.6,0-15-5.1-15-14.7v-21h-7.2v-8.2h7.2v-10h10.2v10h11.7v8.2h-11.7v20.7c0,4.2,2.1,6.5,6,6.5,2.1,0,4.2-.6,5.7-1.8l2.9,7.4Z" style="fill:#594ca0; stroke-width:0px;"/><path d="m984.13,201.15h10.2v43.6h-10.2v-43.6Zm-1.4-13.3c0-3.4,2.8-6.1,6.5-6.1s6.5,2.5,6.5,5.9c0,3.6-2.7,6.4-6.5,6.4-3.7-.1-6.5-2.8-6.5-6.2" style="fill:#594ca0; stroke-width:0px;"/><path d="m1014.22,219.45h24.7c-.8-6.3-5.6-10.6-12.3-10.6s-11.4,4.2-12.4,10.6m34.3,6.7h-34.2c1.2,6.4,6.5,10.4,14.1,10.4,4.9,0,8.7-1.5,11.8-4.7l5.5,6.3c-3.9,4.7-10,7.1-17.6,7.1-14.6,0-24.1-9.4-24.1-22.4s9.6-22.3,22.5-22.3,22,8.9,22,22.5c.2.9.1,2.2,0,3.1" style="fill:#594ca0; stroke-width:0px;"/><path d="m1053.53,240.35l3.9-7.8c3.8,2.5,9.7,4.3,15.2,4.3,6.4,0,9.1-1.8,9.1-4.8,0-8.3-26.9-.5-26.9-17.9,0-8.2,7.4-13.6,19.2-13.6,5.8,0,12.4,1.4,16.3,3.8l-3.9,7.8c-4.2-2.5-8.3-3.3-12.5-3.3-6.2,0-9.1,2-9.1,4.9,0,8.8,26.9,1,26.9,18,0,8.2-7.5,13.5-19.8,13.5-7.2,0-14.5-2.1-18.4-4.9" style="fill:#594ca0; stroke-width:0px;"/><path d="m277.12,103.65c0,16.6-13.4,30-30,30-8.6,0-16.3-3.6-21.8-9.4v-41.3c5.5-5.8,13.2-9.4,21.8-9.4,16.6,0,30,13.5,30,30.1" style="fill:#cfdf66; stroke-width:0px;"/><path d="m152.53,246.95q0-.1,0,0c-.5-.5-1.3-.3-1.4.3-.2,1.1-.5,2.3-1,3.7-1.1,3.4-2.5,5.7-3.7,7.7l-.3.5c-1.9,3.2-3.7,6.2-5.3,8.9-6.2,10.2-10.3,17-11.5,23.5-.2.9-.3,2.3-.4,3.8-.2,2.8-.4,6.2-1.5,9.2-.4,1.2.4,2.4,1.7,2.4h4.6c1.4,0,2.6-.7,3.4-1.9l26.4-42.2c.8-1.3.6-2.9-.5-4-3.9-4-7.7-8-10.5-11.9" style="fill:#594ca0; stroke-width:0px;"/><path d="m173.92,299.45c.3-7.6,7.5-9.5,10.6-10.4h0c.7-.2,1.3-.7,1.5-1.4.2-.5.4-1,.6-1.8.2-.5.1-1.1-.1-1.6-.9-2.3-2.9-4.9-5.4-7.7-1.1-1.3-3.2-.9-3.8.7l-10,26.4c-.6,1.5.5,3.1,2.1,3.1h3c1.6,0,2.6-1.5,2.1-3-.4-1.2-.6-2.5-.7-3.9v-.2l.1-.2Z" style="fill:#594ca0; stroke-width:0px;"/><path d="m207.53,270.55c1.5,1.2,2.7,2.4,3.9,3.6h0c.8.8,2.1.2,2.1-.9l-.2-28c0-.7-.6-1.2-1.2-1.2l-18.2.3c-.9,0-1.5,1-1,1.8,2.2,3.7,4.2,7.4,6,10.8,3,5.9,5.8,11.4,8.6,13.6" style="fill:#594ca0; stroke-width:0px;"/><path d="m260.72,247.05l.9-112.4c6.3,4,14.3,9,18.7,11.8l.8,65.9c-5,12.5-11.9,24.2-20.4,34.7m-29.7,27.8c.4-37.4.9-83.5,1.3-128.5,1-.6,10.6-6.7,18.7-11.8l1,122.1v.3c-6.4,6.7-13.5,12.7-21,17.9m4.6-196.5c16.7,0,30.3,13.6,30.3,30.3,0,3.8-.7,7.5-2,11-2.4-1.5-3.9-2.4-3.9-2.5-2.2-1.4-5.1-1.5-7.4,0,0,0-11.7,7.4-20.1,12.7.2-17.7.4-35,.6-51.3.8-.1,1.7-.2,2.5-.2m55.4,58.4s-7.6-4.8-15.2-9.6c2.7-5.8,4-12,4-18.5,0-24.4-19.8-44.2-44.2-44.2-.8,0-1.6,0-2.4.1.1-8.7.2-17,.3-24.9,0-2.3-1.1-4.5-3.1-5.8-.1-.1-52-32.7-52.1-32.7-2.2-1.5-5.2-1.6-7.4.1l-67.6,50.7c-4.6,3.5,0,10.3,4.9,7.4,0,0,48.4-33.5,61.2-41.3v2.7c.1,9,.5,32.6.6,41.9,0,2.5,2,4.5,4.5,4.5s4.6-2,4.6-4.5c.2-12.6.4-29.9.7-44.4,11.8,7.5,32,20.2,39.8,25.2.9,68.9,1.8,169.4,2.6,238.1.1,1,.3,1.7.7,2.4.8,2,3.1,3.3,5.6,2,28.2-15.7,51-40.6,64.2-70.2.3-.7.5-1.5.5-2.4l.9-70.9c.1-2.2-1-4.4-3.1-5.7" style="fill:#594ca0; stroke-width:0px;"/><path d="m89.82,149.15c-5.6,6.6-12.3,9-16.1,10.3-4.2,1.5-6.9,2.3-10.4,1.8-5.5-.8-12.2-6.1-12.4-6.6h0c-.4-.9-.2-2,.6-2.6,4.6-3.9,10.8-7.9,16.3-11.6,1.7-1.2,3.4-2.3,5-3.2l.3.2c1,.8,2.4,1,3.5.3l6.4-3.9c-.1.3,0,.6.1.9.4,2.7.7,6.1.3,10-.1,1.5-.7,3.1-1.3,4.6-.6,1.4,1,2.8,2.3,1.9,1.4-.9,2.9-1.9,4-3,2.1-2,4.1-3.9,5.7-5.6-.5,1-1,1.9-1.5,2.7-1,1.5-2,2.8-2.8,3.8m17-54.3c.1-.2.1-.5.2-.8.4-1.1.9-2.2,1.3-3.3.5,0,1.1-.1,1.8-.3.9-.3,1.6-.8,2-1.3.3-.3.3-.8-.1-1.1-.7-.5-1.6-1.2-2.4-2.1-2-2.1-2.3-3.6-3.7-5.3-1-1.1-2.7-2.5-6-3.2,0-.3.1-.8.3-1.3.1-.3.3-.6.4-.9.3-.5-.1-1-.6-1.1-1,0-2.2,0-3.5.4-1,.3-1.9.7-2.5,1-.1-.2-.2-.6-.3-1.1v-.3c0-.6-.6-.9-1.1-.6-1.1.6-2.4,1.5-3.7,2.6-1.8,1.5-3,3.1-3.9,4.3-.4-.1-.9-.3-1.4-.6-.3-.2-.6-.4-.8-.5-.3-.2-.7-.2-1,.1-1,1.2-2.5,3.5-2.8,6.6-.2,2,0,3.7.3,4.8h0c-.6,2.3-.6,4.4-.4,5.7.8,3.1,1.6,6.1,2.3,9.2.8,3.3,3.7,5.6,7,5.7h.1c-6.6,5.2-13.6,11.2-20.7,17.9-8.6,8.2-21.3,16.7-27.8,24.3h0c-.4.5-.7,1.2-.7,1.9,0,1.5,1.3,2.6,2.7,2.4,2.5-.4,4.9-.5,5.9-.6,2.8,1.7,7.2,4.3,10.9,6.5,4.6,2.7,10.4,2.9,15.2.5,2-1,4.2-2,6.9-2.7.8-.1,1.6-.2,2.3-.3.7-.1,1.4,0,2.1.4.8.5,1.7.8,2.7.8-5,4.7-12.4,13.2-15.1,16.2-4.5,5.1-3.1,13.1,2.8,16.4,8.4,4.6,18.7,9.8,21.2,11.6.4,1.9.8,4.5.4,7.5-.6,5.5-3.1,9.6-5.1,12.1-.9,1.1-.6,2.8.6,3.6.5.3,1,.6,1.5.8,1.4.6,3,.4,4.2-.6.6-.5,1.3-1,1.9-1.6,7.4-6.5,12.1-14.1,15-20.6.3-.7.1-1.4-.4-1.9l-.8-.6c-3.1-2.6-5.7-5.6-8-8.9-1.6-2.3-3.5-4.7-5.8-7-1.7-1.7-3.4-3.2-5-4.4,3.5-2.6,7.2-5.5,11-9,4-3.7,7.5-7.4,10.6-11l4.9-6.1c1.6-2.2,2.4-4.8,2.3-7.5-.4-10-4.5-28.2-17.8-41-1.4-1.3-2.6-2.3-3.2-2.8,0-1.6.2-3.6.7-5.8,1.1-2.9,2.1-5.3,3.1-7.1" style="fill:#594ca0; stroke-width:0px;"/><path d="m33.12,161.65c-.4-.2-.9-.4-1.3-.2-.5.3-.6,1.7,1.8,8.4,1.7,4.9,2.6,7.3,3.7,8.8,2.1,2.8,4.5,4.5,6.4,5.8.8.5,1.5,1,2.1,1.4.9.5,1.8.4,1.7-1.4-.1-1.9-.4-4.4-.6-5.8-.7-5.1-.3-4.8-1.9-7.1-1-1.5-2.5-2.2-6.2-5.1-2.5-2-4.4-3.7-5.7-4.8" style="fill:#594ca0; stroke-width:0px;"/><path d="m50.22,197.45l-9.6,33.2c-.7,2.6.9,5.2,3.5,5.7.3.1.6.1.9.1,2,0,3.9-1.4,4.4-3.4l10.6-41.8c2.4-.1,5.1-.5,7.8-1.3.3-6.1.6-13.1,1-21-2.2,0-5.2-.3-8.5-1.2-3.7-1-6.5-2.6-8.4-3.8h0c-2.7-1.2-5.9-2.1-9.5-2.3h-.2c-1.4-.1-2,1.7-.9,2.6,1.7,1.3,3.5,2.6,5.2,3.9,1.1.8,5.9,1.2,7.5,1.3,2.7.1,3.9.1,3.9.4,0,.2-1,.5-2.9,1.1-2.5.9-3.7,1.3-4.5,2.2-1.3,1.5-.8,3.9-.4,6.6.4,3.1.9,5.6,1.2,7.2.2,1-1.1,10.5-1.1,10.5" style="fill:#594ca0; stroke-width:0px;"/><path d="m71.12,204.45c12.3,17.2,3.3,41.1-11.2,53.9-6.2,5.4-13.8,9.1-22.1,9.8-6.5.6-13.5-1.2-18.5-5.6-8.2-7.1-10.7-18.9-9.2-29.3,1.5-10,6.6-19.3,13.8-26.3,1.5-1.4,3-2.7,4.6-3.9,6.4-4.8,14.3-7.9,22.5-8,1.8,0,3.3,1.5,3.3,3.3,0,1.7-1.2,3-2.8,3.3-1.3.2-2.6.3-3.9.6-17.9,4.1-31.8,23.6-28.7,41.8,1,5.8,4.1,11.7,9.6,14.1,5.5,2.6,12.3,1.8,18-.6,12.4-5.3,21.4-17.7,23.7-30.8.5-3.3.6-6.6-.1-9.9-.7-3.2-2-6.2-4-8.7-2.6-3.3,2.3-7.1,5-3.7" style="fill:#594ca0; stroke-width:0px;"/><path d="m112.12,265.35c.3-.3.6-.6.7-1.1,1.7-5.5,3-10.9,4.2-16.1.3-1.4-.7-2.7-2.2-2.7-.4,0-.8.1-1.1.3l-91,57.2c-1.9,1.2-1,4,1.2,4h34.6c1.5,0,3-.5,4.2-1.5l14.6-11.9,14.2-11.6,20.6-16.6Z" style="fill:#594ca0; stroke-width:0px;"/><path d="m211.42,282.55c-2.9-2-5.1-4.9-7.9-7.1-9.1-7.3-13.9-30.8-30-41.8,0-21.1,14.1-41.2,8-59.9-1.4-4.2-2.2-8.6-2.3-13,0-5.7.5-11.7.9-17.9.4-7.3-1-14.5-4.2-21-.1-.2-.2-.4-.3-.6.4.1,4.6-.8,4.7-1.5.1-.9-.9-1.5-2.2-3-.6-.7-1.3-1.7-2-3.2,2,1.3,3.8,2.4,5.2,3.2,1.5.8,2.7,1.4,4.3,1.4.6,0,5,.2,5.2-1.5s-2.5-4-3.5-5.4c-3.6-5.2-14.9-22.2-17.1-30.2-.2-.3-4.4-7.7-12.9-8-7.7-.2-12.2,5.7-12.6,6.2-2.1,3.3-2.9,6.2-3.2,8-1.2,6.4,1.4,8.8-.1,15.4-.3,1.3-1.6,6.2-2.8,7.6-.1.1-.8.9-1.2,2.1-.1.4-.2.7-.2,1,0,.9.4,1.8,1.3,2.3,4.2,2.6,5.9,2.7,10.7,3.3-.7,2.7-3,11.8-3.4,12.9-3.7,8.8-5.8,14,3.7,15.4-2.3,4.9-9.1,12.7-11.7,16.4-4.4,6.2-6.8,8.9-13.1,14-8.4,7-1.9,16.7,3.8,10.1,5.3-9.9,12-14.3,20.9-22.8,5.8-6.8,16.6-17.5,19.5-27.5.7,16.1-6.7,17.1-15.8,29.2-8.8,10.4-13.6,26-17.3,36.4-9.9,24.9-10.4,44.9-19.2,69.9-2.8,10.9-17.3,14.6-27.9,15.7-7-.2-6.5,10-.7,11.2,4.5,1,8.4.1,13,1.3,6.7,1.5,10.5,5.4,18.1,3.5,4-.7,3.2-9.7,4.1-14.4,1.7-9.7,8.3-18.8,17.6-34.5,1.2-2,2.4-3.9,3.4-6.9,1.8-5.4.7-8,2.6-11.3,1-1.8,5-7.8,6.1-11.4,0,4.3.5,12.7,4.5,16.4,9.3,13.3,31.9,28.5,35.6,40.6.4,1.1.3,2.4,0,3.5-.6,2.1-1.8,5.8-3.2,6.9-2.6,1.8-9.3,1.5-9.5,5.9.1,6.2,7.8,7.4,12.6,6.8,5.6-.5,8.2-6.5,12.1-9.8,5-4.3,9.5-4.4,10.1-10.4-.4-1.4-2-2.3-3.7-3.5" style="fill:#594ca0; stroke-width:0px;"/><path d="m2.52,165.35c1,4.9,2.2,9.7,3.9,14.4.7,2,2.8,3.1,4.9,2.6,2.1-.6,3.4-2.8,2.8-4.9h0c-2.4-8.9-3.9-18.2-4.5-27.5-.3-4.6-.3-9.3-.2-13.9.2-4.6.6-9.3,1.2-13.8,2.6-18.3,9.4-35.9,19.8-51.2l.5-.7.5-.7,1-1.4c.7-.9,1.3-1.9,2.1-2.8,1.5-1.8,2.8-3.6,4.4-5.3,3-3.5,6.3-6.8,9.6-9.9,3.4-3.1,7-6,10.8-8.7s7.7-5.2,11.7-7.5c8.1-4.6,16.7-8.3,25.5-11.2,4.4-1.5,8.9-2.7,13.5-3.7,2.3-.5,4.6-1,6.9-1.3,2.3-.4,4.6-.7,6.8-.9h.1c2-.2,3.6-2,3.5-4-.1-2.1-1.9-3.7-4-3.6-5.1.3-10,.9-14.8,1.8-4.9.9-9.7,2-14.5,3.4-9.5,2.8-18.7,6.6-27.5,11.3-4.4,2.4-8.6,5-12.8,7.8-4.1,2.9-8,6-11.8,9.3-3.7,3.4-7.3,6.8-10.6,10.7-1.7,1.8-3.2,3.8-4.8,5.8-.8,1-1.5,2-2.2,3l-1.1,1.5-.6.8-.5.8c-5.7,8.3-10.4,17.2-13.9,26.6-3.6,9.4-5.9,19.2-7.2,29.1C.42,126.25.02,131.15.02,136.15c-.1,5,.1,10,.6,14.9.2,4.5.9,9.4,1.9,14.3" style="fill:#594ca0; stroke-width:0px;"/></svg>
