<?xml version="1.0" encoding="UTF-8"?><svg id="Layer_1" xmlns="http://www.w3.org/2000/svg" width="560.55" height="299.08" viewBox="0 0 560.55 299.08"><path d="m41.73,100.46c.73,0,1.44.11,2.13.33.69.22,1.3.55,1.83.98.54.43.96.98,1.29,1.63.32.65.48,1.42.48,2.31s-.17,1.65-.5,2.36c-.33.71-.78,1.31-1.35,1.81-.57.5-1.23.88-1.98,1.15-.75.26-1.54.4-2.37.4-.73,0-1.41-.09-2.03-.28-.62-.19-1.19-.45-1.69-.78-.51-.33-.96-.71-1.34-1.15-.38-.43-.71-.9-.98-1.41l1.89-1.35c.46.71,1.01,1.31,1.66,1.78.65.48,1.45.71,2.42.71.49,0,.95-.07,1.38-.22.42-.14.79-.36,1.11-.64s.56-.62.74-1.01c.18-.39.27-.83.27-1.33,0-.97-.33-1.71-.99-2.22s-1.62-.76-2.88-.76h-3.87v-8.46h9.2v2.42h-6.55v3.92c.34-.07.68-.12,1.03-.15.35-.03.72-.05,1.11-.05Z" style="fill:#584c9f; stroke-width:0px;"/><path d="m61.18,94.32v.74l-8.13,16.08h-2.93l7.42-14.4h-7.9v-2.42h11.54Z" style="fill:#584c9f; stroke-width:0px;"/><path d="m69.77,94.04c1.09,0,2.03.22,2.84.65.81.43,1.47,1.03,2,1.8.53.76.92,1.67,1.17,2.7.25,1.04.38,2.17.38,3.39s-.13,2.34-.38,3.41-.64,2.01-1.16,2.82c-.52.81-1.18,1.44-1.99,1.91-.81.47-1.76.7-2.87.7s-2.09-.23-2.89-.7c-.81-.47-1.47-1.1-1.99-1.91-.52-.81-.9-1.75-1.16-2.82-.25-1.07-.38-2.21-.38-3.41s.13-2.35.38-3.39c.25-1.04.65-1.94,1.18-2.7s1.2-1.36,2-1.8c.8-.43,1.75-.65,2.85-.65Zm0,2.47c-.65,0-1.2.14-1.66.43-.46.29-.83.7-1.12,1.22-.29.53-.5,1.16-.64,1.91-.14.75-.2,1.59-.2,2.52s.07,1.81.2,2.59c.14.77.35,1.44.64,2,.29.56.66.99,1.12,1.3.46.31,1.01.46,1.66.46s1.19-.15,1.64-.46.82-.74,1.11-1.3c.29-.56.5-1.23.64-2,.14-.77.2-1.63.2-2.59s-.07-1.78-.2-2.52c-.14-.75-.35-1.38-.64-1.91-.29-.53-.66-.93-1.11-1.22-.45-.29-1-.43-1.64-.43Z" style="fill:#584c9f; stroke-width:0px;"/><path d="m85.69,94.04c1.09,0,2.03.22,2.84.65.81.43,1.47,1.03,2,1.8.53.76.92,1.67,1.17,2.7.25,1.04.38,2.17.38,3.39s-.13,2.34-.38,3.41-.64,2.01-1.16,2.82c-.52.81-1.18,1.44-1.99,1.91-.81.47-1.76.7-2.87.7s-2.09-.23-2.89-.7c-.81-.47-1.47-1.1-1.99-1.91-.52-.81-.9-1.75-1.16-2.82-.25-1.07-.38-2.21-.38-3.41s.13-2.35.38-3.39c.25-1.04.65-1.94,1.18-2.7s1.2-1.36,2-1.8c.8-.43,1.75-.65,2.85-.65Zm0,2.47c-.65,0-1.2.14-1.66.43-.46.29-.83.7-1.12,1.22-.29.53-.5,1.16-.64,1.91-.14.75-.2,1.59-.2,2.52s.07,1.81.2,2.59c.14.77.35,1.44.64,2,.29.56.66.99,1.12,1.3.46.31,1.01.46,1.66.46s1.19-.15,1.64-.46.82-.74,1.11-1.3c.29-.56.5-1.23.64-2,.14-.77.2-1.63.2-2.59s-.07-1.78-.2-2.52c-.14-.75-.35-1.38-.64-1.91-.29-.53-.66-.93-1.11-1.22-.45-.29-1-.43-1.64-.43Z" style="fill:#584c9f; stroke-width:0px;"/><path d="m104.27,102.61c.59,0,1.13.11,1.63.33.5.22.94.53,1.3.92.36.39.64.85.85,1.38s.3,1.1.3,1.72-.1,1.2-.3,1.73-.49.99-.85,1.38c-.36.39-.79.7-1.3.92-.5.22-1.05.33-1.63.33s-1.09-.1-1.57-.31c-.48-.21-.88-.5-1.21-.89v4.07h-1.8v-11.4h1.68v1.2c.3-.44.71-.78,1.22-1.02.51-.25,1.07-.37,1.68-.37Zm-.29,7.07c.35,0,.68-.06.99-.19.31-.13.58-.31.81-.55.23-.24.41-.52.54-.85.13-.33.2-.7.2-1.11s-.07-.77-.2-1.11c-.13-.33-.31-.62-.53-.85-.23-.24-.49-.42-.8-.56-.31-.13-.65-.2-1.01-.2-.3,0-.61.05-.91.16-.3.11-.57.27-.8.49-.24.22-.43.5-.58.84-.15.34-.22.74-.22,1.22s.07.88.21,1.22c.14.34.33.62.57.84.24.23.51.39.8.5.3.11.61.16.92.16Z" style="fill:#584c9f; stroke-width:0px;"/><path d="m118.07,106.43c0,.23-.02.44-.05.65-.03.2-.06.36-.08.48h-6.22c.12.69.43,1.23.91,1.61.48.39,1.08.58,1.81.58.49,0,.93-.09,1.32-.26.39-.18.76-.42,1.11-.72l.85,1.22c-.44.42-.94.75-1.5.99s-1.17.36-1.83.36-1.24-.11-1.79-.33c-.55-.22-1.02-.53-1.42-.92-.4-.39-.71-.85-.93-1.38s-.34-1.1-.34-1.72.11-1.18.33-1.72c.22-.53.53-.99.92-1.38.39-.39.85-.7,1.37-.93.52-.23,1.09-.34,1.7-.34.55,0,1.07.1,1.54.29.47.19.88.46,1.22.8s.61.75.81,1.21c.19.47.29.98.29,1.52Zm-3.94-2.31c-.6,0-1.12.18-1.55.55s-.71.86-.85,1.49h4.54c0-.32-.06-.6-.18-.86-.12-.25-.28-.47-.47-.65-.19-.18-.42-.31-.68-.4-.26-.09-.53-.14-.82-.14Z" style="fill:#584c9f; stroke-width:0px;"/><path d="m123.95,102.61c.61,0,1.19.11,1.72.34.54.23,1.01.54,1.41.93.4.39.72.85.95,1.38.23.53.35,1.1.35,1.71s-.12,1.18-.35,1.72c-.23.53-.55,1-.95,1.39-.4.4-.87.71-1.41.93-.54.22-1.11.33-1.72.33s-1.18-.11-1.72-.34c-.53-.23-1-.54-1.4-.93-.4-.39-.72-.85-.94-1.38s-.34-1.1-.34-1.72.11-1.18.34-1.71c.23-.53.54-.99.93-1.38.4-.39.86-.7,1.4-.93s1.11-.34,1.72-.34Zm0,1.65c-.38,0-.72.07-1.05.21s-.6.33-.83.58c-.23.24-.41.53-.54.86-.13.33-.2.69-.2,1.08s.07.74.2,1.07c.13.33.31.61.54.85.23.24.5.43.82.57s.67.2,1.04.2.72-.07,1.04-.2c.32-.14.59-.32.83-.57.23-.24.42-.53.55-.85.13-.33.2-.68.2-1.07s-.07-.74-.2-1.08c-.13-.33-.31-.62-.55-.87-.23-.25-.51-.44-.83-.58-.32-.14-.66-.2-1.02-.2Z" style="fill:#584c9f; stroke-width:0px;"/><path d="m134.95,102.61c.59,0,1.13.11,1.64.33.5.22.93.53,1.3.92.36.39.64.85.85,1.38s.31,1.1.31,1.72-.1,1.2-.31,1.73c-.2.53-.49.99-.85,1.38-.36.39-.79.7-1.3.92-.5.22-1.05.33-1.64.33s-1.09-.1-1.57-.31-.88-.5-1.21-.89v4.07h-1.8v-11.4h1.68v1.2c.3-.44.71-.78,1.22-1.02.51-.25,1.07-.37,1.68-.37Zm-.29,7.07c.35,0,.68-.06.99-.19.31-.13.58-.31.81-.55.23-.24.41-.52.54-.85s.2-.7.2-1.11-.07-.77-.2-1.11-.31-.62-.53-.85c-.23-.24-.49-.42-.8-.56-.31-.13-.65-.2-1.01-.2-.3,0-.61.05-.91.16-.3.11-.57.27-.8.49-.24.22-.43.5-.58.84-.15.34-.22.74-.22,1.22s.07.88.21,1.22c.14.34.33.62.57.84.24.23.51.39.8.5.3.11.61.16.92.16Z" style="fill:#584c9f; stroke-width:0px;"/><path d="m142.88,111.14h-1.8v-12.74h1.8v12.74Z" style="fill:#584c9f; stroke-width:0px;"/><path d="m153.02,106.43c0,.23-.02.44-.05.65-.03.2-.06.36-.08.48h-6.22c.12.69.43,1.23.91,1.61.48.39,1.08.58,1.81.58.49,0,.93-.09,1.32-.26.39-.18.76-.42,1.11-.72l.85,1.22c-.44.42-.94.75-1.5.99s-1.17.36-1.83.36-1.24-.11-1.79-.33c-.55-.22-1.02-.53-1.42-.92-.4-.39-.71-.85-.93-1.38s-.34-1.1-.34-1.72.11-1.18.33-1.72c.22-.53.53-.99.92-1.38.39-.39.85-.7,1.37-.93.52-.23,1.09-.34,1.7-.34.55,0,1.07.1,1.54.29.47.19.88.46,1.22.8s.61.75.81,1.21c.19.47.29.98.29,1.52Zm-3.94-2.31c-.6,0-1.12.18-1.55.55s-.71.86-.85,1.49h4.54c0-.32-.06-.6-.18-.86-.12-.25-.28-.47-.47-.65-.19-.18-.42-.31-.68-.4-.26-.09-.53-.14-.82-.14Z" style="fill:#584c9f; stroke-width:0px;"/><path d="m164.38,102.61c.59,0,1.13.11,1.64.33.5.22.93.53,1.3.92.36.39.64.85.85,1.38s.31,1.1.31,1.72-.1,1.2-.31,1.73c-.2.53-.49.99-.85,1.38-.36.39-.79.7-1.3.92-.5.22-1.05.33-1.64.33s-1.09-.1-1.57-.31-.88-.5-1.21-.89v4.07h-1.8v-11.4h1.68v1.2c.3-.44.71-.78,1.22-1.02.51-.25,1.07-.37,1.68-.37Zm-.29,7.07c.35,0,.68-.06.99-.19.31-.13.58-.31.81-.55.23-.24.41-.52.54-.85s.2-.7.2-1.11-.07-.77-.2-1.11-.31-.62-.53-.85c-.23-.24-.49-.42-.8-.56-.31-.13-.65-.2-1.01-.2-.3,0-.61.05-.91.16-.3.11-.57.27-.8.49-.24.22-.43.5-.58.84-.15.34-.22.74-.22,1.22s.07.88.21,1.22c.14.34.33.62.57.84.24.23.51.39.8.5.3.11.61.16.92.16Z" style="fill:#584c9f; stroke-width:0px;"/><path d="m178.18,106.43c0,.23-.02.44-.05.65-.03.2-.06.36-.08.48h-6.22c.12.69.43,1.23.91,1.61.48.39,1.08.58,1.81.58.49,0,.93-.09,1.32-.26.39-.18.76-.42,1.11-.72l.85,1.22c-.44.42-.94.75-1.5.99s-1.17.36-1.83.36-1.24-.11-1.79-.33c-.55-.22-1.02-.53-1.42-.92-.4-.39-.71-.85-.93-1.38s-.34-1.1-.34-1.72.11-1.18.33-1.72c.22-.53.53-.99.92-1.38.39-.39.85-.7,1.37-.93.52-.23,1.09-.34,1.7-.34.55,0,1.07.1,1.54.29.47.19.88.46,1.22.8s.61.75.81,1.21c.19.47.29.98.29,1.52Zm-3.94-2.31c-.6,0-1.12.18-1.55.55s-.71.86-.85,1.49h4.54c0-.32-.06-.6-.18-.86-.12-.25-.28-.47-.47-.65-.19-.18-.42-.31-.68-.4-.26-.09-.53-.14-.82-.14Z" style="fill:#584c9f; stroke-width:0px;"/><path d="m184.31,102.71c.15,0,.27,0,.38.03.11.02.21.04.3.06v1.58h-.54c-.33,0-.64.05-.94.14-.3.1-.56.24-.78.43-.22.19-.4.43-.53.72-.13.29-.2.63-.2,1.01v4.45h-1.8v-8.34h1.68v1.09c.29-.38.65-.68,1.08-.88s.88-.3,1.35-.3Z" style="fill:#584c9f; stroke-width:0px;"/><path d="m191.33,98.39h1.8v12.74h-1.8v-12.74Zm7.59,12.74h-2.14l-3.62-4.69,3.26-3.65h2.21l-3.36,3.67,3.65,4.67Z" style="fill:#584c9f; stroke-width:0px;"/><path d="m209.89,102.61c.49,0,.92.08,1.31.25.38.16.71.39.97.68.27.29.47.64.6,1.04s.2.86.2,1.34v5.22h-1.8v-4.96c0-.58-.15-1.04-.46-1.4-.3-.36-.73-.54-1.27-.54s-.98.18-1.32.53c-.34.35-.51.79-.51,1.33v5.05h-1.8v-4.96c0-.58-.16-1.04-.47-1.4-.31-.36-.74-.54-1.28-.54s-.98.18-1.32.54c-.34.36-.51.82-.51,1.4v4.96h-1.8v-8.34h1.68v.8c.28-.31.63-.55,1.04-.72.41-.18.87-.26,1.38-.26.6,0,1.11.12,1.53.35.42.23.75.55,1,.96.29-.38.68-.7,1.16-.94.48-.24,1.03-.37,1.65-.37Z" style="fill:#584c9f; stroke-width:0px;"/><path d="m219.89,103.68v1.27h-5.15v-.31l2.51-2.72c.33-.36.58-.68.74-.95s.25-.55.25-.85-.09-.56-.27-.76c-.18-.2-.42-.31-.71-.31s-.55.1-.73.31c-.18.2-.28.47-.28.8,0,.08,0,.16,0,.25,0,.08.01.18.03.28h-1.41c-.02-.1-.04-.21-.05-.31-.01-.11-.02-.21-.02-.3,0-.28.06-.56.17-.84s.27-.52.48-.74c.21-.22.47-.39.77-.52.31-.13.65-.19,1.02-.19.35,0,.67.06.97.17.29.11.55.27.76.47.21.2.38.44.51.71.12.28.19.57.19.89,0,.53-.14,1.01-.43,1.44-.29.43-.65.86-1.08,1.3l-.88.91h2.6Z" style="fill:#584c9f; stroke-width:0px;"/><line x1="299.85" y1="167.62" x2="299.85" y2="8.53" style="fill:none; stroke:#ca869a; stroke-dasharray:0 0 5 5; stroke-miterlimit:10;"/><line x1="299.89" y1="167.62" x2="299.89" y2="8.53" style="fill:none; stroke:#e78c59; stroke-dasharray:0 0 5 5; stroke-miterlimit:10;"/><line x1="514.62" y1="114.76" x2="221.42" y2="114.76" style="fill:none; stroke:#9f9f9f; stroke-dasharray:0 0 0 5; stroke-linecap:round;"/><line x1="514.62" y1="8.53" x2="221.42" y2="8.53" style="fill:none; stroke:#9f9f9f; stroke-dasharray:0 0 0 5; stroke-linecap:round;"/><line x1="514.62" y1="61.39" x2="224.58" y2="61.39" style="fill:none; stroke:#6f7070; stroke-miterlimit:10;"/><path d="m332.09,91.69c-9.88,1.45-19.46-4.88-24.57-15.12" style="fill:none; stroke:#6f7070; stroke-miterlimit:10;"/><polygon points="312.95 75.59 304.11 69.76 303.48 80.33 312.95 75.59" style="fill:#6f7070; stroke-width:0px;"/><path d="m12.15,125.88v16.82h-2.7v-13.63l-3.41,1.1-.66-2.37,5.84-1.91h.94Z" style="fill:#bad567; stroke-width:0px;"/><path d="m22.67,125.6c1.09,0,2.03.22,2.84.65.81.43,1.47,1.03,2,1.8.53.76.92,1.67,1.17,2.7.25,1.04.38,2.17.38,3.39s-.13,2.34-.38,3.41-.64,2.01-1.16,2.82c-.52.81-1.18,1.44-1.99,1.91-.81.47-1.76.7-2.87.7s-2.09-.23-2.89-.7c-.81-.47-1.47-1.1-1.99-1.91-.52-.81-.9-1.75-1.16-2.82-.25-1.07-.38-2.21-.38-3.41s.13-2.35.38-3.39c.25-1.04.65-1.94,1.18-2.7s1.2-1.36,2-1.8c.8-.43,1.75-.65,2.85-.65Zm0,2.47c-.65,0-1.2.14-1.66.43-.46.29-.83.7-1.12,1.22-.29.53-.5,1.16-.64,1.91-.14.75-.2,1.59-.2,2.52s.07,1.81.2,2.59c.14.77.35,1.44.64,2,.29.56.66.99,1.12,1.3.46.31,1.01.46,1.66.46s1.19-.15,1.64-.46.82-.74,1.11-1.3c.29-.56.5-1.23.64-2,.14-.77.2-1.63.2-2.59s-.07-1.78-.2-2.52c-.14-.75-.35-1.38-.64-1.91-.29-.53-.66-.93-1.11-1.22-.45-.29-1-.43-1.64-.43Z" style="fill:#bad567; stroke-width:0px;"/><path d="m38.6,125.6c1.09,0,2.03.22,2.84.65.81.43,1.47,1.03,2,1.8.53.76.92,1.67,1.17,2.7.25,1.04.38,2.17.38,3.39s-.13,2.34-.38,3.41-.64,2.01-1.16,2.82c-.52.81-1.18,1.44-1.99,1.91-.81.47-1.76.7-2.87.7s-2.09-.23-2.89-.7c-.81-.47-1.47-1.1-1.99-1.91-.52-.81-.9-1.75-1.16-2.82-.25-1.07-.38-2.21-.38-3.41s.13-2.35.38-3.39c.25-1.04.65-1.94,1.18-2.7s1.2-1.36,2-1.8c.8-.43,1.75-.65,2.85-.65Zm0,2.47c-.65,0-1.2.14-1.66.43-.46.29-.83.7-1.12,1.22-.29.53-.5,1.16-.64,1.91-.14.75-.2,1.59-.2,2.52s.07,1.81.2,2.59c.14.77.35,1.44.64,2,.29.56.66.99,1.12,1.3.46.31,1.01.46,1.66.46s1.19-.15,1.64-.46.82-.74,1.11-1.3c.29-.56.5-1.23.64-2,.14-.77.2-1.63.2-2.59s-.07-1.78-.2-2.52c-.14-.75-.35-1.38-.64-1.91-.29-.53-.66-.93-1.11-1.22-.45-.29-1-.43-1.64-.43Z" style="fill:#bad567; stroke-width:0px;"/><path d="m53.5,130.06c.33,0,.61.12.86.35.24.23.37.51.37.84s-.12.61-.37.83c-.24.23-.53.34-.86.34s-.63-.11-.87-.34-.36-.5-.36-.83.12-.61.36-.84c.24-.23.53-.35.87-.35Zm.9,12.64h-1.8v-8.34h1.8v8.34Z" style="fill:#bad567; stroke-width:0px;"/><path d="m61.14,134.17c.49,0,.93.08,1.32.25s.72.39.99.68c.27.29.47.64.61,1.04s.21.86.21,1.34v5.22h-1.8v-4.98c0-.58-.16-1.04-.49-1.4-.33-.36-.77-.54-1.32-.54s-1.01.18-1.36.54c-.36.36-.53.82-.53,1.4v4.98h-1.8v-8.34h1.68v.83c.29-.32.65-.57,1.07-.75.42-.18.9-.27,1.43-.27Z" style="fill:#bad567; stroke-width:0px;"/><path d="m70.4,141.27c.16,0,.33,0,.5-.03.18-.02.38-.04.6-.06v1.51c-.23.06-.46.1-.7.14-.24.03-.5.05-.78.05-.93,0-1.67-.23-2.23-.7-.56-.46-.84-1.2-.84-2.21v-4.08h-1.36v-1.55h1.36v-2.19h1.8v2.19h2.48v1.55h-2.48v3.92c0,.56.14.93.43,1.14.29.2.69.31,1.21.31Z" style="fill:#bad567; stroke-width:0px;"/><path d="m80.97,137.99c0,.23-.02.44-.05.65-.04.2-.06.36-.09.48h-6.22c.12.69.43,1.23.91,1.61.48.39,1.08.58,1.81.58.49,0,.93-.09,1.32-.26.39-.18.76-.42,1.11-.72l.85,1.22c-.44.42-.94.75-1.49.99s-1.17.36-1.84.36-1.24-.11-1.79-.33c-.55-.22-1.02-.53-1.42-.92-.4-.39-.71-.85-.93-1.38s-.34-1.1-.34-1.72.11-1.18.33-1.72c.22-.53.53-.99.92-1.38.39-.39.85-.7,1.37-.93.52-.23,1.09-.34,1.7-.34.55,0,1.07.1,1.54.29.47.19.88.46,1.22.8s.61.75.81,1.21c.19.47.29.98.29,1.52Zm-3.94-2.31c-.6,0-1.12.18-1.55.55-.43.37-.71.86-.85,1.49h4.54c0-.32-.06-.6-.18-.86-.12-.25-.28-.47-.47-.65-.19-.18-.42-.31-.68-.4-.26-.09-.53-.14-.81-.14Z" style="fill:#bad567; stroke-width:0px;"/><path d="m87.1,134.27c.15,0,.27,0,.38.03.11.02.21.04.3.06v1.58h-.54c-.33,0-.64.05-.94.14-.3.1-.56.24-.78.43-.22.19-.4.43-.53.72-.13.29-.2.63-.2,1.01v4.45h-1.8v-8.34h1.68v1.09c.29-.38.65-.68,1.08-.88s.88-.3,1.35-.3Z" style="fill:#bad567; stroke-width:0px;"/><path d="m92.13,134.17c.61,0,1.16.11,1.64.33.48.22.9.54,1.25.96l-.97,1.1c-.54-.57-1.19-.85-1.95-.85-.33,0-.6.06-.82.2-.22.13-.32.33-.32.6,0,.23.09.41.26.54.17.14.46.28.84.44l.8.32c.76.31,1.33.65,1.71,1.03.38.38.57.88.57,1.49,0,.42-.08.79-.25,1.1-.17.32-.39.58-.67.8-.28.21-.61.38-.99.48-.37.11-.77.16-1.19.16-.75,0-1.41-.15-1.97-.45-.57-.3-1.03-.69-1.39-1.16l1.02-1.12c.33.35.68.64,1.06.86s.81.33,1.28.33c.36,0,.68-.08.94-.23.27-.15.4-.39.4-.71,0-.27-.11-.48-.33-.61-.22-.14-.5-.28-.84-.42l-.85-.36c-.34-.14-.64-.28-.91-.43-.27-.15-.49-.33-.68-.52-.19-.19-.33-.41-.43-.65-.1-.24-.15-.52-.15-.83,0-.38.08-.73.23-1.03.15-.3.36-.55.62-.76.26-.2.57-.36.93-.47.36-.11.75-.16,1.16-.16Z" style="fill:#bad567; stroke-width:0px;"/><path d="m104.77,137.99c0,.23-.02.44-.05.65-.03.2-.06.36-.08.48h-6.22c.12.69.43,1.23.91,1.61.48.39,1.08.58,1.81.58.49,0,.93-.09,1.32-.26.39-.18.76-.42,1.11-.72l.85,1.22c-.44.42-.94.75-1.5.99s-1.17.36-1.83.36-1.24-.11-1.79-.33c-.55-.22-1.02-.53-1.42-.92-.4-.39-.71-.85-.93-1.38s-.34-1.1-.34-1.72.11-1.18.33-1.72c.22-.53.53-.99.92-1.38.39-.39.85-.7,1.37-.93.52-.23,1.09-.34,1.7-.34.55,0,1.07.1,1.54.29.47.19.88.46,1.22.8s.61.75.81,1.21c.19.47.29.98.29,1.52Zm-3.94-2.31c-.6,0-1.12.18-1.55.55s-.71.86-.85,1.49h4.54c0-.32-.06-.6-.18-.86-.12-.25-.28-.47-.47-.65-.19-.18-.42-.31-.68-.4-.26-.09-.53-.14-.82-.14Z" style="fill:#bad567; stroke-width:0px;"/><path d="m110.65,134.17c.79,0,1.49.18,2.08.53s1.07.82,1.44,1.41l-1.26.99c-.27-.38-.59-.69-.94-.93-.36-.23-.79-.35-1.3-.35-.38,0-.74.07-1.05.21-.32.14-.59.33-.82.58-.23.24-.41.53-.54.86-.13.33-.2.68-.2,1.05s.07.74.2,1.08c.13.33.31.62.54.87.23.24.51.43.82.57.32.14.67.2,1.05.2.5,0,.93-.11,1.28-.34.36-.23.68-.53.96-.92l1.26.97c-.36.59-.84,1.06-1.44,1.41s-1.29.53-2.07.53c-.61,0-1.19-.11-1.72-.34s-1.01-.54-1.41-.93c-.4-.39-.71-.85-.93-1.38-.22-.53-.34-1.1-.34-1.72s.11-1.18.34-1.71c.22-.53.54-.99.93-1.38.4-.39.87-.7,1.41-.93s1.11-.34,1.72-.34Z" style="fill:#bad567; stroke-width:0px;"/><path d="m120.13,141.27c.16,0,.33,0,.5-.03.17-.02.38-.04.6-.06v1.51c-.23.06-.46.1-.7.14-.24.03-.5.05-.78.05-.93,0-1.67-.23-2.23-.7-.56-.46-.84-1.2-.84-2.21v-4.08h-1.36v-1.55h1.36v-2.19h1.8v2.19h2.48v1.55h-2.48v3.92c0,.56.14.93.43,1.14.29.2.69.31,1.21.31Z" style="fill:#bad567; stroke-width:0px;"/><path d="m123.87,130.06c.33,0,.61.12.86.35.24.23.37.51.37.84s-.12.61-.37.83c-.24.23-.53.34-.86.34s-.63-.11-.87-.34-.36-.5-.36-.83.12-.61.36-.84c.24-.23.53-.35.87-.35Zm.9,12.64h-1.8v-8.34h1.8v8.34Z" style="fill:#bad567; stroke-width:0px;"/><path d="m131.12,134.17c.61,0,1.19.11,1.72.34.54.23,1.01.54,1.41.93.4.39.72.85.95,1.38.23.53.35,1.1.35,1.71s-.12,1.18-.35,1.72c-.23.53-.55,1-.95,1.39-.4.4-.87.71-1.41.93-.54.22-1.11.33-1.72.33s-1.18-.11-1.72-.34c-.53-.23-1-.54-1.4-.93-.4-.39-.72-.85-.94-1.38s-.34-1.1-.34-1.72.11-1.18.34-1.71c.23-.53.54-.99.93-1.38.4-.39.86-.7,1.4-.93s1.11-.34,1.72-.34Zm0,1.65c-.38,0-.72.07-1.05.21s-.6.33-.83.58c-.23.24-.41.53-.54.86-.13.33-.2.69-.2,1.08s.07.74.2,1.07c.13.33.31.61.54.85.23.24.5.43.82.57s.67.2,1.04.2.72-.07,1.04-.2c.32-.14.59-.32.83-.57.23-.24.42-.53.55-.85.13-.33.2-.68.2-1.07s-.07-.74-.2-1.08c-.13-.33-.31-.62-.55-.87-.23-.25-.51-.44-.83-.58-.32-.14-.66-.2-1.02-.2Z" style="fill:#bad567; stroke-width:0px;"/><path d="m141.76,134.17c.49,0,.93.08,1.32.25.39.16.72.39.99.68.27.29.47.64.61,1.04s.21.86.21,1.34v5.22h-1.8v-4.98c0-.58-.16-1.04-.49-1.4-.33-.36-.77-.54-1.32-.54s-1.01.18-1.36.54c-.36.36-.53.82-.53,1.4v4.98h-1.8v-8.34h1.68v.83c.29-.32.65-.57,1.07-.75.42-.18.9-.27,1.43-.27Z" style="fill:#bad567; stroke-width:0px;"/><path d="m149.98,134.17c.61,0,1.16.11,1.64.33.48.22.9.54,1.25.96l-.97,1.1c-.54-.57-1.19-.85-1.95-.85-.33,0-.6.06-.82.2-.22.13-.32.33-.32.6,0,.23.09.41.26.54.17.14.46.28.84.44l.8.32c.76.31,1.33.65,1.71,1.03.38.38.57.88.57,1.49,0,.42-.08.79-.25,1.1-.17.32-.39.58-.67.8-.28.21-.61.38-.99.48-.37.11-.77.16-1.19.16-.75,0-1.41-.15-1.97-.45-.57-.3-1.03-.69-1.39-1.16l1.02-1.12c.33.35.68.64,1.06.86s.81.33,1.28.33c.36,0,.68-.08.94-.23.27-.15.4-.39.4-.71,0-.27-.11-.48-.33-.61-.22-.14-.5-.28-.84-.42l-.85-.36c-.34-.14-.64-.28-.91-.43-.27-.15-.49-.33-.68-.52-.19-.19-.33-.41-.43-.65-.1-.24-.15-.52-.15-.83,0-.38.08-.73.23-1.03.15-.3.36-.55.62-.76.26-.2.57-.36.93-.47.36-.11.75-.16,1.16-.16Z" style="fill:#bad567; stroke-width:0px;"/><path d="m164.38,134.17c.59,0,1.13.11,1.64.33.5.22.93.53,1.3.92.36.39.64.85.85,1.38s.31,1.1.31,1.72-.1,1.2-.31,1.73c-.2.53-.49.99-.85,1.38-.36.39-.79.7-1.3.92-.5.22-1.05.33-1.64.33s-1.09-.1-1.57-.31-.88-.5-1.21-.89v4.07h-1.8v-11.4h1.68v1.2c.3-.44.71-.78,1.22-1.02.51-.25,1.07-.37,1.68-.37Zm-.29,7.07c.35,0,.68-.06.99-.19.31-.13.58-.31.81-.55.23-.24.41-.52.54-.85s.2-.7.2-1.11-.07-.77-.2-1.11-.31-.62-.53-.85c-.23-.24-.49-.42-.8-.56-.31-.13-.65-.2-1.01-.2-.3,0-.61.05-.91.16-.3.11-.57.27-.8.49-.24.22-.43.5-.58.84-.15.34-.22.74-.22,1.22s.07.88.21,1.22c.14.34.33.62.57.84.24.23.51.39.8.5.3.11.61.16.92.16Z" style="fill:#bad567; stroke-width:0px;"/><path d="m178.18,137.99c0,.23-.02.44-.05.65-.03.2-.06.36-.08.48h-6.22c.12.69.43,1.23.91,1.61.48.39,1.08.58,1.81.58.49,0,.93-.09,1.32-.26.39-.18.76-.42,1.11-.72l.85,1.22c-.44.42-.94.75-1.5.99s-1.17.36-1.83.36-1.24-.11-1.79-.33c-.55-.22-1.02-.53-1.42-.92-.4-.39-.71-.85-.93-1.38s-.34-1.1-.34-1.72.11-1.18.33-1.72c.22-.53.53-.99.92-1.38.39-.39.85-.7,1.37-.93.52-.23,1.09-.34,1.7-.34.55,0,1.07.1,1.54.29.47.19.88.46,1.22.8s.61.75.81,1.21c.19.47.29.98.29,1.52Zm-3.94-2.31c-.6,0-1.12.18-1.55.55s-.71.86-.85,1.49h4.54c0-.32-.06-.6-.18-.86-.12-.25-.28-.47-.47-.65-.19-.18-.42-.31-.68-.4-.26-.09-.53-.14-.82-.14Z" style="fill:#bad567; stroke-width:0px;"/><path d="m184.31,134.27c.15,0,.27,0,.38.03.11.02.21.04.3.06v1.58h-.54c-.33,0-.64.05-.94.14-.3.1-.56.24-.78.43-.22.19-.4.43-.53.72-.13.29-.2.63-.2,1.01v4.45h-1.8v-8.34h1.68v1.09c.29-.38.65-.68,1.08-.88s.88-.3,1.35-.3Z" style="fill:#bad567; stroke-width:0px;"/><path d="m191.33,129.95h1.8v12.74h-1.8v-12.74Zm7.59,12.74h-2.14l-3.62-4.69,3.26-3.65h2.21l-3.36,3.67,3.65,4.67Z" style="fill:#bad567; stroke-width:0px;"/><path d="m209.89,134.17c.49,0,.92.08,1.31.25.38.16.71.39.97.68.27.29.47.64.6,1.04s.2.86.2,1.34v5.22h-1.8v-4.96c0-.58-.15-1.04-.46-1.4-.3-.36-.73-.54-1.27-.54s-.98.18-1.32.53c-.34.35-.51.79-.51,1.33v5.05h-1.8v-4.96c0-.58-.16-1.04-.47-1.4-.31-.36-.74-.54-1.28-.54s-.98.18-1.32.54c-.34.36-.51.82-.51,1.4v4.96h-1.8v-8.34h1.68v.8c.28-.31.63-.55,1.04-.72.41-.18.87-.26,1.38-.26.6,0,1.11.12,1.53.35.42.23.75.55,1,.96.29-.38.68-.7,1.16-.94.48-.24,1.03-.37,1.65-.37Z" style="fill:#bad567; stroke-width:0px;"/><path d="m219.89,135.24v1.27h-5.15v-.31l2.51-2.72c.33-.36.58-.68.74-.95s.25-.55.25-.85-.09-.56-.27-.76c-.18-.2-.42-.31-.71-.31s-.55.1-.73.31c-.18.2-.28.47-.28.8,0,.08,0,.16,0,.25,0,.08.01.18.03.28h-1.41c-.02-.1-.04-.21-.05-.31-.01-.11-.02-.21-.02-.3,0-.28.06-.56.17-.84s.27-.52.48-.74c.21-.22.47-.39.77-.52.31-.13.65-.19,1.02-.19.35,0,.67.06.97.17.29.11.55.27.76.47.21.2.38.44.51.71.12.28.19.57.19.89,0,.53-.14,1.01-.43,1.44-.29.43-.65.86-1.08,1.3l-.88.91h2.6Z" style="fill:#bad567; stroke-width:0px;"/><polyline points="233.14 122.32 235.55 118.54 238.6 114.76 241.01 111.55 244.05 107.77 246.46 104.55 249.5 100.77 251.91 97.5 254.96 94.28 257.37 91.57 260.41 88.36 262.88 85.65 265.86 82.94 268.34 80.8 271.32 78.66 273.79 76.51 276.77 74.31 279.24 72.73 282.22 71.1 284.7 69.46 287.68 67.88 290.15 66.24 293.19 65.17 295.6 63.54 298.65 61.96 301.06 60.89 304.1 59.25 306.51 58.18 309.55 57.11 311.96 55.47 315.01 54.4 317.42 52.76 320.46 51.69 322.87 50.62 325.91 49.55 328.32 48.47 331.36 47.4 333.78 46.27 336.82 45.2 339.23 44.13 342.27 43.62 344.68 42.55 347.73 41.99 350.14 41.42 353.18 40.91 355.59 39.84 358.63 39.84 361.04 39.28 364.08 38.77 366.49 38.21 369.54 38.21 371.95 37.7 374.99 37.7 377.4 37.13 382.85 37.13 385.9 36.57 399.28 36.57 402.26 37.13 407.71 37.13 410.18 37.7 413.23 37.7 415.64 38.21 418.68 38.77 421.09 39.28 424.13 39.84 426.54 40.35 429.59 40.91 432 41.42 435.04 41.99 437.45 42.55 440.49 43.62 442.9 44.13 445.95 45.2 448.36 45.77 451.4 46.84 453.81 47.91 456.85 48.47 459.26 49.55 462.31 50.62 464.72 51.69 467.76 52.26 470.17 53.33 473.21 54.4 475.62 55.47 478.67 56.54 481.08 57.61 484.12 58.69 486.53 59.76 489.57 60.89 491.98 61.96 495.03 63.54 497.44 64.61 500.48 65.74 502.89 66.81" style="fill:none; stroke:#584c9f; stroke-linecap:round; stroke-miterlimit:10; stroke-width:2px;"/><polyline points="239.53 121.25 241.94 118.03 244.98 115.33 247.38 112.11 250.42 109.4 252.82 106.13 255.86 103.48 258.26 100.77 261.3 97.5 263.77 94.85 266.74 92.14 269.21 89.43 272.18 86.72 274.65 84.07 277.62 81.87 280.09 79.22 283.06 77.02 285.53 74.31 288.57 72.17 290.97 70.03 294.01 67.88 296.41 65.74 299.45 63.54 301.85 61.39 304.89 59.76 307.3 58.18 310.33 56.54 312.74 54.91 315.77 53.33 318.18 52.25 321.21 51.18 323.62 50.05 326.66 48.98 329.06 47.91 332.1 47.4 334.5 46.27 337.54 45.77 339.94 44.7 342.98 44.13 345.38 43.62 348.42 43.06 350.83 41.99 353.86 41.42 356.27 41.42 359.3 40.92 361.71 40.35 364.74 39.84 370.19 39.84 372.59 39.28 383.54 39.28 386.51 39.84 388.98 39.84 391.95 40.35 394.42 40.92 397.39 40.92 399.86 41.42 402.83 41.99 405.3 43.06 408.27 43.62 410.74 44.13 413.78 45.2 416.18 45.77 419.22 46.84 421.62 47.4 424.66 48.48 427.06 49.55 430.1 50.62 432.51 51.69 435.54 52.76 437.95 53.83 440.98 55.47 443.39 56.54 446.43 57.61 448.83 59.25 451.87 60.32 454.27 61.96 457.31 63.03 459.71 64.61 462.75 65.74 465.15 67.32 468.19 68.95 470.59 70.59 473.63 72.17 476.04 73.8 479.07 75.44 481.48 77.02 484.51 78.66 486.92 80.29 489.95 81.87 492.36 83.51 495.4 85.14 497.8 87.29 500.84 88.92 503.24 90.5 506.28 92.65 508.75 94.28" style="fill:none; stroke:#bad567; stroke-linecap:round; stroke-miterlimit:10; stroke-width:2px;"/><path d="m305.16,61.39c0,2.93-2.38,5.31-5.31,5.31s-5.31-2.38-5.31-5.31,2.38-5.31,5.31-5.31,5.31,2.38,5.31,5.31" style="fill:#e78c59; stroke-width:0px;"/><circle cx="299.85" cy="61.39" r="5.31" style="fill:none; stroke:#fff; stroke-miterlimit:10;"/><path d="m541.3,283.55c.72,0,1.36.14,1.89.43.54.29.98.69,1.33,1.2.35.51.61,1.11.78,1.8.17.69.25,1.44.25,2.26s-.08,1.56-.25,2.28c-.17.71-.43,1.34-.77,1.88-.35.54-.79.96-1.33,1.27-.54.31-1.18.47-1.91.47s-1.39-.16-1.93-.47-.98-.74-1.33-1.27c-.35-.54-.6-1.16-.77-1.88-.17-.71-.25-1.47-.25-2.28s.08-1.57.25-2.26c.17-.69.43-1.29.79-1.8.36-.51.8-.91,1.33-1.2.53-.29,1.17-.43,1.9-.43Zm0,1.65c-.43,0-.8.1-1.1.29-.31.19-.56.46-.75.82s-.33.78-.42,1.27c-.09.5-.14,1.06-.14,1.68s.04,1.21.14,1.72c.09.52.23.96.42,1.33.19.37.44.66.75.87.31.2.67.31,1.1.31s.79-.1,1.1-.31c.3-.2.55-.49.74-.87.19-.37.33-.82.42-1.33.09-.52.14-1.09.14-1.72s-.05-1.18-.14-1.68c-.09-.5-.23-.92-.42-1.27-.19-.35-.44-.62-.74-.82-.3-.19-.67-.29-1.1-.29Z" style="fill:#827a77; stroke-width:0px;"/><path d="m550.23,283.55c.39,0,.75.07,1.1.21s.65.33.91.58c.26.24.47.54.61.88.15.34.22.7.22,1.09s-.07.76-.22,1.1c-.15.34-.35.63-.61.88-.26.24-.56.44-.91.58-.35.14-.71.21-1.1.21s-.77-.07-1.12-.21c-.35-.14-.65-.33-.9-.58-.26-.24-.46-.54-.61-.88s-.22-.71-.22-1.1.07-.75.22-1.09.35-.63.61-.88c.25-.24.56-.44.9-.58.35-.14.72-.21,1.12-.21Zm0,1.27c-.42,0-.75.14-1.01.42-.26.28-.39.64-.39,1.06s.13.78.39,1.06c.26.28.6.42,1.01.42s.74-.14,1-.42c.26-.28.4-.64.4-1.06s-.13-.78-.4-1.06c-.26-.28-.6-.42-1-.42Zm.87,10.13h-1.49l6.42-11.21h1.51s-6.44,11.21-6.44,11.21Zm5.81-5.35c.38,0,.75.07,1.1.21.35.14.65.33.91.58s.46.54.61.88c.15.34.23.71.23,1.1s-.08.76-.23,1.1c-.15.33-.36.62-.61.87s-.56.44-.91.58c-.35.14-.72.21-1.1.21s-.76-.07-1.1-.21c-.34-.14-.64-.33-.89-.58s-.46-.53-.6-.87c-.15-.33-.22-.7-.22-1.1s.07-.76.22-1.1c.15-.34.35-.63.6-.88s.55-.44.89-.58c.34-.14.71-.21,1.1-.21Zm.03,1.27c-.42,0-.75.14-1.01.42-.26.28-.39.64-.39,1.07s.13.78.39,1.06c.26.28.6.42,1.01.42.39,0,.72-.14.99-.42.26-.28.4-.63.4-1.06s-.13-.79-.4-1.07c-.26-.28-.59-.42-.99-.42Z" style="fill:#827a77; stroke-width:0px;"/><path d="m535.08,233.04v1.56h-8.04v-.41l3.99-4.3c.57-.61,1-1.15,1.32-1.61s.47-.95.47-1.46c0-.54-.17-1.01-.49-1.39-.33-.38-.79-.58-1.38-.58-.29,0-.56.05-.79.16-.23.11-.43.25-.59.44-.16.19-.29.4-.38.65-.09.24-.14.51-.14.79,0,.11,0,.25.03.4.02.15.04.31.06.47h-1.82c-.05-.16-.08-.33-.09-.5-.02-.18-.03-.33-.03-.47,0-.44.08-.88.25-1.31.17-.43.42-.82.74-1.16.32-.34.72-.61,1.19-.82.47-.2,1-.31,1.59-.31.54,0,1.04.09,1.5.26.45.18.84.42,1.17.73.33.31.59.68.77,1.1.19.42.28.89.28,1.38,0,.41-.06.8-.19,1.16-.12.37-.29.73-.51,1.07-.22.35-.47.69-.76,1.02s-.6.67-.93,1.01l-1.97,2.09h4.74Z" style="fill:#827a77; stroke-width:0px;"/><path d="m541.3,223.21c.72,0,1.36.14,1.89.43.54.29.98.69,1.33,1.2.35.51.61,1.11.78,1.8.17.69.25,1.44.25,2.26s-.08,1.56-.25,2.28c-.17.71-.43,1.34-.77,1.88-.35.54-.79.96-1.33,1.27-.54.31-1.18.47-1.91.47s-1.39-.16-1.93-.47-.98-.74-1.33-1.27c-.35-.54-.6-1.16-.77-1.88-.17-.71-.25-1.47-.25-2.28s.08-1.57.25-2.26c.17-.69.43-1.29.79-1.8.36-.51.8-.91,1.33-1.2.53-.29,1.17-.43,1.9-.43Zm0,1.65c-.43,0-.8.1-1.1.29-.31.19-.56.46-.75.82s-.33.78-.42,1.27c-.09.5-.14,1.06-.14,1.68s.04,1.21.14,1.72c.09.52.23.96.42,1.33.19.37.44.66.75.87.31.2.67.31,1.1.31s.79-.1,1.1-.31c.3-.2.55-.49.74-.87.19-.37.33-.82.42-1.33.09-.52.14-1.09.14-1.72s-.05-1.18-.14-1.68c-.09-.5-.23-.92-.42-1.27-.19-.35-.44-.62-.74-.82-.3-.19-.67-.29-1.1-.29Z" style="fill:#827a77; stroke-width:0px;"/><path d="m550.23,223.21c.39,0,.75.07,1.1.21s.65.33.91.58c.26.24.47.54.61.88.15.34.22.7.22,1.09s-.07.76-.22,1.1c-.15.34-.35.63-.61.88-.26.24-.56.44-.91.58-.35.14-.71.21-1.1.21s-.77-.07-1.12-.21c-.35-.14-.65-.33-.9-.58-.26-.24-.46-.54-.61-.88s-.22-.71-.22-1.1.07-.75.22-1.09.35-.63.61-.88c.25-.24.56-.44.9-.58.35-.14.72-.21,1.12-.21Zm0,1.27c-.42,0-.75.14-1.01.42-.26.28-.39.64-.39,1.06s.13.78.39,1.06c.26.28.6.42,1.01.42s.74-.14,1-.42c.26-.28.4-.64.4-1.06s-.13-.78-.4-1.06c-.26-.28-.6-.42-1-.42Zm.87,10.13h-1.49l6.42-11.21h1.51s-6.44,11.21-6.44,11.21Zm5.81-5.35c.38,0,.75.07,1.1.21.35.14.65.33.91.58s.46.54.61.88c.15.34.23.71.23,1.1s-.08.76-.23,1.1c-.15.33-.36.62-.61.87s-.56.44-.91.58c-.35.14-.72.21-1.1.21s-.76-.07-1.1-.21c-.34-.14-.64-.33-.89-.58s-.46-.53-.6-.87c-.15-.33-.22-.7-.22-1.1s.07-.76.22-1.1c.15-.34.35-.63.6-.88s.55-.44.89-.58c.34-.14.71-.21,1.1-.21Zm.03,1.27c-.42,0-.75.14-1.01.42-.26.28-.39.64-.39,1.07s.13.78.39,1.06c.26.28.6.42,1.01.42.39,0,.72-.14.99-.42.26-.28.4-.63.4-1.06s-.13-.79-.4-1.07c-.26-.28-.59-.42-.99-.42Z" style="fill:#827a77; stroke-width:0px;"/><path d="m535.68,171.67h-1.53v1.95h-1.8v-1.95h-5.61v-.49l3.58-8.77h1.85l-3.16,7.71h3.33v-3.45h1.8v3.45h1.53v1.55Z" style="fill:#827a77; stroke-width:0px;"/><path d="m541.3,162.22c.72,0,1.36.14,1.89.43.54.29.98.69,1.33,1.2.35.51.61,1.11.78,1.8.17.69.25,1.44.25,2.26s-.08,1.56-.25,2.28c-.17.71-.43,1.34-.77,1.88-.35.54-.79.96-1.33,1.27s-1.17.47-1.91.47-1.39-.16-1.93-.47-.98-.74-1.32-1.27c-.35-.54-.6-1.16-.77-1.88-.17-.71-.25-1.47-.25-2.28s.08-1.57.25-2.26c.17-.69.43-1.29.79-1.8s.8-.91,1.33-1.2c.53-.29,1.17-.43,1.9-.43Zm0,1.65c-.43,0-.8.1-1.1.29-.31.19-.55.46-.75.82-.19.35-.33.78-.42,1.27-.09.5-.14,1.06-.14,1.68s.04,1.21.14,1.72c.09.52.23.96.42,1.33.19.37.44.66.75.87.31.2.67.31,1.1.31s.8-.1,1.1-.31c.3-.2.55-.49.74-.87.19-.37.33-.82.42-1.33.09-.52.14-1.09.14-1.72s-.04-1.18-.14-1.68c-.09-.5-.23-.92-.42-1.27s-.44-.62-.74-.82c-.3-.19-.67-.29-1.1-.29Z" style="fill:#827a77; stroke-width:0px;"/><path d="m550.23,162.22c.39,0,.75.07,1.1.21s.65.33.91.58c.26.24.47.54.61.88.15.34.22.7.22,1.09s-.07.76-.22,1.1c-.15.34-.35.63-.61.88-.26.24-.56.44-.91.58-.35.14-.71.21-1.1.21s-.77-.07-1.12-.21c-.35-.14-.65-.33-.9-.58-.26-.24-.46-.54-.61-.88s-.22-.71-.22-1.1.07-.75.22-1.09.35-.63.61-.88c.25-.24.56-.44.9-.58.35-.14.72-.21,1.12-.21Zm0,1.27c-.42,0-.75.14-1.01.42-.26.28-.39.64-.39,1.06s.13.78.39,1.06c.26.28.6.42,1.01.42s.74-.14,1-.42c.26-.28.4-.64.4-1.06s-.13-.78-.4-1.06c-.26-.28-.6-.42-1-.42Zm.87,10.13h-1.49l6.42-11.21h1.51s-6.44,11.21-6.44,11.21Zm5.81-5.35c.38,0,.75.07,1.1.21.35.14.65.33.91.58s.46.54.61.88c.15.34.23.71.23,1.1s-.08.76-.23,1.1c-.15.33-.36.62-.61.87s-.56.44-.91.58c-.35.14-.72.21-1.1.21s-.76-.07-1.1-.21c-.34-.14-.64-.33-.89-.58s-.46-.53-.6-.87c-.15-.33-.22-.7-.22-1.1s.07-.76.22-1.1c.15-.34.35-.63.6-.88s.55-.44.89-.58c.34-.14.71-.21,1.1-.21Zm.03,1.27c-.42,0-.75.14-1.01.42-.26.28-.39.64-.39,1.07s.13.78.39,1.06c.26.28.6.42,1.01.42.39,0,.72-.14.99-.42.26-.28.4-.63.4-1.06s-.13-.79-.4-1.07c-.26-.28-.59-.42-.99-.42Z" style="fill:#827a77; stroke-width:0px;"/><path d="m532.66,61.27c.33.12.64.27.93.45s.55.38.77.62c.22.24.4.51.53.81.13.3.2.64.2,1.03,0,.48-.1.9-.3,1.28-.2.38-.47.71-.83.98-.36.27-.78.48-1.28.63-.5.15-1.05.22-1.64.22s-1.15-.07-1.65-.22c-.5-.15-.94-.36-1.3-.63s-.64-.6-.84-.98c-.2-.38-.3-.81-.3-1.28,0-.37.06-.71.19-1s.29-.56.51-.8.47-.45.77-.63c.3-.18.62-.34.96-.48-.59-.31-1.05-.67-1.39-1.1-.34-.43-.51-.96-.51-1.6,0-.46.09-.88.28-1.23.19-.36.44-.66.76-.9.32-.24.7-.43,1.13-.55s.89-.19,1.39-.19.95.06,1.38.19.8.31,1.12.55.57.54.76.9c.19.36.28.77.28,1.23,0,.61-.17,1.14-.5,1.58-.33.44-.8.82-1.42,1.12Zm-1.63,4.52c.75,0,1.31-.16,1.69-.47.38-.31.56-.72.56-1.21,0-.27-.06-.51-.17-.72-.11-.21-.27-.39-.48-.55-.21-.16-.45-.3-.73-.42-.28-.12-.58-.24-.89-.36-.33.11-.63.23-.9.36s-.51.27-.72.43c-.21.16-.36.35-.48.55-.11.2-.17.44-.17.71,0,.5.19.9.58,1.21s.96.47,1.71.47Zm0-8.61c-.53,0-.97.12-1.33.37-.35.25-.53.61-.53,1.09,0,.44.16.79.49,1.05.33.26.78.52,1.34.76.55-.24,1-.49,1.33-.76s.5-.62.5-1.06c0-.48-.18-.84-.53-1.09-.35-.25-.78-.37-1.29-.37Z" style="fill:#827a77; stroke-width:0px;"/><path d="m541.3,55.7c.72,0,1.36.14,1.89.43.54.29.98.69,1.33,1.2.35.51.61,1.11.78,1.8.17.69.25,1.44.25,2.26s-.08,1.56-.25,2.28c-.17.71-.43,1.34-.77,1.88-.35.54-.79.96-1.33,1.27-.54.31-1.18.47-1.91.47s-1.39-.16-1.93-.47-.98-.74-1.33-1.27c-.35-.54-.6-1.16-.77-1.88-.17-.71-.25-1.47-.25-2.28s.08-1.57.25-2.26c.17-.69.43-1.29.79-1.8.36-.51.8-.91,1.33-1.2.53-.29,1.17-.43,1.9-.43Zm0,1.65c-.43,0-.8.1-1.1.29-.31.19-.56.46-.75.82s-.33.78-.42,1.27c-.09.5-.14,1.06-.14,1.68s.04,1.21.14,1.72c.09.52.23.96.42,1.33.19.37.44.66.75.87.31.2.67.31,1.1.31s.79-.1,1.1-.31c.3-.2.55-.49.74-.87.19-.37.33-.82.42-1.33.09-.52.14-1.09.14-1.72s-.05-1.18-.14-1.68c-.09-.5-.23-.92-.42-1.27-.19-.35-.44-.62-.74-.82-.3-.19-.67-.29-1.1-.29Z" style="fill:#827a77; stroke-width:0px;"/><path d="m550.23,55.7c.39,0,.75.07,1.1.21s.65.33.91.58c.26.24.47.54.61.88.15.34.22.7.22,1.09s-.07.76-.22,1.1c-.15.34-.35.63-.61.88-.26.24-.56.44-.91.58-.35.14-.71.21-1.1.21s-.77-.07-1.12-.21c-.35-.14-.65-.33-.9-.58-.26-.24-.46-.54-.61-.88s-.22-.71-.22-1.1.07-.75.22-1.09.35-.63.61-.88c.25-.24.56-.44.9-.58.35-.14.72-.21,1.12-.21Zm0,1.27c-.42,0-.75.14-1.01.42-.26.28-.39.64-.39,1.06s.13.78.39,1.06c.26.28.6.42,1.01.42s.74-.14,1-.42c.26-.28.4-.64.4-1.06s-.13-.78-.4-1.06c-.26-.28-.6-.42-1-.42Zm.87,10.13h-1.49l6.42-11.21h1.51s-6.44,11.21-6.44,11.21Zm5.81-5.35c.38,0,.75.07,1.1.21.35.14.65.33.91.58s.46.54.61.88c.15.34.23.71.23,1.1s-.08.76-.23,1.1c-.15.33-.36.62-.61.87s-.56.44-.91.58c-.35.14-.72.21-1.1.21s-.76-.07-1.1-.21c-.34-.14-.64-.33-.89-.58s-.46-.53-.6-.87c-.15-.33-.22-.7-.22-1.1s.07-.76.22-1.1c.15-.34.35-.63.6-.88s.55-.44.89-.58c.34-.14.71-.21,1.1-.21Zm.03,1.27c-.42,0-.75.14-1.01.42-.26.28-.39.64-.39,1.07s.13.78.39,1.06c.26.28.6.42,1.01.42.39,0,.72-.14.99-.42.26-.28.4-.63.4-1.06s-.13-.79-.4-1.07c-.26-.28-.59-.42-.99-.42Z" style="fill:#827a77; stroke-width:0px;"/><path d="m523.66,2.89v11.21h-1.8V5.01l-2.28.73-.44-1.58,3.89-1.27h.63Z" style="fill:#827a77; stroke-width:0px;"/><path d="m530.68,2.7c.72,0,1.36.14,1.89.43.54.29.98.69,1.33,1.2.35.51.61,1.11.78,1.8.17.69.25,1.44.25,2.26s-.08,1.56-.25,2.28c-.17.71-.43,1.34-.77,1.88-.35.54-.79.96-1.33,1.27s-1.17.47-1.91.47-1.39-.16-1.93-.47-.98-.74-1.32-1.27c-.35-.54-.6-1.16-.77-1.88-.17-.71-.25-1.47-.25-2.28s.08-1.57.25-2.26c.17-.69.43-1.29.79-1.8s.8-.91,1.33-1.2c.53-.29,1.17-.43,1.9-.43Zm0,1.65c-.43,0-.8.1-1.1.29-.31.19-.55.46-.75.82-.19.35-.33.78-.42,1.27-.09.5-.14,1.06-.14,1.68s.04,1.21.14,1.72c.09.52.23.96.42,1.33.19.37.44.66.75.87.31.2.67.31,1.1.31s.8-.1,1.1-.31c.3-.2.55-.49.74-.87.19-.37.33-.82.42-1.33.09-.52.14-1.09.14-1.72s-.04-1.18-.14-1.68c-.09-.5-.23-.92-.42-1.27s-.44-.62-.74-.82c-.3-.19-.67-.29-1.1-.29Z" style="fill:#827a77; stroke-width:0px;"/><path d="m541.3,2.7c.72,0,1.36.14,1.89.43.54.29.98.69,1.33,1.2.35.51.61,1.11.78,1.8.17.69.25,1.44.25,2.26s-.08,1.56-.25,2.28c-.17.71-.43,1.34-.77,1.88-.35.54-.79.96-1.33,1.27s-1.17.47-1.91.47-1.39-.16-1.93-.47-.98-.74-1.32-1.27c-.35-.54-.6-1.16-.77-1.88-.17-.71-.25-1.47-.25-2.28s.08-1.57.25-2.26c.17-.69.43-1.29.79-1.8s.8-.91,1.33-1.2c.53-.29,1.17-.43,1.9-.43Zm0,1.65c-.43,0-.8.1-1.1.29-.31.19-.55.46-.75.82-.19.35-.33.78-.42,1.27-.09.5-.14,1.06-.14,1.68s.04,1.21.14,1.72c.09.52.23.96.42,1.33.19.37.44.66.75.87.31.2.67.31,1.1.31s.8-.1,1.1-.31c.3-.2.55-.49.74-.87.19-.37.33-.82.42-1.33.09-.52.14-1.09.14-1.72s-.04-1.18-.14-1.68c-.09-.5-.23-.92-.42-1.27s-.44-.62-.74-.82c-.3-.19-.67-.29-1.1-.29Z" style="fill:#827a77; stroke-width:0px;"/><path d="m550.23,2.7c.39,0,.75.07,1.1.21s.65.33.91.58c.26.24.47.54.61.88.15.34.22.7.22,1.09s-.07.76-.22,1.1c-.15.34-.35.63-.61.88-.26.24-.56.44-.91.58-.35.14-.71.21-1.1.21s-.77-.07-1.12-.21c-.35-.14-.65-.33-.9-.58-.26-.24-.46-.54-.61-.88s-.22-.71-.22-1.1.07-.75.22-1.09.35-.63.61-.88c.25-.24.56-.44.9-.58.35-.14.72-.21,1.12-.21Zm0,1.27c-.42,0-.75.14-1.01.42-.26.28-.39.64-.39,1.06s.13.78.39,1.06c.26.28.6.42,1.01.42s.74-.14,1-.42c.26-.28.4-.64.4-1.06s-.13-.78-.4-1.06c-.26-.28-.6-.42-1-.42Zm.87,10.13h-1.49l6.42-11.21h1.51s-6.44,11.21-6.44,11.21Zm5.81-5.35c.38,0,.75.07,1.1.21.35.14.65.33.91.58s.46.54.61.88c.15.34.23.71.23,1.1s-.08.76-.23,1.1c-.15.33-.36.62-.61.87s-.56.44-.91.58c-.35.14-.72.21-1.1.21s-.76-.07-1.1-.21c-.34-.14-.64-.33-.89-.58s-.46-.53-.6-.87c-.15-.33-.22-.7-.22-1.1s.07-.76.22-1.1c.15-.34.35-.63.6-.88s.55-.44.89-.58c.34-.14.71-.21,1.1-.21Zm.03,1.27c-.42,0-.75.14-1.01.42-.26.28-.39.64-.39,1.07s.13.78.39,1.06c.26.28.6.42,1.01.42.39,0,.72-.14.99-.42.26-.28.4-.63.4-1.06s-.13-.79-.4-1.07c-.26-.28-.59-.42-.99-.42Z" style="fill:#827a77; stroke-width:0px;"/><path d="m530.77,113.75c.49,0,.95.09,1.4.28.44.19.83.45,1.17.78.34.33.61.73.82,1.19.2.46.31.96.31,1.5s-.11,1.07-.32,1.55-.5.89-.86,1.23c-.36.35-.79.61-1.27.81s-1,.29-1.54.29-1.06-.1-1.53-.29-.9-.46-1.26-.81c-.36-.35-.65-.76-.86-1.23-.21-.48-.32-1-.32-1.56,0-.34.04-.66.11-.95.07-.29.18-.58.31-.87s.3-.56.48-.84c.19-.28.39-.57.62-.89l2.8-3.96h2.12l-2.7,3.82c.15-.03.31-.05.49-.05Zm-.3,5.98c.31,0,.59-.06.86-.17.27-.11.5-.27.7-.47s.35-.43.47-.71.17-.57.17-.88-.06-.61-.17-.88c-.11-.27-.27-.51-.47-.71-.2-.2-.43-.35-.7-.47-.27-.11-.55-.17-.86-.17s-.59.06-.87.17c-.27.11-.5.27-.7.47-.19.2-.35.43-.46.71-.11.27-.17.57-.17.88s.06.61.17.88.27.51.46.71.42.35.7.47c.27.11.56.17.87.17Z" style="fill:#827a77; stroke-width:0px;"/><path d="m540.52,109.79c.72,0,1.36.14,1.89.43.54.29.98.69,1.33,1.2.35.51.61,1.11.78,1.8.17.69.25,1.44.25,2.26s-.08,1.56-.25,2.28c-.17.71-.43,1.34-.77,1.88-.35.54-.79.96-1.33,1.27-.54.31-1.18.47-1.91.47s-1.39-.16-1.93-.47-.98-.74-1.33-1.27c-.35-.54-.6-1.16-.77-1.88-.17-.71-.25-1.47-.25-2.28s.08-1.57.25-2.26c.17-.69.43-1.29.79-1.8.36-.51.8-.91,1.33-1.2.53-.29,1.17-.43,1.9-.43Zm0,1.65c-.43,0-.8.1-1.1.29-.31.19-.56.46-.75.82s-.33.78-.42,1.27c-.09.5-.14,1.06-.14,1.68s.04,1.21.14,1.72c.09.52.23.96.42,1.33.19.37.44.66.75.87.31.2.67.31,1.1.31s.79-.1,1.1-.31c.3-.2.55-.49.74-.87.19-.37.33-.82.42-1.33.09-.52.14-1.09.14-1.72s-.05-1.18-.14-1.68c-.09-.5-.23-.92-.42-1.27-.19-.35-.44-.62-.74-.82-.3-.19-.67-.29-1.1-.29Z" style="fill:#827a77; stroke-width:0px;"/><path d="m549.44,109.79c.39,0,.75.07,1.1.21s.65.33.91.58c.26.24.47.54.61.88.15.34.22.7.22,1.09s-.07.76-.22,1.1c-.15.34-.35.63-.61.88-.26.24-.56.44-.91.58-.35.14-.71.21-1.1.21s-.77-.07-1.12-.21c-.35-.14-.65-.33-.9-.58-.26-.24-.46-.54-.61-.88s-.22-.71-.22-1.1.07-.75.22-1.09.35-.63.61-.88c.25-.24.56-.44.9-.58.35-.14.72-.21,1.12-.21Zm0,1.27c-.42,0-.75.14-1.01.42-.26.28-.39.64-.39,1.06s.13.78.39,1.06c.26.28.6.42,1.01.42s.74-.14,1-.42c.26-.28.4-.64.4-1.06s-.13-.78-.4-1.06c-.26-.28-.6-.42-1-.42Zm.87,10.13h-1.49l6.42-11.21h1.51s-6.44,11.21-6.44,11.21Zm5.81-5.35c.38,0,.75.07,1.1.21.35.14.65.33.91.58s.46.54.61.88c.15.34.23.71.23,1.1s-.08.76-.23,1.1c-.15.33-.36.62-.61.87s-.56.44-.91.58c-.35.14-.72.21-1.1.21s-.76-.07-1.1-.21c-.34-.14-.64-.33-.89-.58s-.46-.53-.6-.87c-.15-.33-.22-.7-.22-1.1s.07-.76.22-1.1c.15-.34.35-.63.6-.88s.55-.44.89-.58c.34-.14.71-.21,1.1-.21Zm.03,1.27c-.42,0-.75.14-1.01.42-.26.28-.39.64-.39,1.07s.13.78.39,1.06c.26.28.6.42,1.01.42.39,0,.72-.14.99-.42.26-.28.4-.63.4-1.06s-.13-.79-.4-1.07c-.26-.28-.59-.42-.99-.42Z" style="fill:#827a77; stroke-width:0px;"/></svg>
