<?xml version="1.0" encoding="UTF-8"?><svg id="Layer_1" xmlns="http://www.w3.org/2000/svg" width="294.31" height="191.86" viewBox="0 0 294.31 191.86"><line x1="293.81" y1="76.25" x2=".61" y2="76.25" style="fill:none; stroke:#9f9f9f; stroke-dasharray:0 0 0 5; stroke-linecap:round;"/><line x1="293.75" y1=".5" x2=".55" y2=".5" style="fill:none; stroke:#9f9f9f; stroke-dasharray:0 0 0 5; stroke-linecap:round;"/><line x1="293.81" y1="38.38" x2="3.77" y2="38.38" style="fill:none; stroke:#6f7070; stroke-miterlimit:10;"/><line x1="293.7" y1="114.13" x2=".5" y2="114.13" style="fill:none; stroke:#9f9f9f; stroke-dasharray:0 0 0 5; stroke-linecap:round;"/><line x1="293.73" y1="152" x2=".53" y2="152" style="fill:none; stroke:#9f9f9f; stroke-dasharray:0 0 0 5; stroke-linecap:round;"/><line x1="293.73" y1="189.88" x2=".53" y2="189.88" style="fill:none; stroke:#9f9f9f; stroke-dasharray:0 0 0 5; stroke-linecap:round;"/><line x1="78.46" y1="191.86" x2="78.46" y2="3.14" style="fill:none; opacity:.4; stroke:#93c954; stroke-dasharray:0 0 5 5; stroke-miterlimit:10;"/><path d="m83.44,38.46c0,2.76-2.24,5-5,5s-5-2.24-5-5,2.24-5,5-5,5,2.24,5,5" style="fill:#93c954; stroke:#fff; stroke-miterlimit:10;"/><path d="m162.56,24.55c39.35.93,92.56,19.17,122.56,36.02" style="fill:none; stroke:#93c954; stroke-linecap:round; stroke-miterlimit:10; stroke-width:2px;"/><path d="m98.47,32.56c20.85-5.67,42.49-8.52,64.09-8.01" style="fill:none; stroke:#93c954; stroke-linecap:round; stroke-miterlimit:10; stroke-width:2px;"/><path d="m18.25,78.17c21.14-22.9,50.15-37.43,80.22-45.61" style="fill:none; stroke:#93c954; stroke-linecap:round; stroke-miterlimit:10; stroke-width:2px;"/></svg>
