<?xml version="1.0" encoding="UTF-8"?><svg id="Layer_1" xmlns="http://www.w3.org/2000/svg" width="294.31" height="191.86" viewBox="0 0 294.31 191.86"><line x1="293.81" y1="76.25" x2=".61" y2="76.25" style="fill:none; stroke:#9f9f9f; stroke-dasharray:0 0 0 5; stroke-linecap:round;"/><line x1="293.75" y1=".5" x2=".55" y2=".5" style="fill:none; stroke:#9f9f9f; stroke-dasharray:0 0 0 5; stroke-linecap:round;"/><line x1="293.81" y1="38.38" x2="3.77" y2="38.38" style="fill:none; stroke:#6f7070; stroke-miterlimit:10;"/><path d="m11.49,77.84c18.52-17.18,31.68-22.91,44.73-29.34,16.46-8.1,33.86-14.26,51.69-18.51,11.07-2.64,22.31-4.55,33.63-5.73,47.13-4.9,95.11,2.53,139.85,18.16" style="fill:none; stroke:#584c9f; stroke-linecap:round; stroke-miterlimit:10; stroke-width:2px;"/><line x1="293.7" y1="114.13" x2=".5" y2="114.13" style="fill:none; stroke:#9f9f9f; stroke-dasharray:0 0 0 5; stroke-linecap:round;"/><line x1="293.73" y1="152" x2=".53" y2="152" style="fill:none; stroke:#9f9f9f; stroke-dasharray:0 0 0 5; stroke-linecap:round;"/><line x1="293.73" y1="189.88" x2=".53" y2="189.88" style="fill:none; stroke:#9f9f9f; stroke-dasharray:0 0 0 5; stroke-linecap:round;"/><line x1="78.46" y1="191.86" x2="78.46" y2="3.14" style="fill:none; opacity:.4; stroke:#584da0; stroke-dasharray:0 0 5 5; stroke-miterlimit:10;"/><path d="m83.46,38.44c0,2.76-2.24,5-5,5s-5-2.24-5-5,2.24-5,5-5,5,2.24,5,5" style="fill:#584da0; stroke:#fff; stroke-miterlimit:10;"/></svg>
