<?xml version="1.0" encoding="UTF-8"?><svg id="Layer_1" xmlns="http://www.w3.org/2000/svg" width="484.31" height="206.79" viewBox="0 0 484.31 206.79"><line x1="441.97" y1="80.22" x2="148.77" y2="80.22" style="fill:none; stroke:#9f9f9f; stroke-dasharray:0 0 0 5; stroke-linecap:round;"/><path d="m41.73,93.7c.73,0,1.44.11,2.13.33.69.22,1.3.55,1.83.98.54.43.96.98,1.29,1.63.32.65.48,1.42.48,2.31s-.17,1.65-.5,2.36c-.33.71-.78,1.31-1.35,1.81-.57.5-1.23.88-1.98,1.15-.75.26-1.54.4-2.37.4-.73,0-1.41-.09-2.03-.28-.62-.19-1.19-.45-1.69-.78-.51-.33-.96-.71-1.34-1.15-.38-.43-.71-.9-.98-1.41l1.89-1.35c.46.71,1.01,1.31,1.66,1.78.65.48,1.45.71,2.42.71.49,0,.95-.07,1.38-.22.42-.14.79-.36,1.11-.64s.56-.62.74-1.01c.18-.39.27-.83.27-1.33,0-.97-.33-1.71-.99-2.22s-1.62-.76-2.88-.76h-3.87v-8.46h9.2v2.42h-6.55v3.92c.34-.07.68-.12,1.03-.15.35-.03.72-.05,1.11-.05Z" style="fill:#584c9f; stroke-width:0px;"/><path d="m61.18,87.56v.74l-8.13,16.08h-2.93l7.42-14.4h-7.9v-2.42h11.54Z" style="fill:#584c9f; stroke-width:0px;"/><path d="m69.77,87.28c1.09,0,2.03.22,2.84.65.81.43,1.47,1.03,2,1.8.53.76.92,1.67,1.17,2.7.25,1.04.38,2.17.38,3.39s-.13,2.34-.38,3.41-.64,2.01-1.16,2.82c-.52.81-1.18,1.44-1.99,1.91-.81.47-1.76.7-2.87.7s-2.09-.23-2.89-.7c-.81-.47-1.47-1.1-1.99-1.91-.52-.81-.9-1.75-1.16-2.82-.25-1.07-.38-2.21-.38-3.41s.13-2.35.38-3.39c.25-1.04.65-1.94,1.18-2.7s1.2-1.36,2-1.8c.8-.43,1.75-.65,2.85-.65Zm0,2.47c-.65,0-1.2.14-1.66.43-.46.29-.83.7-1.12,1.22-.29.53-.5,1.16-.64,1.91-.14.75-.2,1.59-.2,2.52s.07,1.81.2,2.59c.14.77.35,1.44.64,2,.29.56.66.99,1.12,1.3.46.31,1.01.46,1.66.46s1.19-.15,1.64-.46.82-.74,1.11-1.3c.29-.56.5-1.23.64-2,.14-.77.2-1.63.2-2.59s-.07-1.78-.2-2.52c-.14-.75-.35-1.38-.64-1.91-.29-.53-.66-.93-1.11-1.22-.45-.29-1-.43-1.64-.43Z" style="fill:#584c9f; stroke-width:0px;"/><path d="m85.69,87.28c1.09,0,2.03.22,2.84.65.81.43,1.47,1.03,2,1.8.53.76.92,1.67,1.17,2.7.25,1.04.38,2.17.38,3.39s-.13,2.34-.38,3.41-.64,2.01-1.16,2.82c-.52.81-1.18,1.44-1.99,1.91-.81.47-1.76.7-2.87.7s-2.09-.23-2.89-.7c-.81-.47-1.47-1.1-1.99-1.91-.52-.81-.9-1.75-1.16-2.82-.25-1.07-.38-2.21-.38-3.41s.13-2.35.38-3.39c.25-1.04.65-1.94,1.18-2.7s1.2-1.36,2-1.8c.8-.43,1.75-.65,2.85-.65Zm0,2.47c-.65,0-1.2.14-1.66.43-.46.29-.83.7-1.12,1.22-.29.53-.5,1.16-.64,1.91-.14.75-.2,1.59-.2,2.52s.07,1.81.2,2.59c.14.77.35,1.44.64,2,.29.56.66.99,1.12,1.3.46.31,1.01.46,1.66.46s1.19-.15,1.64-.46.82-.74,1.11-1.3c.29-.56.5-1.23.64-2,.14-.77.2-1.63.2-2.59s-.07-1.78-.2-2.52c-.14-.75-.35-1.38-.64-1.91-.29-.53-.66-.93-1.11-1.22-.45-.29-1-.43-1.64-.43Z" style="fill:#584c9f; stroke-width:0px;"/><path d="m104.27,95.85c.59,0,1.13.11,1.63.33.5.22.94.53,1.3.92.36.39.64.85.85,1.38s.3,1.1.3,1.72-.1,1.2-.3,1.73-.49.99-.85,1.38c-.36.39-.79.7-1.3.92-.5.22-1.05.33-1.63.33s-1.09-.1-1.57-.31c-.48-.21-.88-.5-1.21-.89v4.07h-1.8v-11.4h1.68v1.2c.3-.44.71-.78,1.22-1.02.51-.25,1.07-.37,1.68-.37Zm-.29,7.07c.35,0,.68-.06.99-.19.31-.13.58-.31.81-.55.23-.24.41-.52.54-.85.13-.33.2-.7.2-1.11s-.07-.77-.2-1.11c-.13-.33-.31-.62-.53-.85-.23-.24-.49-.42-.8-.56-.31-.13-.65-.2-1.01-.2-.3,0-.61.05-.91.16-.3.11-.57.27-.8.49-.24.22-.43.5-.58.84-.15.34-.22.74-.22,1.22s.07.88.21,1.22c.14.34.33.62.57.84.24.23.51.39.8.5.3.11.61.16.92.16Z" style="fill:#584c9f; stroke-width:0px;"/><path d="m118.07,99.68c0,.23-.02.44-.05.65-.03.2-.06.36-.08.48h-6.22c.12.69.43,1.23.91,1.61.48.39,1.08.58,1.81.58.49,0,.93-.09,1.32-.26.39-.18.76-.42,1.11-.72l.85,1.22c-.44.42-.94.75-1.5.99s-1.17.36-1.83.36-1.24-.11-1.79-.33c-.55-.22-1.02-.53-1.42-.92-.4-.39-.71-.85-.93-1.38s-.34-1.1-.34-1.72.11-1.18.33-1.72c.22-.53.53-.99.92-1.38.39-.39.85-.7,1.37-.93.52-.23,1.09-.34,1.7-.34.55,0,1.07.1,1.54.29.47.19.88.46,1.22.8s.61.75.81,1.21c.19.47.29.98.29,1.52Zm-3.94-2.31c-.6,0-1.12.18-1.55.55s-.71.86-.85,1.49h4.54c0-.32-.06-.6-.18-.86-.12-.25-.28-.47-.47-.65-.19-.18-.42-.31-.68-.4-.26-.09-.53-.14-.82-.14Z" style="fill:#584c9f; stroke-width:0px;"/><path d="m123.95,95.85c.61,0,1.19.11,1.72.34.54.23,1.01.54,1.41.93.4.39.72.85.95,1.38.23.53.35,1.1.35,1.71s-.12,1.18-.35,1.72c-.23.53-.55,1-.95,1.39-.4.4-.87.71-1.41.93-.54.22-1.11.33-1.72.33s-1.18-.11-1.72-.34c-.53-.23-1-.54-1.4-.93-.4-.39-.72-.85-.94-1.38s-.34-1.1-.34-1.72.11-1.18.34-1.71c.23-.53.54-.99.93-1.38.4-.39.86-.7,1.4-.93s1.11-.34,1.72-.34Zm0,1.65c-.38,0-.72.07-1.05.21s-.6.33-.83.58c-.23.24-.41.53-.54.86-.13.33-.2.69-.2,1.08s.07.74.2,1.07c.13.33.31.61.54.85.23.24.5.43.82.57s.67.2,1.04.2.72-.07,1.04-.2c.32-.14.59-.32.83-.57.23-.24.42-.53.55-.85.13-.33.2-.68.2-1.07s-.07-.74-.2-1.08c-.13-.33-.31-.62-.55-.87-.23-.25-.51-.44-.83-.58-.32-.14-.66-.2-1.02-.2Z" style="fill:#584c9f; stroke-width:0px;"/><path d="m134.95,95.85c.59,0,1.13.11,1.64.33.5.22.93.53,1.3.92.36.39.64.85.85,1.38s.31,1.1.31,1.72-.1,1.2-.31,1.73c-.2.53-.49.99-.85,1.38-.36.39-.79.7-1.3.92-.5.22-1.05.33-1.64.33s-1.09-.1-1.57-.31-.88-.5-1.21-.89v4.07h-1.8v-11.4h1.68v1.2c.3-.44.71-.78,1.22-1.02.51-.25,1.07-.37,1.68-.37Zm-.29,7.07c.35,0,.68-.06.99-.19.31-.13.58-.31.81-.55.23-.24.41-.52.54-.85s.2-.7.2-1.11-.07-.77-.2-1.11-.31-.62-.53-.85c-.23-.24-.49-.42-.8-.56-.31-.13-.65-.2-1.01-.2-.3,0-.61.05-.91.16-.3.11-.57.27-.8.49-.24.22-.43.5-.58.84-.15.34-.22.74-.22,1.22s.07.88.21,1.22c.14.34.33.62.57.84.24.23.51.39.8.5.3.11.61.16.92.16Z" style="fill:#584c9f; stroke-width:0px;"/><path d="m142.88,104.38h-1.8v-12.74h1.8v12.74Z" style="fill:#584c9f; stroke-width:0px;"/><path d="m153.02,99.68c0,.23-.02.44-.05.65-.03.2-.06.36-.08.48h-6.22c.12.69.43,1.23.91,1.61.48.39,1.08.58,1.81.58.49,0,.93-.09,1.32-.26.39-.18.76-.42,1.11-.72l.85,1.22c-.44.42-.94.75-1.5.99s-1.17.36-1.83.36-1.24-.11-1.79-.33c-.55-.22-1.02-.53-1.42-.92-.4-.39-.71-.85-.93-1.38s-.34-1.1-.34-1.72.11-1.18.33-1.72c.22-.53.53-.99.92-1.38.39-.39.85-.7,1.37-.93.52-.23,1.09-.34,1.7-.34.55,0,1.07.1,1.54.29.47.19.88.46,1.22.8s.61.75.81,1.21c.19.47.29.98.29,1.52Zm-3.94-2.31c-.6,0-1.12.18-1.55.55s-.71.86-.85,1.49h4.54c0-.32-.06-.6-.18-.86-.12-.25-.28-.47-.47-.65-.19-.18-.42-.31-.68-.4-.26-.09-.53-.14-.82-.14Z" style="fill:#584c9f; stroke-width:0px;"/><path d="m164.38,95.85c.59,0,1.13.11,1.64.33.5.22.93.53,1.3.92.36.39.64.85.85,1.38s.31,1.1.31,1.72-.1,1.2-.31,1.73c-.2.53-.49.99-.85,1.38-.36.39-.79.7-1.3.92-.5.22-1.05.33-1.64.33s-1.09-.1-1.57-.31-.88-.5-1.21-.89v4.07h-1.8v-11.4h1.68v1.2c.3-.44.71-.78,1.22-1.02.51-.25,1.07-.37,1.68-.37Zm-.29,7.07c.35,0,.68-.06.99-.19.31-.13.58-.31.81-.55.23-.24.41-.52.54-.85s.2-.7.2-1.11-.07-.77-.2-1.11-.31-.62-.53-.85c-.23-.24-.49-.42-.8-.56-.31-.13-.65-.2-1.01-.2-.3,0-.61.05-.91.16-.3.11-.57.27-.8.49-.24.22-.43.5-.58.84-.15.34-.22.74-.22,1.22s.07.88.21,1.22c.14.34.33.62.57.84.24.23.51.39.8.5.3.11.61.16.92.16Z" style="fill:#584c9f; stroke-width:0px;"/><path d="m178.18,99.68c0,.23-.02.44-.05.65-.03.2-.06.36-.08.48h-6.22c.12.69.43,1.23.91,1.61.48.39,1.08.58,1.81.58.49,0,.93-.09,1.32-.26.39-.18.76-.42,1.11-.72l.85,1.22c-.44.42-.94.75-1.5.99s-1.17.36-1.83.36-1.24-.11-1.79-.33c-.55-.22-1.02-.53-1.42-.92-.4-.39-.71-.85-.93-1.38s-.34-1.1-.34-1.72.11-1.18.33-1.72c.22-.53.53-.99.92-1.38.39-.39.85-.7,1.37-.93.52-.23,1.09-.34,1.7-.34.55,0,1.07.1,1.54.29.47.19.88.46,1.22.8s.61.75.81,1.21c.19.47.29.98.29,1.52Zm-3.94-2.31c-.6,0-1.12.18-1.55.55s-.71.86-.85,1.49h4.54c0-.32-.06-.6-.18-.86-.12-.25-.28-.47-.47-.65-.19-.18-.42-.31-.68-.4-.26-.09-.53-.14-.82-.14Z" style="fill:#584c9f; stroke-width:0px;"/><path d="m184.31,95.96c.15,0,.27,0,.38.03.11.02.21.04.3.06v1.58h-.54c-.33,0-.64.05-.94.14-.3.1-.56.24-.78.43-.22.19-.4.43-.53.72-.13.29-.2.63-.2,1.01v4.45h-1.8v-8.34h1.68v1.09c.29-.38.65-.68,1.08-.88s.88-.3,1.35-.3Z" style="fill:#584c9f; stroke-width:0px;"/><path d="m191.33,91.64h1.8v12.74h-1.8v-12.74Zm7.59,12.74h-2.14l-3.62-4.69,3.26-3.65h2.21l-3.36,3.67,3.65,4.67Z" style="fill:#584c9f; stroke-width:0px;"/><path d="m209.89,95.85c.49,0,.92.08,1.31.25.38.16.71.39.97.68.27.29.47.64.6,1.04s.2.86.2,1.34v5.22h-1.8v-4.96c0-.58-.15-1.04-.46-1.4-.3-.36-.73-.54-1.27-.54s-.98.18-1.32.53c-.34.35-.51.79-.51,1.33v5.05h-1.8v-4.96c0-.58-.16-1.04-.47-1.4-.31-.36-.74-.54-1.28-.54s-.98.18-1.32.54c-.34.36-.51.82-.51,1.4v4.96h-1.8v-8.34h1.68v.8c.28-.31.63-.55,1.04-.72.41-.18.87-.26,1.38-.26.6,0,1.11.12,1.53.35.42.23.75.55,1,.96.29-.38.68-.7,1.16-.94.48-.24,1.03-.37,1.65-.37Z" style="fill:#584c9f; stroke-width:0px;"/><path d="m219.89,96.92v1.27h-5.15v-.31l2.51-2.72c.33-.36.58-.68.74-.95s.25-.55.25-.85-.09-.56-.27-.76c-.18-.2-.42-.31-.71-.31s-.55.1-.73.31c-.18.2-.28.47-.28.8,0,.08,0,.16,0,.25,0,.08.01.18.03.28h-1.41c-.02-.1-.04-.21-.05-.31-.01-.11-.02-.21-.02-.3,0-.28.06-.56.17-.84s.27-.52.48-.74c.21-.22.47-.39.77-.52.31-.13.65-.19,1.02-.19.35,0,.67.06.97.17.29.11.55.27.76.47.21.2.38.44.51.71.12.28.19.57.19.89,0,.53-.14,1.01-.43,1.44-.29.43-.65.86-1.08,1.3l-.88.91h2.6Z" style="fill:#584c9f; stroke-width:0px;"/><line x1="227.2" y1="135.01" x2="227.2" y2="9.29" style="fill:none; stroke:#e78c59; stroke-dasharray:0 0 5 5; stroke-miterlimit:10;"/><line x1="441.97" y1="9.29" x2="148.77" y2="9.29" style="fill:none; stroke:#9f9f9f; stroke-dasharray:0 0 0 5; stroke-linecap:round;"/><line x1="441.97" y1="44.59" x2="151.92" y2="44.59" style="fill:none; stroke:#6f7070; stroke-miterlimit:10;"/><path d="m12.15,119.12v16.82h-2.7v-13.63l-3.41,1.1-.66-2.37,5.84-1.91h.94Z" style="fill:#bad567; stroke-width:0px;"/><path d="m22.67,118.84c1.09,0,2.03.22,2.84.65.81.43,1.47,1.03,2,1.8.53.76.92,1.67,1.17,2.7.25,1.04.38,2.17.38,3.39s-.13,2.34-.38,3.41-.64,2.01-1.16,2.82c-.52.81-1.18,1.44-1.99,1.91-.81.47-1.76.7-2.87.7s-2.09-.23-2.89-.7c-.81-.47-1.47-1.1-1.99-1.91-.52-.81-.9-1.75-1.16-2.82-.25-1.07-.38-2.21-.38-3.41s.13-2.35.38-3.39c.25-1.04.65-1.94,1.18-2.7s1.2-1.36,2-1.8c.8-.43,1.75-.65,2.85-.65Zm0,2.47c-.65,0-1.2.14-1.66.43-.46.29-.83.7-1.12,1.22-.29.53-.5,1.16-.64,1.91-.14.75-.2,1.59-.2,2.52s.07,1.81.2,2.59c.14.77.35,1.44.64,2,.29.56.66.99,1.12,1.3.46.31,1.01.46,1.66.46s1.19-.15,1.64-.46.82-.74,1.11-1.3c.29-.56.5-1.23.64-2,.14-.77.2-1.63.2-2.59s-.07-1.78-.2-2.52c-.14-.75-.35-1.38-.64-1.91-.29-.53-.66-.93-1.11-1.22-.45-.29-1-.43-1.64-.43Z" style="fill:#bad567; stroke-width:0px;"/><path d="m38.6,118.84c1.09,0,2.03.22,2.84.65.81.43,1.47,1.03,2,1.8.53.76.92,1.67,1.17,2.7.25,1.04.38,2.17.38,3.39s-.13,2.34-.38,3.41-.64,2.01-1.16,2.82c-.52.81-1.18,1.44-1.99,1.91-.81.47-1.76.7-2.87.7s-2.09-.23-2.89-.7c-.81-.47-1.47-1.1-1.99-1.91-.52-.81-.9-1.75-1.16-2.82-.25-1.07-.38-2.21-.38-3.41s.13-2.35.38-3.39c.25-1.04.65-1.94,1.18-2.7s1.2-1.36,2-1.8c.8-.43,1.75-.65,2.85-.65Zm0,2.47c-.65,0-1.2.14-1.66.43-.46.29-.83.7-1.12,1.22-.29.53-.5,1.16-.64,1.91-.14.75-.2,1.59-.2,2.52s.07,1.81.2,2.59c.14.77.35,1.44.64,2,.29.56.66.99,1.12,1.3.46.31,1.01.46,1.66.46s1.19-.15,1.64-.46.82-.74,1.11-1.3c.29-.56.5-1.23.64-2,.14-.77.2-1.63.2-2.59s-.07-1.78-.2-2.52c-.14-.75-.35-1.38-.64-1.91-.29-.53-.66-.93-1.11-1.22-.45-.29-1-.43-1.64-.43Z" style="fill:#bad567; stroke-width:0px;"/><path d="m53.5,123.3c.33,0,.61.12.86.35.24.23.37.51.37.84s-.12.61-.37.83c-.24.23-.53.34-.86.34s-.63-.11-.87-.34-.36-.5-.36-.83.12-.61.36-.84c.24-.23.53-.35.87-.35Zm.9,12.64h-1.8v-8.34h1.8v8.34Z" style="fill:#bad567; stroke-width:0px;"/><path d="m61.14,127.41c.49,0,.93.08,1.32.25s.72.39.99.68c.27.29.47.64.61,1.04s.21.86.21,1.34v5.22h-1.8v-4.98c0-.58-.16-1.04-.49-1.4-.33-.36-.77-.54-1.32-.54s-1.01.18-1.36.54c-.36.36-.53.82-.53,1.4v4.98h-1.8v-8.34h1.68v.83c.29-.32.65-.57,1.07-.75.42-.18.9-.27,1.43-.27Z" style="fill:#bad567; stroke-width:0px;"/><path d="m70.4,134.52c.16,0,.33,0,.5-.03.18-.02.38-.04.6-.06v1.51c-.23.06-.46.1-.7.14-.24.03-.5.05-.78.05-.93,0-1.67-.23-2.23-.7-.56-.46-.84-1.2-.84-2.21v-4.08h-1.36v-1.55h1.36v-2.19h1.8v2.19h2.48v1.55h-2.48v3.92c0,.56.14.93.43,1.14.29.2.69.31,1.21.31Z" style="fill:#bad567; stroke-width:0px;"/><path d="m80.97,131.24c0,.23-.02.44-.05.65-.04.2-.06.36-.09.48h-6.22c.12.69.43,1.23.91,1.61.48.39,1.08.58,1.81.58.49,0,.93-.09,1.32-.26.39-.18.76-.42,1.11-.72l.85,1.22c-.44.42-.94.75-1.49.99s-1.17.36-1.84.36-1.24-.11-1.79-.33c-.55-.22-1.02-.53-1.42-.92-.4-.39-.71-.85-.93-1.38s-.34-1.1-.34-1.72.11-1.18.33-1.72c.22-.53.53-.99.92-1.38.39-.39.85-.7,1.37-.93.52-.23,1.09-.34,1.7-.34.55,0,1.07.1,1.54.29.47.19.88.46,1.22.8s.61.75.81,1.21c.19.47.29.98.29,1.52Zm-3.94-2.31c-.6,0-1.12.18-1.55.55-.43.37-.71.86-.85,1.49h4.54c0-.32-.06-.6-.18-.86-.12-.25-.28-.47-.47-.65-.19-.18-.42-.31-.68-.4-.26-.09-.53-.14-.81-.14Z" style="fill:#bad567; stroke-width:0px;"/><path d="m87.1,127.52c.15,0,.27,0,.38.03.11.02.21.04.3.06v1.58h-.54c-.33,0-.64.05-.94.14-.3.1-.56.24-.78.43-.22.19-.4.43-.53.72-.13.29-.2.63-.2,1.01v4.45h-1.8v-8.34h1.68v1.09c.29-.38.65-.68,1.08-.88s.88-.3,1.35-.3Z" style="fill:#bad567; stroke-width:0px;"/><path d="m92.13,127.41c.61,0,1.16.11,1.64.33.48.22.9.54,1.25.96l-.97,1.1c-.54-.57-1.19-.85-1.95-.85-.33,0-.6.06-.82.2-.22.13-.32.33-.32.6,0,.23.09.41.26.54.17.14.46.28.84.44l.8.32c.76.31,1.33.65,1.71,1.03.38.38.57.88.57,1.49,0,.42-.08.79-.25,1.1-.17.32-.39.58-.67.8-.28.21-.61.38-.99.48-.37.11-.77.16-1.19.16-.75,0-1.41-.15-1.97-.45-.57-.3-1.03-.69-1.39-1.16l1.02-1.12c.33.35.68.64,1.06.86s.81.33,1.28.33c.36,0,.68-.08.94-.23.27-.15.4-.39.4-.71,0-.27-.11-.48-.33-.61-.22-.14-.5-.28-.84-.42l-.85-.36c-.34-.14-.64-.28-.91-.43-.27-.15-.49-.33-.68-.52-.19-.19-.33-.41-.43-.65-.1-.24-.15-.52-.15-.83,0-.38.08-.73.23-1.03.15-.3.36-.55.62-.76.26-.2.57-.36.93-.47.36-.11.75-.16,1.16-.16Z" style="fill:#bad567; stroke-width:0px;"/><path d="m104.77,131.24c0,.23-.02.44-.05.65-.03.2-.06.36-.08.48h-6.22c.12.69.43,1.23.91,1.61.48.39,1.08.58,1.81.58.49,0,.93-.09,1.32-.26.39-.18.76-.42,1.11-.72l.85,1.22c-.44.42-.94.75-1.5.99s-1.17.36-1.83.36-1.24-.11-1.79-.33c-.55-.22-1.02-.53-1.42-.92-.4-.39-.71-.85-.93-1.38s-.34-1.1-.34-1.72.11-1.18.33-1.72c.22-.53.53-.99.92-1.38.39-.39.85-.7,1.37-.93.52-.23,1.09-.34,1.7-.34.55,0,1.07.1,1.54.29.47.19.88.46,1.22.8s.61.75.81,1.21c.19.47.29.98.29,1.52Zm-3.94-2.31c-.6,0-1.12.18-1.55.55s-.71.86-.85,1.49h4.54c0-.32-.06-.6-.18-.86-.12-.25-.28-.47-.47-.65-.19-.18-.42-.31-.68-.4-.26-.09-.53-.14-.82-.14Z" style="fill:#bad567; stroke-width:0px;"/><path d="m110.65,127.41c.79,0,1.49.18,2.08.53s1.07.82,1.44,1.41l-1.26.99c-.27-.38-.59-.69-.94-.93-.36-.23-.79-.35-1.3-.35-.38,0-.74.07-1.05.21-.32.14-.59.33-.82.58-.23.24-.41.53-.54.86-.13.33-.2.68-.2,1.05s.07.74.2,1.08c.13.33.31.62.54.87.23.24.51.43.82.57.32.14.67.2,1.05.2.5,0,.93-.11,1.28-.34.36-.23.68-.53.96-.92l1.26.97c-.36.59-.84,1.06-1.44,1.41s-1.29.53-2.07.53c-.61,0-1.19-.11-1.72-.34s-1.01-.54-1.41-.93c-.4-.39-.71-.85-.93-1.38-.22-.53-.34-1.1-.34-1.72s.11-1.18.34-1.71c.22-.53.54-.99.93-1.38.4-.39.87-.7,1.41-.93s1.11-.34,1.72-.34Z" style="fill:#bad567; stroke-width:0px;"/><path d="m120.13,134.52c.16,0,.33,0,.5-.03.17-.02.38-.04.6-.06v1.51c-.23.06-.46.1-.7.14-.24.03-.5.05-.78.05-.93,0-1.67-.23-2.23-.7-.56-.46-.84-1.2-.84-2.21v-4.08h-1.36v-1.55h1.36v-2.19h1.8v2.19h2.48v1.55h-2.48v3.92c0,.56.14.93.43,1.14.29.2.69.31,1.21.31Z" style="fill:#bad567; stroke-width:0px;"/><path d="m123.87,123.3c.33,0,.61.12.86.35.24.23.37.51.37.84s-.12.61-.37.83c-.24.23-.53.34-.86.34s-.63-.11-.87-.34-.36-.5-.36-.83.12-.61.36-.84c.24-.23.53-.35.87-.35Zm.9,12.64h-1.8v-8.34h1.8v8.34Z" style="fill:#bad567; stroke-width:0px;"/><path d="m131.12,127.41c.61,0,1.19.11,1.72.34.54.23,1.01.54,1.41.93.4.39.72.85.95,1.38.23.53.35,1.1.35,1.71s-.12,1.18-.35,1.72c-.23.53-.55,1-.95,1.39-.4.4-.87.71-1.41.93-.54.22-1.11.33-1.72.33s-1.18-.11-1.72-.34c-.53-.23-1-.54-1.4-.93-.4-.39-.72-.85-.94-1.38s-.34-1.1-.34-1.72.11-1.18.34-1.71c.23-.53.54-.99.93-1.38.4-.39.86-.7,1.4-.93s1.11-.34,1.72-.34Zm0,1.65c-.38,0-.72.07-1.05.21s-.6.33-.83.58c-.23.24-.41.53-.54.86-.13.33-.2.69-.2,1.08s.07.74.2,1.07c.13.33.31.61.54.85.23.24.5.43.82.57s.67.2,1.04.2.72-.07,1.04-.2c.32-.14.59-.32.83-.57.23-.24.42-.53.55-.85.13-.33.2-.68.2-1.07s-.07-.74-.2-1.08c-.13-.33-.31-.62-.55-.87-.23-.25-.51-.44-.83-.58-.32-.14-.66-.2-1.02-.2Z" style="fill:#bad567; stroke-width:0px;"/><path d="m141.76,127.41c.49,0,.93.08,1.32.25.39.16.72.39.99.68.27.29.47.64.61,1.04s.21.86.21,1.34v5.22h-1.8v-4.98c0-.58-.16-1.04-.49-1.4-.33-.36-.77-.54-1.32-.54s-1.01.18-1.36.54c-.36.36-.53.82-.53,1.4v4.98h-1.8v-8.34h1.68v.83c.29-.32.65-.57,1.07-.75.42-.18.9-.27,1.43-.27Z" style="fill:#bad567; stroke-width:0px;"/><path d="m149.98,127.41c.61,0,1.16.11,1.64.33.48.22.9.54,1.25.96l-.97,1.1c-.54-.57-1.19-.85-1.95-.85-.33,0-.6.06-.82.2-.22.13-.32.33-.32.6,0,.23.09.41.26.54.17.14.46.28.84.44l.8.32c.76.31,1.33.65,1.71,1.03.38.38.57.88.57,1.49,0,.42-.08.79-.25,1.1-.17.32-.39.58-.67.8-.28.21-.61.38-.99.48-.37.11-.77.16-1.19.16-.75,0-1.41-.15-1.97-.45-.57-.3-1.03-.69-1.39-1.16l1.02-1.12c.33.35.68.64,1.06.86s.81.33,1.28.33c.36,0,.68-.08.94-.23.27-.15.4-.39.4-.71,0-.27-.11-.48-.33-.61-.22-.14-.5-.28-.84-.42l-.85-.36c-.34-.14-.64-.28-.91-.43-.27-.15-.49-.33-.68-.52-.19-.19-.33-.41-.43-.65-.1-.24-.15-.52-.15-.83,0-.38.08-.73.23-1.03.15-.3.36-.55.62-.76.26-.2.57-.36.93-.47.36-.11.75-.16,1.16-.16Z" style="fill:#bad567; stroke-width:0px;"/><path d="m164.38,127.41c.59,0,1.13.11,1.64.33.5.22.93.53,1.3.92.36.39.64.85.85,1.38s.31,1.1.31,1.72-.1,1.2-.31,1.73c-.2.53-.49.99-.85,1.38-.36.39-.79.7-1.3.92-.5.22-1.05.33-1.64.33s-1.09-.1-1.57-.31-.88-.5-1.21-.89v4.07h-1.8v-11.4h1.68v1.2c.3-.44.71-.78,1.22-1.02.51-.25,1.07-.37,1.68-.37Zm-.29,7.07c.35,0,.68-.06.99-.19.31-.13.58-.31.81-.55.23-.24.41-.52.54-.85s.2-.7.2-1.11-.07-.77-.2-1.11-.31-.62-.53-.85c-.23-.24-.49-.42-.8-.56-.31-.13-.65-.2-1.01-.2-.3,0-.61.05-.91.16-.3.11-.57.27-.8.49-.24.22-.43.5-.58.84-.15.34-.22.74-.22,1.22s.07.88.21,1.22c.14.34.33.62.57.84.24.23.51.39.8.5.3.11.61.16.92.16Z" style="fill:#bad567; stroke-width:0px;"/><path d="m178.18,131.24c0,.23-.02.44-.05.65-.03.2-.06.36-.08.48h-6.22c.12.69.43,1.23.91,1.61.48.39,1.08.58,1.81.58.49,0,.93-.09,1.32-.26.39-.18.76-.42,1.11-.72l.85,1.22c-.44.42-.94.75-1.5.99s-1.17.36-1.83.36-1.24-.11-1.79-.33c-.55-.22-1.02-.53-1.42-.92-.4-.39-.71-.85-.93-1.38s-.34-1.1-.34-1.72.11-1.18.33-1.72c.22-.53.53-.99.92-1.38.39-.39.85-.7,1.37-.93.52-.23,1.09-.34,1.7-.34.55,0,1.07.1,1.54.29.47.19.88.46,1.22.8s.61.75.81,1.21c.19.47.29.98.29,1.52Zm-3.94-2.31c-.6,0-1.12.18-1.55.55s-.71.86-.85,1.49h4.54c0-.32-.06-.6-.18-.86-.12-.25-.28-.47-.47-.65-.19-.18-.42-.31-.68-.4-.26-.09-.53-.14-.82-.14Z" style="fill:#bad567; stroke-width:0px;"/><path d="m184.31,127.52c.15,0,.27,0,.38.03.11.02.21.04.3.06v1.58h-.54c-.33,0-.64.05-.94.14-.3.1-.56.24-.78.43-.22.19-.4.43-.53.72-.13.29-.2.63-.2,1.01v4.45h-1.8v-8.34h1.68v1.09c.29-.38.65-.68,1.08-.88s.88-.3,1.35-.3Z" style="fill:#bad567; stroke-width:0px;"/><path d="m191.33,123.2h1.8v12.74h-1.8v-12.74Zm7.59,12.74h-2.14l-3.62-4.69,3.26-3.65h2.21l-3.36,3.67,3.65,4.67Z" style="fill:#bad567; stroke-width:0px;"/><path d="m209.89,127.41c.49,0,.92.08,1.31.25.38.16.71.39.97.68.27.29.47.64.6,1.04s.2.86.2,1.34v5.22h-1.8v-4.96c0-.58-.15-1.04-.46-1.4-.3-.36-.73-.54-1.27-.54s-.98.18-1.32.53c-.34.35-.51.79-.51,1.33v5.05h-1.8v-4.96c0-.58-.16-1.04-.47-1.4-.31-.36-.74-.54-1.28-.54s-.98.18-1.32.54c-.34.36-.51.82-.51,1.4v4.96h-1.8v-8.34h1.68v.8c.28-.31.63-.55,1.04-.72.41-.18.87-.26,1.38-.26.6,0,1.11.12,1.53.35.42.23.75.55,1,.96.29-.38.68-.7,1.16-.94.48-.24,1.03-.37,1.65-.37Z" style="fill:#bad567; stroke-width:0px;"/><path d="m219.89,128.48v1.27h-5.15v-.31l2.51-2.72c.33-.36.58-.68.74-.95s.25-.55.25-.85-.09-.56-.27-.76c-.18-.2-.42-.31-.71-.31s-.55.1-.73.31c-.18.2-.28.47-.28.8,0,.08,0,.16,0,.25,0,.08.01.18.03.28h-1.41c-.02-.1-.04-.21-.05-.31-.01-.11-.02-.21-.02-.3,0-.28.06-.56.17-.84s.27-.52.48-.74c.21-.22.47-.39.77-.52.31-.13.65-.19,1.02-.19.35,0,.67.06.97.17.29.11.55.27.76.47.21.2.38.44.51.71.12.28.19.57.19.89,0,.53-.14,1.01-.43,1.44-.29.43-.65.86-1.08,1.3l-.88.91h2.6Z" style="fill:#bad567; stroke-width:0px;"/><path d="m160.23,83.99c18.52-17.18,31.68-22.91,44.73-29.34,16.46-8.1,33.86-14.26,51.69-18.51,11.07-2.64,22.31-4.55,33.63-5.73,47.13-4.9,95.11,2.53,139.85,18.16" style="fill:none; stroke:#584c9f; stroke-linecap:round; stroke-miterlimit:10; stroke-width:2px;"/><path d="m167.01,84.29c21.14-22.9,50.15-37.43,80.22-45.61,20.85-5.67,42.49-8.52,64.09-8.01,39.35.93,92.56,19.17,122.56,36.02" style="fill:none; stroke:#bad567; stroke-linecap:round; stroke-miterlimit:10; stroke-width:2px;"/><path d="m232.2,44.59c0,2.76-2.24,5-5,5s-5-2.24-5-5,2.24-5,5-5,5,2.24,5,5" style="fill:#e78c59; stroke:#fff; stroke-miterlimit:10;"/><path d="m466.19,192.17c.68,0,1.28.14,1.78.41s.92.65,1.26,1.13.58,1.05.74,1.7c.16.65.24,1.36.24,2.13s-.08,1.47-.24,2.14-.4,1.26-.73,1.77-.74.91-1.25,1.2c-.51.29-1.11.44-1.8.44s-1.31-.15-1.82-.44c-.51-.29-.92-.69-1.25-1.2-.33-.51-.57-1.1-.73-1.77s-.24-1.39-.24-2.14.08-1.48.24-2.13c.16-.65.41-1.22.74-1.7s.75-.86,1.26-1.13,1.1-.41,1.79-.41Zm0,1.55c-.41,0-.75.09-1.04.27-.29.18-.52.44-.7.77s-.31.73-.4,1.2c-.09.47-.13,1-.13,1.58s.04,1.14.13,1.62c.08.49.22.9.4,1.26s.42.62.7.82.63.29,1.04.29.75-.1,1.03-.29c.28-.19.51-.46.7-.82.18-.35.31-.77.4-1.26.09-.49.13-1.03.13-1.62s-.04-1.11-.13-1.58c-.08-.47-.22-.87-.4-1.2-.18-.33-.41-.59-.7-.77-.28-.18-.63-.27-1.03-.27Z" style="fill:#827a77; stroke-width:0px;"/><path d="m474.59,192.17c.36,0,.71.07,1.04.2.33.13.61.31.86.54.25.23.44.5.58.82.14.32.21.66.21,1.02s-.07.72-.21,1.04c-.14.32-.33.59-.58.82s-.53.41-.86.54-.67.2-1.04.2-.72-.07-1.05-.2c-.33-.13-.61-.31-.85-.54-.24-.23-.43-.5-.57-.82-.14-.32-.21-.67-.21-1.04s.07-.7.21-1.02c.14-.32.33-.59.57-.82.24-.23.52-.41.85-.54.33-.13.68-.2,1.05-.2Zm0,1.2c-.39,0-.71.13-.95.4-.24.27-.37.6-.37,1s.12.74.37,1c.24.27.56.4.95.4s.7-.13.95-.4.37-.6.37-1-.12-.74-.37-1-.56-.4-.95-.4Zm.82,9.54h-1.41l6.05-10.56h1.42s-6.06,10.56-6.06,10.56Zm5.47-5.04c.36,0,.71.07,1.04.2.33.13.62.31.86.54.24.23.43.5.58.82.14.32.22.67.22,1.04s-.07.72-.22,1.03c-.14.31-.34.59-.58.82-.24.23-.53.41-.86.54-.33.13-.68.2-1.04.2s-.72-.07-1.04-.2-.6-.31-.84-.54-.43-.5-.57-.82-.21-.66-.21-1.03.07-.72.21-1.04c.14-.32.33-.59.57-.82s.52-.41.84-.54.67-.2,1.04-.2Zm.02,1.2c-.39,0-.71.13-.95.4-.24.27-.37.6-.37,1.01s.12.74.37,1c.24.26.56.39.95.39.37,0,.68-.13.93-.39.25-.26.37-.59.37-1s-.12-.74-.37-1.01-.56-.4-.93-.4Z" style="fill:#827a77; stroke-width:0px;"/><path d="m460.33,160.69v1.47h-7.57v-.38l3.76-4.05c.53-.58.95-1.08,1.24-1.52.29-.44.44-.9.44-1.38,0-.51-.15-.95-.46-1.31-.31-.36-.74-.54-1.3-.54-.28,0-.53.05-.74.15-.22.1-.41.24-.56.42-.16.18-.28.38-.36.61-.09.23-.13.48-.13.74,0,.11,0,.23.02.38.02.14.03.29.06.44h-1.71c-.04-.15-.07-.31-.09-.47-.02-.17-.02-.31-.02-.44,0-.42.08-.83.24-1.23s.39-.77.7-1.09c.3-.32.68-.58,1.12-.77.44-.19.94-.29,1.5-.29.51,0,.98.08,1.41.25s.79.39,1.1.69c.31.29.55.64.73,1.04.18.4.26.83.26,1.3,0,.38-.06.75-.18,1.1s-.28.68-.48,1.01c-.2.33-.44.65-.71.96-.27.31-.56.63-.87.95l-1.86,1.97h4.46Z" style="fill:#827a77; stroke-width:0px;"/><path d="m466.19,151.43c.68,0,1.28.14,1.78.41s.92.65,1.26,1.13.58,1.05.74,1.7c.16.65.24,1.36.24,2.13s-.08,1.47-.24,2.14-.4,1.26-.73,1.77-.74.91-1.25,1.2c-.51.29-1.11.44-1.8.44s-1.31-.15-1.82-.44c-.51-.29-.92-.69-1.25-1.2-.33-.51-.57-1.1-.73-1.77s-.24-1.39-.24-2.14.08-1.48.24-2.13c.16-.65.41-1.22.74-1.7s.75-.86,1.26-1.13,1.1-.41,1.79-.41Zm0,1.55c-.41,0-.75.09-1.04.27-.29.18-.52.44-.7.77s-.31.73-.4,1.2c-.09.47-.13,1-.13,1.58s.04,1.14.13,1.62c.08.49.22.9.4,1.26s.42.62.7.82.63.29,1.04.29.75-.1,1.03-.29c.28-.19.51-.46.7-.82.18-.35.31-.77.4-1.26.09-.49.13-1.03.13-1.62s-.04-1.11-.13-1.58c-.08-.47-.22-.87-.4-1.2-.18-.33-.41-.59-.7-.77-.28-.18-.63-.27-1.03-.27Z" style="fill:#827a77; stroke-width:0px;"/><path d="m474.59,151.43c.36,0,.71.07,1.04.2.33.13.61.31.86.54.25.23.44.5.58.82.14.32.21.66.21,1.02s-.07.72-.21,1.04c-.14.32-.33.59-.58.82s-.53.41-.86.54-.67.2-1.04.2-.72-.07-1.05-.2c-.33-.13-.61-.31-.85-.54-.24-.23-.43-.5-.57-.82-.14-.32-.21-.67-.21-1.04s.07-.7.21-1.02c.14-.32.33-.59.57-.82.24-.23.52-.41.85-.54.33-.13.68-.2,1.05-.2Zm0,1.2c-.39,0-.71.13-.95.4-.24.27-.37.6-.37,1s.12.74.37,1c.24.27.56.4.95.4s.7-.13.95-.4.37-.6.37-1-.12-.74-.37-1-.56-.4-.95-.4Zm.82,9.54h-1.41l6.05-10.56h1.42s-6.06,10.56-6.06,10.56Zm5.47-5.04c.36,0,.71.07,1.04.2.33.13.62.31.86.54.24.23.43.5.58.82.14.32.22.67.22,1.04s-.07.72-.22,1.03c-.14.31-.34.59-.58.82-.24.23-.53.41-.86.54-.33.13-.68.2-1.04.2s-.72-.07-1.04-.2-.6-.31-.84-.54-.43-.5-.57-.82-.21-.66-.21-1.03.07-.72.21-1.04c.14-.32.33-.59.57-.82s.52-.41.84-.54.67-.2,1.04-.2Zm.02,1.2c-.39,0-.71.13-.95.4-.24.27-.37.6-.37,1.01s.12.74.37,1c.24.26.56.39.95.39.37,0,.68-.13.93-.39.25-.26.37-.59.37-1s-.12-.74-.37-1.01-.56-.4-.93-.4Z" style="fill:#827a77; stroke-width:0px;"/><path d="m460.89,119.15h-1.44v1.84h-1.7v-1.84h-5.28v-.46l3.38-8.26h1.74l-2.98,7.26h3.14v-3.25h1.7v3.25h1.44v1.46Z" style="fill:#827a77; stroke-width:0px;"/><path d="m466.19,110.25c.68,0,1.28.14,1.78.41s.92.65,1.26,1.13.58,1.05.74,1.7c.16.65.24,1.36.24,2.13s-.08,1.47-.24,2.14-.4,1.26-.73,1.77-.74.91-1.25,1.2c-.51.29-1.11.44-1.8.44s-1.31-.15-1.82-.44c-.51-.29-.92-.69-1.25-1.2-.33-.51-.57-1.1-.73-1.77s-.24-1.39-.24-2.14.08-1.48.24-2.13c.16-.65.41-1.22.74-1.7s.75-.86,1.26-1.13,1.1-.41,1.79-.41Zm0,1.55c-.41,0-.75.09-1.04.27-.29.18-.52.44-.7.77s-.31.73-.4,1.2c-.09.47-.13,1-.13,1.58s.04,1.14.13,1.62c.08.49.22.9.4,1.26s.42.62.7.82.63.29,1.04.29.75-.1,1.03-.29c.28-.19.51-.46.7-.82.18-.35.31-.77.4-1.26.09-.49.13-1.03.13-1.62s-.04-1.11-.13-1.58c-.08-.47-.22-.87-.4-1.2-.18-.33-.41-.59-.7-.77-.28-.18-.63-.27-1.03-.27Z" style="fill:#827a77; stroke-width:0px;"/><path d="m474.59,110.25c.36,0,.71.07,1.04.2.33.13.61.31.86.54.25.23.44.5.58.82.14.32.21.66.21,1.02s-.07.72-.21,1.04c-.14.32-.33.59-.58.82s-.53.41-.86.54-.67.2-1.04.2-.72-.07-1.05-.2c-.33-.13-.61-.31-.85-.54-.24-.23-.43-.5-.57-.82-.14-.32-.21-.67-.21-1.04s.07-.7.21-1.02c.14-.32.33-.59.57-.82.24-.23.52-.41.85-.54.33-.13.68-.2,1.05-.2Zm0,1.2c-.39,0-.71.13-.95.4-.24.27-.37.6-.37,1s.12.74.37,1c.24.27.56.4.95.4s.7-.13.95-.4.37-.6.37-1-.12-.74-.37-1-.56-.4-.95-.4Zm.82,9.54h-1.41l6.05-10.56h1.42s-6.06,10.56-6.06,10.56Zm5.47-5.04c.36,0,.71.07,1.04.2.33.13.62.31.86.54.24.23.43.5.58.82.14.32.22.67.22,1.04s-.07.72-.22,1.03c-.14.31-.34.59-.58.82-.24.23-.53.41-.86.54-.33.13-.68.2-1.04.2s-.72-.07-1.04-.2-.6-.31-.84-.54-.43-.5-.57-.82-.21-.66-.21-1.03.07-.72.21-1.04c.14-.32.33-.59.57-.82s.52-.41.84-.54.67-.2,1.04-.2Zm.02,1.2c-.39,0-.71.13-.95.4-.24.27-.37.6-.37,1.01s.12.74.37,1c.24.26.56.39.95.39.37,0,.68-.13.93-.39.25-.26.37-.59.37-1s-.12-.74-.37-1.01-.56-.4-.93-.4Z" style="fill:#827a77; stroke-width:0px;"/><path d="m458.05,43.57c.31.12.6.26.88.42.28.17.52.36.73.58.21.22.37.48.5.76.12.28.18.61.18.97,0,.45-.09.85-.28,1.21-.19.36-.45.66-.78.92-.33.26-.74.45-1.21.59-.47.14-.99.21-1.55.21s-1.08-.07-1.56-.21c-.47-.14-.88-.34-1.22-.59s-.6-.56-.79-.92c-.19-.36-.28-.76-.28-1.21,0-.35.06-.67.17-.94s.28-.53.48-.75c.2-.22.44-.42.73-.59.28-.17.58-.32.9-.45-.55-.29-.99-.63-1.31-1.04-.32-.41-.48-.91-.48-1.5,0-.44.09-.82.26-1.16s.42-.62.72-.85c.3-.23.66-.4,1.06-.52.41-.12.84-.18,1.31-.18s.89.06,1.3.18c.41.12.76.29,1.06.52.3.23.54.51.71.85.18.34.26.72.26,1.16,0,.58-.16,1.07-.47,1.49s-.76.77-1.34,1.06Zm-1.53,4.26c.71,0,1.24-.15,1.59-.44s.53-.67.53-1.14c0-.26-.05-.48-.16-.68-.11-.2-.26-.37-.45-.52-.19-.15-.42-.28-.68-.4-.26-.12-.54-.23-.84-.34-.31.11-.59.22-.85.34-.26.12-.48.25-.67.41s-.34.33-.45.52c-.11.19-.16.42-.16.67,0,.47.18.85.55,1.14.36.29.9.44,1.61.44Zm0-8.11c-.5,0-.92.12-1.25.35-.33.23-.5.58-.5,1.02,0,.42.15.75.46.99.31.25.73.49,1.26.72.52-.22.94-.46,1.26-.71s.47-.58.47-1c0-.45-.17-.79-.5-1.02-.33-.23-.74-.35-1.22-.35Z" style="fill:#827a77; stroke-width:0px;"/><path d="m466.19,38.32c.68,0,1.28.14,1.78.41s.92.65,1.26,1.13.58,1.05.74,1.7c.16.65.24,1.36.24,2.13s-.08,1.47-.24,2.14-.4,1.26-.73,1.77-.74.91-1.25,1.2c-.51.29-1.11.44-1.8.44s-1.31-.15-1.82-.44c-.51-.29-.92-.69-1.25-1.2-.33-.51-.57-1.1-.73-1.77s-.24-1.39-.24-2.14.08-1.48.24-2.13c.16-.65.41-1.22.74-1.7s.75-.86,1.26-1.13,1.1-.41,1.79-.41Zm0,1.55c-.41,0-.75.09-1.04.27-.29.18-.52.44-.7.77s-.31.73-.4,1.2c-.09.47-.13,1-.13,1.58s.04,1.14.13,1.62c.08.49.22.9.4,1.26s.42.62.7.82.63.29,1.04.29.75-.1,1.03-.29c.28-.19.51-.46.7-.82.18-.35.31-.77.4-1.26.09-.49.13-1.03.13-1.62s-.04-1.11-.13-1.58c-.08-.47-.22-.87-.4-1.2-.18-.33-.41-.59-.7-.77-.28-.18-.63-.27-1.03-.27Z" style="fill:#827a77; stroke-width:0px;"/><path d="m474.59,38.32c.36,0,.71.07,1.04.2.33.13.61.31.86.54.25.23.44.5.58.82.14.32.21.66.21,1.02s-.07.72-.21,1.04c-.14.32-.33.59-.58.82s-.53.41-.86.54-.67.2-1.04.2-.72-.07-1.05-.2c-.33-.13-.61-.31-.85-.54-.24-.23-.43-.5-.57-.82-.14-.32-.21-.67-.21-1.04s.07-.7.21-1.02c.14-.32.33-.59.57-.82.24-.23.52-.41.85-.54.33-.13.68-.2,1.05-.2Zm0,1.2c-.39,0-.71.13-.95.4-.24.27-.37.6-.37,1s.12.74.37,1c.24.27.56.4.95.4s.7-.13.95-.4.37-.6.37-1-.12-.74-.37-1-.56-.4-.95-.4Zm.82,9.54h-1.41l6.05-10.56h1.42s-6.06,10.56-6.06,10.56Zm5.47-5.04c.36,0,.71.07,1.04.2.33.13.62.31.86.54.24.23.43.5.58.82.14.32.22.67.22,1.04s-.07.72-.22,1.03c-.14.31-.34.59-.58.82-.24.23-.53.41-.86.54-.33.13-.68.2-1.04.2s-.72-.07-1.04-.2-.6-.31-.84-.54-.43-.5-.57-.82-.21-.66-.21-1.03.07-.72.21-1.04c.14-.32.33-.59.57-.82s.52-.41.84-.54.67-.2,1.04-.2Zm.02,1.2c-.39,0-.71.13-.95.4-.24.27-.37.6-.37,1.01s.12.74.37,1c.24.26.56.39.95.39.37,0,.68-.13.93-.39.25-.26.37-.59.37-1s-.12-.74-.37-1.01-.56-.4-.93-.4Z" style="fill:#827a77; stroke-width:0px;"/><path d="m449.58,2.72v10.56h-1.7V4.72l-2.14.69-.42-1.49,3.66-1.2h.59Z" style="fill:#827a77; stroke-width:0px;"/><path d="m456.19,2.54c.68,0,1.28.14,1.78.41s.92.65,1.26,1.13.58,1.05.74,1.7c.16.65.24,1.36.24,2.13s-.08,1.47-.24,2.14-.4,1.26-.73,1.77-.74.91-1.25,1.2c-.51.29-1.11.44-1.8.44s-1.31-.15-1.82-.44c-.51-.29-.92-.69-1.25-1.2-.33-.51-.57-1.1-.73-1.77s-.24-1.39-.24-2.14.08-1.48.24-2.13c.16-.65.41-1.22.74-1.7s.75-.86,1.26-1.13,1.1-.41,1.79-.41Zm0,1.55c-.41,0-.75.09-1.04.27-.29.18-.52.44-.7.77s-.31.73-.4,1.2c-.09.47-.13,1-.13,1.58s.04,1.14.13,1.62c.08.49.22.9.4,1.26s.42.62.7.82.63.29,1.04.29.75-.1,1.03-.29c.28-.19.51-.46.7-.82.18-.35.31-.77.4-1.26.09-.49.13-1.03.13-1.62s-.04-1.11-.13-1.58c-.08-.47-.22-.87-.4-1.2-.18-.33-.41-.59-.7-.77-.28-.18-.63-.27-1.03-.27Z" style="fill:#827a77; stroke-width:0px;"/><path d="m466.19,2.54c.68,0,1.28.14,1.78.41s.92.65,1.26,1.13.58,1.05.74,1.7c.16.65.24,1.36.24,2.13s-.08,1.47-.24,2.14-.4,1.26-.73,1.77-.74.91-1.25,1.2c-.51.29-1.11.44-1.8.44s-1.31-.15-1.82-.44c-.51-.29-.92-.69-1.25-1.2-.33-.51-.57-1.1-.73-1.77s-.24-1.39-.24-2.14.08-1.48.24-2.13c.16-.65.41-1.22.74-1.7s.75-.86,1.26-1.13,1.1-.41,1.79-.41Zm0,1.55c-.41,0-.75.09-1.04.27-.29.18-.52.44-.7.77s-.31.73-.4,1.2c-.09.47-.13,1-.13,1.58s.04,1.14.13,1.62c.08.49.22.9.4,1.26s.42.62.7.82.63.29,1.04.29.75-.1,1.03-.29c.28-.19.51-.46.7-.82.18-.35.31-.77.4-1.26.09-.49.13-1.03.13-1.62s-.04-1.11-.13-1.58c-.08-.47-.22-.87-.4-1.2-.18-.33-.41-.59-.7-.77-.28-.18-.63-.27-1.03-.27Z" style="fill:#827a77; stroke-width:0px;"/><path d="m474.59,2.54c.36,0,.71.07,1.04.2.33.13.61.31.86.54.25.23.44.5.58.82.14.32.21.66.21,1.02s-.07.72-.21,1.04c-.14.32-.33.59-.58.82s-.53.41-.86.54-.67.2-1.04.2-.72-.07-1.05-.2c-.33-.13-.61-.31-.85-.54-.24-.23-.43-.5-.57-.82-.14-.32-.21-.67-.21-1.04s.07-.7.21-1.02c.14-.32.33-.59.57-.82.24-.23.52-.41.85-.54.33-.13.68-.2,1.05-.2Zm0,1.2c-.39,0-.71.13-.95.4-.24.27-.37.6-.37,1s.12.74.37,1c.24.27.56.4.95.4s.7-.13.95-.4.37-.6.37-1-.12-.74-.37-1-.56-.4-.95-.4Zm.82,9.54h-1.41l6.05-10.56h1.42s-6.06,10.56-6.06,10.56Zm5.47-5.04c.36,0,.71.07,1.04.2.33.13.62.31.86.54.24.23.43.5.58.82.14.32.22.67.22,1.04s-.07.72-.22,1.03c-.14.31-.34.59-.58.82-.24.23-.53.41-.86.54-.33.13-.68.2-1.04.2s-.72-.07-1.04-.2-.6-.31-.84-.54-.43-.5-.57-.82-.21-.66-.21-1.03.07-.72.21-1.04c.14-.32.33-.59.57-.82s.52-.41.84-.54.67-.2,1.04-.2Zm.02,1.2c-.39,0-.71.13-.95.4-.24.27-.37.6-.37,1.01s.12.74.37,1c.24.26.56.39.95.39.37,0,.68-.13.93-.39.25-.26.37-.59.37-1s-.12-.74-.37-1.01-.56-.4-.93-.4Z" style="fill:#827a77; stroke-width:0px;"/><path d="m456.48,78.58c.46,0,.9.09,1.31.26.42.18.79.42,1.11.74.32.31.58.69.77,1.12.19.43.29.9.29,1.42s-.1,1.01-.3,1.46c-.2.45-.47.83-.81,1.16-.34.33-.74.58-1.19.76-.45.18-.94.27-1.45.27s-.99-.09-1.44-.27c-.45-.18-.84-.43-1.19-.76-.34-.33-.61-.71-.81-1.16-.2-.45-.3-.94-.3-1.47,0-.32.04-.62.1-.9s.17-.55.3-.82c.13-.27.28-.53.46-.79.18-.26.37-.54.58-.84l2.64-3.73h2l-2.54,3.6c.14-.03.29-.05.46-.05Zm-.28,5.63c.29,0,.56-.05.81-.16.25-.11.47-.25.66-.44.19-.19.33-.41.44-.66.11-.26.16-.53.16-.83s-.05-.58-.16-.83c-.11-.26-.25-.48-.44-.66s-.41-.33-.66-.44c-.25-.11-.52-.16-.81-.16s-.56.05-.82.16c-.26.11-.47.25-.66.44-.18.19-.33.41-.43.66-.11.26-.16.53-.16.83s.05.58.16.83c.11.26.25.48.43.66.18.19.4.33.66.44.26.11.53.16.82.16Z" style="fill:#827a77; stroke-width:0px;"/><path d="m465.66,74.85c.68,0,1.28.14,1.78.41s.92.65,1.26,1.13.58,1.05.74,1.7c.16.65.24,1.36.24,2.13s-.08,1.47-.24,2.14-.4,1.26-.73,1.77-.74.91-1.25,1.2c-.51.29-1.11.44-1.8.44s-1.31-.15-1.82-.44c-.51-.29-.92-.69-1.25-1.2-.33-.51-.57-1.1-.73-1.77s-.24-1.39-.24-2.14.08-1.48.24-2.13c.16-.65.41-1.22.74-1.7s.75-.86,1.26-1.13,1.1-.41,1.79-.41Zm0,1.55c-.41,0-.75.09-1.04.27-.29.18-.52.44-.7.77s-.31.73-.4,1.2c-.09.47-.13,1-.13,1.58s.04,1.14.13,1.62c.08.49.22.9.4,1.26s.42.62.7.82.63.29,1.04.29.75-.1,1.03-.29c.28-.19.51-.46.7-.82.18-.35.31-.77.4-1.26.09-.49.13-1.03.13-1.62s-.04-1.11-.13-1.58c-.08-.47-.22-.87-.4-1.2-.18-.33-.41-.59-.7-.77-.28-.18-.63-.27-1.03-.27Z" style="fill:#827a77; stroke-width:0px;"/><path d="m474.06,74.85c.36,0,.71.07,1.04.2.33.13.61.31.86.54.25.23.44.5.58.82.14.32.21.66.21,1.02s-.07.72-.21,1.04c-.14.32-.33.59-.58.82s-.53.41-.86.54-.67.2-1.04.2-.72-.07-1.05-.2c-.33-.13-.61-.31-.85-.54-.24-.23-.43-.5-.57-.82-.14-.32-.21-.67-.21-1.04s.07-.7.21-1.02c.14-.32.33-.59.57-.82.24-.23.52-.41.85-.54.33-.13.68-.2,1.05-.2Zm0,1.2c-.39,0-.71.13-.95.4-.24.27-.37.6-.37,1s.12.74.37,1c.24.27.56.4.95.4s.7-.13.95-.4.37-.6.37-1-.12-.74-.37-1-.56-.4-.95-.4Zm.82,9.54h-1.41l6.05-10.56h1.42s-6.06,10.56-6.06,10.56Zm5.47-5.04c.36,0,.71.07,1.04.2.33.13.62.31.86.54.24.23.43.5.58.82.14.32.22.67.22,1.04s-.07.72-.22,1.03c-.14.31-.34.59-.58.82-.24.23-.53.41-.86.54-.33.13-.68.2-1.04.2s-.72-.07-1.04-.2-.6-.31-.84-.54-.43-.5-.57-.82-.21-.66-.21-1.03.07-.72.21-1.04c.14-.32.33-.59.57-.82s.52-.41.84-.54.67-.2,1.04-.2Zm.02,1.2c-.39,0-.71.13-.95.4-.24.27-.37.6-.37,1.01s.12.74.37,1c.24.26.56.39.95.39.37,0,.68-.13.93-.39.25-.26.37-.59.37-1s-.12-.74-.37-1.01-.56-.4-.93-.4Z" style="fill:#827a77; stroke-width:0px;"/><g style="opacity:.59;"><path d="m237.88,114.4c1.79-.04,3.45-.59,4.96-1.33.71-.44,1.47-.82,2.1-1.35l.98-.76.89-.84c2.35-2.27,4.16-4.99,5.55-7.88,1.38-2.89,2.33-5.97,2.91-9.1.56-3.15.84-6.28.59-9.55-.3-3.24-1.27-6.36-2.59-9.26-1.32-2.91-3.01-5.62-4.91-8.15-.24-.32-.47-.63-.72-.94l-.29-.36-.37-.46-.75-.9c-.5-.6-1.02-1.18-1.53-1.76,1.99-.67,4.01-1.3,6.08-1.84-.7-.39-1.42-.77-2.11-1.11-.7-.36-1.33-.62-2.01-.96l-4.01-1.92-8.03-3.85,2.84,8.44,1.42,4.22c.22.69.51,1.44.71,2.11.22.68.4,1.33.57,1.99,1.01-1.8,1.95-3.67,2.85-5.56.51.57,1,1.14,1.49,1.72l.72.87.35.44.28.35c.24.3.47.6.69.9,1.82,2.42,3.42,5,4.66,7.73,1.24,2.72,2.12,5.6,2.4,8.54.23,2.91-.03,6-.56,8.93-.54,2.95-1.44,5.84-2.73,8.54-1.29,2.69-2.97,5.2-5.08,7.23l-.8.75-.86.66c-.55.48-1.2.78-1.8,1.17-1.26.62-2.59,1.04-3.92,1.08v2.25Z" style="fill:#9f9e9e; stroke-width:0px;"/></g></svg>
