<?xml version="1.0" encoding="UTF-8"?><svg id="Layer_1" xmlns="http://www.w3.org/2000/svg" width="20" height="20" viewBox="0 0 20 20"><rect x="2.61" y="2.34" width="15.32" height="15.32" style="fill:none; stroke:#fbd8da; stroke-miterlimit:10;"/><polygon points="2.61 2.34 2.61 6.13 6.4 2.34 2.61 2.34" style="fill:none; stroke:#fbd8da; stroke-miterlimit:10; stroke-width:.71px;"/><polygon points="11.31 5.92 11.35 5.88 11.35 5.88 14.88 2.34 11.06 2.34 9.44 3.97 9.44 3.97 9.4 4.01 2.61 10.79 2.61 14.61 11.31 5.92" style="fill:none; stroke:#fbd8da; stroke-miterlimit:10; stroke-width:.71px;"/><polyline points="17.93 3.96 13.68 8.21 13.68 8.21 13.64 8.25 4.23 17.66 8.05 17.66 15.55 10.16 15.59 10.12 15.59 10.12 17.93 7.78" style="fill:none; stroke:#fbd8da; stroke-miterlimit:10; stroke-width:.71px;"/><polygon points="9.2 3.78 10.64 2.34 6.82 2.34 2.61 6.55 2.61 10.37 9.18 3.8 9.2 3.78" style="fill:none; stroke:#fbd8da; stroke-miterlimit:10; stroke-width:.71px;"/><polygon points="13.43 8.04 17.93 3.53 17.93 2.34 15.31 2.34 11.53 6.12 11.52 6.13 2.61 15.04 2.61 17.66 3.81 17.66 13.43 8.04 13.43 8.04" style="fill:none; stroke:#fbd8da; stroke-miterlimit:10; stroke-width:.71px;"/><polygon points="17.93 12.44 17.88 12.5 17.84 12.54 17.84 12.54 12.71 17.66 16.53 17.66 17.93 16.26 17.93 12.44" style="fill:none; stroke:#fbd8da; stroke-miterlimit:10; stroke-width:.71px;"/><polygon points="17.93 16.69 16.96 17.66 17.93 17.66 17.93 16.69" style="fill:none; stroke:#fbd8da; stroke-miterlimit:10; stroke-width:.71px;"/><polygon points="13.47 8 13.68 8.21 17.93 3.96 17.93 3.53 13.43 8.04 13.47 8" style="fill:#fbd8da; stroke:#fbd8da; stroke-miterlimit:10; stroke-width:.71px;"/><polygon points="9.23 3.75 9.44 3.97 11.06 2.34 10.64 2.34 9.2 3.78 9.23 3.75" style="fill:#fbd8da; stroke:#fbd8da; stroke-miterlimit:10; stroke-width:.71px;"/><polygon points="11.56 6.09 11.53 6.12 15.31 2.34 14.88 2.34 11.35 5.88 11.56 6.09" style="fill:#fbd8da; stroke:#fbd8da; stroke-miterlimit:10; stroke-width:.71px;"/><polygon points="13.43 8.04 13.43 8.04 13.64 8.25 13.68 8.21 13.68 8.21 13.47 8 13.43 8.04" style="fill:#fbd8da; stroke:#fbd8da; stroke-miterlimit:10; stroke-width:.71px;"/><polygon points="9.2 3.78 9.18 3.8 9.4 4.01 9.44 3.97 9.44 3.97 9.23 3.75 9.2 3.78" style="fill:#fbd8da; stroke:#fbd8da; stroke-miterlimit:10; stroke-width:.71px;"/><polygon points="11.35 5.88 11.35 5.88 11.31 5.92 11.52 6.13 11.53 6.12 11.56 6.09 11.35 5.88" style="fill:#fbd8da; stroke:#fbd8da; stroke-miterlimit:10; stroke-width:.71px;"/><polygon points="17.93 12.45 17.88 12.5 17.88 12.5 17.93 12.44 17.93 12.02 17.71 12.24 17.93 12.45" style="fill:#fbd8da; stroke:#fbd8da; stroke-miterlimit:10; stroke-width:.71px;"/><polygon points="15.8 10.33 15.76 10.37 17.93 8.2 17.93 7.78 15.59 10.12 15.8 10.33" style="fill:#fbd8da; stroke:#fbd8da; stroke-miterlimit:10; stroke-width:.71px;"/><polygon points="17.71 12.24 17.71 12.24 17.67 12.28 17.88 12.5 17.93 12.45 17.71 12.24" style="fill:#fbd8da; stroke:#fbd8da; stroke-miterlimit:10; stroke-width:.71px;"/><polygon points="15.59 10.12 15.59 10.12 15.55 10.16 15.76 10.37 15.76 10.37 15.8 10.33 15.59 10.12" style="fill:#fbd8da; stroke:#fbd8da; stroke-miterlimit:10; stroke-width:.71px;"/><polygon points="13.43 8.04 3.81 17.66 4.23 17.66 13.64 8.25 13.43 8.04" style="fill:#fbd8da; stroke:#fbd8da; stroke-miterlimit:10; stroke-width:.71px;"/><polygon points="9.4 4.01 9.18 3.8 2.61 10.37 2.61 10.79 9.4 4.01" style="fill:#fbd8da; stroke:#fbd8da; stroke-miterlimit:10; stroke-width:.71px;"/><polygon points="11.31 5.92 2.61 14.61 2.61 15.04 11.52 6.13 11.31 5.92" style="fill:#fbd8da; stroke:#fbd8da; stroke-miterlimit:10; stroke-width:.71px;"/><polygon points="6.4 2.34 2.61 6.13 2.61 6.55 6.82 2.34 6.4 2.34" style="fill:#fbd8da; stroke:#fbd8da; stroke-miterlimit:10; stroke-width:.71px;"/><rect x="17.83" y="12.52" width=".06" height="0" transform="translate(-3.62 16.3) rotate(-45)" style="fill:#fbd8da; stroke:#fbd8da; stroke-miterlimit:10; stroke-width:.71px;"/><polygon points="17.88 12.5 17.67 12.28 12.29 17.66 12.71 17.66 17.84 12.54 17.88 12.5" style="fill:#fbd8da; stroke:#fbd8da; stroke-miterlimit:10; stroke-width:.71px;"/><polygon points="17.93 16.26 16.53 17.66 16.96 17.66 17.93 16.69 17.93 16.26" style="fill:#fbd8da; stroke:#fbd8da; stroke-miterlimit:10; stroke-width:.71px;"/><polygon points="15.55 10.16 8.05 17.66 8.47 17.66 15.76 10.37 15.55 10.16" style="fill:#fbd8da; stroke:#fbd8da; stroke-miterlimit:10; stroke-width:.71px;"/></svg>
